SplineFontDB: 3.0
FontName: Bangers-Regular
FullName: Bangers Regular
FamilyName: Bangers
Weight: Book
Copyright: Copyright 2010 The Bangers Project Authors (contact@sansoxygen.com)
Version: 2.000
ItalicAngle: 0
UnderlinePosition: 0
UnderlineWidth: 0
Ascent: 800
Descent: 200
InvalidEm: 0
sfntRevision: 0x00020000
LayerCount: 2
Layer: 0 1 "Back" 1
Layer: 1 1 "Fore" 0
XUID: [1021 172 777149276 22229]
StyleMap: 0x0040
FSType: 0
OS2Version: 4
OS2_WeightWidthSlopeOnly: 0
OS2_UseTypoMetrics: 1
CreationTime: 1467842242
ModificationTime: 1554804640
PfmFamily: 81
TTFWeight: 400
TTFWidth: 5
LineGap: 0
VLineGap: 0
Panose: 0 0 5 0 0 0 0 0 0 0
OS2TypoAscent: 883
OS2TypoAOffset: 0
OS2TypoDescent: -181
OS2TypoDOffset: 0
OS2TypoLinegap: 0
OS2WinAscent: 1401
OS2WinAOffset: 0
OS2WinDescent: 356
OS2WinDOffset: 0
HheadAscent: 883
HheadAOffset: 0
HheadDescent: -181
HheadDOffset: 0
OS2SubXSize: 650
OS2SubYSize: 600
OS2SubXOff: 0
OS2SubYOff: 75
OS2SupXSize: 650
OS2SupYSize: 600
OS2SupXOff: 0
OS2SupYOff: 350
OS2StrikeYSize: 0
OS2StrikeYPos: 432
OS2CapHeight: 721
OS2XHeight: 721
OS2Vendor: 'newt'
OS2CodePages: 20000193.00000000
OS2UnicodeRanges: 20000007.00000000.00000000.00000000
Lookup: 1 0 0 "'aalt' Access All Alternates in Latin lookup 0" { "'aalt' Access All Alternates in Latin lookup 0 subtable"  } ['aalt' ('DFLT' <'dflt' > 'latn' <'AZE ' 'CAT ' 'CRT ' 'KAZ ' 'MOL ' 'ROM ' 'TAT ' 'TRK ' 'dflt' > ) ]
Lookup: 3 0 0 "'aalt' Access All Alternates in Latin lookup 1" { "'aalt' Access All Alternates in Latin lookup 1 subtable"  } ['aalt' ('DFLT' <'dflt' > 'latn' <'AZE ' 'CAT ' 'CRT ' 'KAZ ' 'MOL ' 'ROM ' 'TAT ' 'TRK ' 'dflt' > ) ]

StartChar: A
Encoding: 65 65 4
Width: 433
GlyphClass: 2
Flags: W
AnchorPoint: "Anchor-7" 0 0 basechar 0
AnchorPoint: "Anchor-6" 282 721 basechar 0
AnchorPoint: "Anchor-5" 419 10 basechar 0
AnchorPoint: "Anchor-4" 217 0 basechar 0
LayerCount: 2
Fore
SplineSet
313 11 m 128,-1,1
 283 6 283 6 259 2 c 1,2,3
 263 35 263 35 267 67 c 0,4,5
 270 95 270 95 272.5 123 c 128,-1,6
 275 151 275 151 277 171 c 1,7,-1
 190 171 l 1,8,-1
 150 27 l 1,9,10
 128 24 128 24 98 20.5 c 128,-1,11
 68 17 68 17 42 14 c 0,12,13
 10 10 10 10 -21 6 c 1,14,15
 19 139 19 139 58 268 c 0,16,17
 74 322 74 322 91.5 381 c 128,-1,18
 109 440 109 440 126.5 498.5 c 128,-1,19
 144 557 144 557 160 611 c 128,-1,20
 176 665 176 665 188 710 c 1,21,22
 256 715 256 715 326.5 722 c 128,-1,23
 397 729 397 729 464 741 c 1,24,25
 461 709 461 709 457.5 661.5 c 128,-1,26
 454 614 454 614 451 558 c 128,-1,27
 448 502 448 502 445 441 c 128,-1,28
 442 380 442 380 439 321 c 0,29,30
 434 183 434 183 428 28 c 1,31,32
 398 23 398 23 368 20 c 0,33,0
 343 16 343 16 313 11 c 128,-1,1
214 271 m 2,34,35
 218 271 218 271 228.5 271.5 c 128,-1,36
 239 272 239 272 250.5 272.5 c 128,-1,37
 262 273 262 273 272 273.5 c 128,-1,38
 282 274 282 274 286 275 c 1,39,40
 286 281 286 281 287.5 295.5 c 128,-1,41
 289 310 289 310 290.5 328.5 c 128,-1,42
 292 347 292 347 294 369 c 128,-1,43
 296 391 296 391 298 412 c 0,44,45
 302 463 302 463 308 522 c 2,46,-1
 314 609 l 1,47,-1
 299 608 l 1,48,-1
 276 522 l 1,49,-1
 214 271 l 2,34,35
EndSplineSet
Validated: 1
Substitution2: "Single Substitution lookup 19 subtable" ordfeminine
Substitution2: "'aalt' Access All Alternates in Latin lookup 0 subtable" ordfeminine
EndChar

StartChar: uni0200
Encoding: 512 512 18
Width: 433
GlyphClass: 2
Flags: W
AnchorPoint: "Anchor-7" 0 0 basechar 0
AnchorPoint: "Anchor-6" 268 991 basechar 0
AnchorPoint: "Anchor-5" 419 10 basechar 0
AnchorPoint: "Anchor-4" 0 0 basechar 0
LayerCount: 2
Fore
SplineSet
313 11 m 128,-1,1
 283 6 283 6 259 2 c 1,2,3
 263 35 263 35 267 67 c 0,4,5
 270 95 270 95 272.5 123 c 128,-1,6
 275 151 275 151 277 171 c 1,7,-1
 190 171 l 1,8,-1
 150 27 l 1,9,10
 128 24 128 24 98 20.5 c 128,-1,11
 68 17 68 17 42 14 c 0,12,13
 10 10 10 10 -21 6 c 1,14,15
 19 139 19 139 58 268 c 0,16,17
 74 322 74 322 91.5 381 c 128,-1,18
 109 440 109 440 126.5 498.5 c 128,-1,19
 144 557 144 557 160 611 c 128,-1,20
 176 665 176 665 188 710 c 1,21,22
 256 715 256 715 326.5 722 c 128,-1,23
 397 729 397 729 464 741 c 1,24,25
 461 709 461 709 457.5 661.5 c 128,-1,26
 454 614 454 614 451 558 c 128,-1,27
 448 502 448 502 445 441 c 128,-1,28
 442 380 442 380 439 321 c 0,29,30
 434 183 434 183 428 28 c 1,31,32
 398 23 398 23 368 20 c 0,33,0
 343 16 343 16 313 11 c 128,-1,1
214 271 m 2,34,35
 218 271 218 271 228.5 271.5 c 128,-1,36
 239 272 239 272 250.5 272.5 c 128,-1,37
 262 273 262 273 272 273.5 c 128,-1,38
 282 274 282 274 286 275 c 1,39,40
 286 281 286 281 287.5 295.5 c 128,-1,41
 289 310 289 310 290.5 328.5 c 128,-1,42
 292 347 292 347 294 369 c 128,-1,43
 296 391 296 391 298 412 c 0,44,45
 302 463 302 463 308 522 c 2,46,-1
 314 609 l 1,47,-1
 299 608 l 1,48,-1
 276 522 l 1,49,-1
 214 271 l 2,34,35
247 732 m 1,50,51
 196 744 196 744 149 756 c 0,52,53
 108 765 108 765 65 776.5 c 128,-1,54
 22 788 22 788 -7 797 c 1,55,56
 -1 826 -1 826 7 867.5 c 128,-1,57
 15 909 15 909 22 948 c 0,58,59
 31 994 31 994 40 1042 c 1,60,61
 79 1000 79 1000 118 960 c 0,62,63
 151 925 151 925 188.5 885 c 128,-1,64
 226 845 226 845 254 813 c 1,65,-1
 247 732 l 1,50,51
536 707 m 1,66,67
 485 719 485 719 438 731 c 0,68,69
 397 740 397 740 354 751.5 c 128,-1,70
 311 763 311 763 282 772 c 1,71,72
 288 801 288 801 296 842.5 c 128,-1,73
 304 884 304 884 311 923 c 0,74,75
 320 969 320 969 329 1017 c 1,76,77
 368 975 368 975 407 935 c 0,78,79
 440 900 440 900 477.5 860 c 128,-1,80
 515 820 515 820 543 788 c 1,81,-1
 536 707 l 1,66,67
EndSplineSet
Validated: 5
EndChar

StartChar: Aogonek
Encoding: 260 260 25
Width: 433
GlyphClass: 2
Flags: W
AnchorPoint: "Anchor-7" 0 0 basechar 0
AnchorPoint: "Anchor-6" 282 721 basechar 0
AnchorPoint: "Anchor-5" 419 10 basechar 0
AnchorPoint: "Anchor-4" 217 0 basechar 0
LayerCount: 2
Fore
SplineSet
313 11 m 128,-1,1
 283 6 283 6 259 2 c 1,2,3
 263 35 263 35 267 67 c 0,4,5
 270 95 270 95 272.5 123 c 128,-1,6
 275 151 275 151 277 171 c 1,7,-1
 190 171 l 1,8,-1
 150 27 l 1,9,10
 128 24 128 24 98 20.5 c 128,-1,11
 68 17 68 17 42 14 c 0,12,13
 10 10 10 10 -21 6 c 1,14,15
 19 139 19 139 58 268 c 0,16,17
 74 322 74 322 91.5 381 c 128,-1,18
 109 440 109 440 126.5 498.5 c 128,-1,19
 144 557 144 557 160 611 c 128,-1,20
 176 665 176 665 188 710 c 1,21,22
 256 715 256 715 326.5 722 c 128,-1,23
 397 729 397 729 464 741 c 1,24,25
 461 709 461 709 457.5 661.5 c 128,-1,26
 454 614 454 614 451 558 c 128,-1,27
 448 502 448 502 445 441 c 128,-1,28
 442 380 442 380 439 321 c 0,29,30
 434 183 434 183 428 28 c 1,31,32
 398 23 398 23 368 20 c 0,33,0
 343 16 343 16 313 11 c 128,-1,1
214 271 m 2,34,35
 218 271 218 271 228.5 271.5 c 128,-1,36
 239 272 239 272 250.5 272.5 c 128,-1,37
 262 273 262 273 272 273.5 c 128,-1,38
 282 274 282 274 286 275 c 1,39,40
 286 281 286 281 287.5 295.5 c 128,-1,41
 289 310 289 310 290.5 328.5 c 128,-1,42
 292 347 292 347 294 369 c 128,-1,43
 296 391 296 391 298 412 c 0,44,45
 302 463 302 463 308 522 c 2,46,-1
 314 609 l 1,47,-1
 299 608 l 1,48,-1
 276 522 l 1,49,-1
 214 271 l 2,34,35
427.5 -125 m 128,-1,51
 405 -134 405 -134 382 -134 c 0,52,53
 352 -134 352 -134 327.5 -126.5 c 128,-1,54
 303 -119 303 -119 285 -106 c 128,-1,55
 267 -93 267 -93 257 -75.5 c 128,-1,56
 247 -58 247 -58 247 -37 c 0,57,58
 247 2 247 2 287 41 c 0,59,60
 288 41 288 41 297 42.5 c 128,-1,61
 306 44 306 44 318 46 c 128,-1,62
 330 48 330 48 347 50 c 1,63,64
 343 32 343 32 343 20 c 0,65,66
 343 -5 343 -5 357.5 -21 c 128,-1,67
 372 -37 372 -37 393 -37 c 0,68,69
 421 -37 421 -37 446 -9 c 1,70,-1
 466 -97 l 1,71,50
 450 -116 450 -116 427.5 -125 c 128,-1,51
EndSplineSet
Validated: 5
EndChar

StartChar: AE
Encoding: 198 198 29
Width: 516
GlyphClass: 2
Flags: W
AnchorPoint: "Anchor-7" 0 0 basechar 0
AnchorPoint: "Anchor-6" 459 718 basechar 0
AnchorPoint: "Anchor-5" 0 0 basechar 0
AnchorPoint: "Anchor-4" 258 0 basechar 0
LayerCount: 2
Fore
SplineSet
246 -1 m 1,0,-1
 246 2 l 1,1,-1
 244 2 l 1,2,3
 251 35 251 35 257 65 c 128,-1,4
 263 95 263 95 268.5 123 c 128,-1,5
 274 151 274 151 277 171 c 1,6,-1
 204 171 l 1,7,-1
 152 27 l 1,8,9
 130 24 130 24 98.5 20.5 c 128,-1,10
 67 17 67 17 39 14 c 0,11,12
 6 10 6 10 -29 6 c 1,13,14
 23 139 23 139 73 268 c 0,15,16
 95 322 95 322 117.5 381 c 128,-1,17
 140 440 140 440 162 498.5 c 128,-1,18
 184 557 184 557 204 611 c 128,-1,19
 224 665 224 665 240 710 c 1,20,21
 274 713 274 713 303.5 714 c 128,-1,22
 333 715 333 715 363 715.5 c 128,-1,23
 393 716 393 716 426 717 c 128,-1,24
 459 718 459 718 501 722 c 2,25,-1
 605 730 l 1,26,-1
 566 609 l 1,27,28
 560 610 560 610 550 611 c 128,-1,29
 540 612 540 612 528 612.5 c 128,-1,30
 516 613 516 613 500 613 c 1,31,-1
 475 434 l 1,32,33
 488 436 488 436 501 437 c 0,34,35
 512 438 512 438 525 438 c 128,-1,36
 538 438 538 438 549 439 c 1,37,38
 545 411 545 411 541.5 384 c 128,-1,39
 538 357 538 357 533 329 c 1,40,41
 522 328 522 328 509.5 327.5 c 128,-1,42
 497 327 497 327 486 326 c 0,43,44
 474 325 474 325 461 324 c 1,45,-1
 435 141 l 1,46,-1
 519 147 l 1,47,-1
 509 33 l 1,48,-1
 246 -1 l 1,0,-1
236 271 m 2,49,50
 240 271 240 271 248.5 271.5 c 128,-1,51
 257 272 257 272 265.5 272.5 c 128,-1,52
 274 273 274 273 282.5 273.5 c 128,-1,53
 291 274 291 274 295 275 c 0,54,55
 296 284 296 284 300 306 c 128,-1,56
 304 328 304 328 309 358 c 128,-1,57
 314 388 314 388 320.5 422.5 c 128,-1,58
 327 457 327 457 333.5 491.5 c 128,-1,59
 340 526 340 526 346 557 c 128,-1,60
 352 588 352 588 356 609 c 1,61,-1
 346 608 l 1,62,-1
 313 522 l 1,63,-1
 236 271 l 2,49,50
EndSplineSet
Validated: 1
EndChar

StartChar: B
Encoding: 66 66 31
Width: 428
GlyphClass: 2
Flags: W
AnchorPoint: "Anchor-7" 0 0 basechar 0
AnchorPoint: "Anchor-6" 345 721 basechar 0
AnchorPoint: "Anchor-5" 0 0 basechar 0
AnchorPoint: "Anchor-4" 214 0 basechar 0
LayerCount: 2
Fore
SplineSet
435 175 m 128,-1,1
 418 140 418 140 389 111.5 c 128,-1,2
 360 83 360 83 321.5 61.5 c 128,-1,3
 283 40 283 40 240.5 25.5 c 128,-1,4
 198 11 198 11 153.5 3.5 c 128,-1,5
 109 -4 109 -4 68 -4 c 0,6,7
 31 -4 31 -4 -1 2 c 1,8,9
 47 177 47 177 75.5 354.5 c 128,-1,10
 104 532 104 532 130 712 c 1,11,12
 182 723 182 723 238 731.5 c 128,-1,13
 294 740 294 740 354 740 c 0,14,15
 379 740 379 740 407 734 c 128,-1,16
 435 728 435 728 458 712 c 128,-1,17
 481 696 481 696 496.5 670 c 128,-1,18
 512 644 512 644 512 604 c 0,19,20
 512 566 512 566 499.5 533 c 128,-1,21
 487 500 487 500 467.5 473 c 128,-1,22
 448 446 448 446 423 426.5 c 128,-1,23
 398 407 398 407 372 397 c 1,24,25
 385 390 385 390 399 377 c 128,-1,26
 413 364 413 364 425 346.5 c 128,-1,27
 437 329 437 329 444.5 305 c 128,-1,28
 452 281 452 281 452 251 c 0,29,0
 452 210 452 210 435 175 c 128,-1,1
215.5 312.5 m 128,-1,31
 212 294 212 294 209 277 c 128,-1,32
 206 260 206 260 202.5 241.5 c 128,-1,33
 199 223 199 223 195 198 c 1,34,35
 214 200 214 200 238 205 c 128,-1,36
 262 210 262 210 284 220.5 c 128,-1,37
 306 231 306 231 321 248.5 c 128,-1,38
 336 266 336 266 336 291 c 0,39,40
 336 309 336 309 326.5 321 c 128,-1,41
 317 333 317 333 302.5 341 c 128,-1,42
 288 349 288 349 271 352.5 c 128,-1,43
 254 356 254 356 239 356 c 0,44,45
 234 356 234 356 230.5 356 c 128,-1,46
 227 356 227 356 223 355 c 0,47,30
 219 331 219 331 215.5 312.5 c 128,-1,31
263.5 571 m 128,-1,49
 261 556 261 556 258 539.5 c 128,-1,50
 255 523 255 523 251.5 507 c 128,-1,51
 248 491 248 491 246 479 c 1,52,53
 268 483 268 483 290 490 c 128,-1,54
 312 497 312 497 329.5 505.5 c 128,-1,55
 347 514 347 514 357.5 524 c 128,-1,56
 368 534 368 534 368 546 c 0,57,58
 368 561 368 561 359 570.5 c 128,-1,59
 350 580 350 580 335.5 586 c 128,-1,60
 321 592 321 592 305.5 594.5 c 128,-1,61
 290 597 290 597 278 597 c 2,62,-1
 268 597 l 1,63,48
 266 586 266 586 263.5 571 c 128,-1,49
EndSplineSet
Validated: 1
EndChar

StartChar: C
Encoding: 67 67 32
Width: 414
GlyphClass: 2
Flags: W
AnchorPoint: "Anchor-7" 0 0 basechar 0
AnchorPoint: "Anchor-6" 392 731 basechar 0
AnchorPoint: "Anchor-5" 0 0 basechar 0
AnchorPoint: "Anchor-4" 207 0 basechar 0
LayerCount: 2
Fore
SplineSet
373.5 119.5 m 128,-1,1
 344 79 344 79 311.5 51.5 c 128,-1,2
 279 24 279 24 246 11 c 128,-1,3
 213 -2 213 -2 182 -2 c 256,4,5
 151 -2 151 -2 125.5 12 c 128,-1,6
 100 26 100 26 81 54 c 128,-1,7
 62 82 62 82 50.5 123 c 128,-1,8
 39 164 39 164 39 219 c 0,9,10
 39 313 39 313 65 404.5 c 128,-1,11
 91 496 91 496 138 569 c 128,-1,12
 185 642 185 642 249.5 686.5 c 128,-1,13
 314 731 314 731 392 731 c 0,14,15
 416 731 416 731 438 721 c 128,-1,16
 460 711 460 711 476 693 c 128,-1,17
 492 675 492 675 501.5 649 c 128,-1,18
 511 623 511 623 511 591 c 0,19,20
 511 585 511 585 511 578.5 c 128,-1,21
 511 572 511 572 510 565 c 1,22,-1
 379 530 l 1,23,24
 367 555 367 555 351 555 c 256,25,26
 335 555 335 555 317.5 536.5 c 128,-1,27
 300 518 300 518 283 488.5 c 128,-1,28
 266 459 266 459 250 422.5 c 128,-1,29
 234 386 234 386 222 349 c 128,-1,30
 210 312 210 312 202.5 278.5 c 128,-1,31
 195 245 195 245 195 224 c 0,32,33
 195 192 195 192 203.5 179 c 128,-1,34
 212 166 212 166 226 166 c 0,35,36
 237 166 237 166 251 174.5 c 128,-1,37
 265 183 265 183 277 196.5 c 128,-1,38
 289 210 289 210 299 227 c 128,-1,39
 309 244 309 244 313 261 c 1,40,-1
 427 215 l 1,41,0
 403 160 403 160 373.5 119.5 c 128,-1,1
EndSplineSet
Validated: 1
EndChar

StartChar: Ccedilla
Encoding: 199 199 35
Width: 414
GlyphClass: 2
Flags: W
AnchorPoint: "Anchor-7" 0 0 basechar 0
AnchorPoint: "Anchor-6" 392 731 basechar 0
AnchorPoint: "Anchor-5" 0 0 basechar 0
AnchorPoint: "Anchor-4" 207 -165 basechar 0
LayerCount: 2
Fore
SplineSet
373.5 119.5 m 128,-1,1
 344 79 344 79 311.5 51.5 c 128,-1,2
 279 24 279 24 246 11 c 128,-1,3
 213 -2 213 -2 182 -2 c 256,4,5
 151 -2 151 -2 125.5 12 c 128,-1,6
 100 26 100 26 81 54 c 128,-1,7
 62 82 62 82 50.5 123 c 128,-1,8
 39 164 39 164 39 219 c 0,9,10
 39 313 39 313 65 404.5 c 128,-1,11
 91 496 91 496 138 569 c 128,-1,12
 185 642 185 642 249.5 686.5 c 128,-1,13
 314 731 314 731 392 731 c 0,14,15
 416 731 416 731 438 721 c 128,-1,16
 460 711 460 711 476 693 c 128,-1,17
 492 675 492 675 501.5 649 c 128,-1,18
 511 623 511 623 511 591 c 0,19,20
 511 585 511 585 511 578.5 c 128,-1,21
 511 572 511 572 510 565 c 1,22,-1
 379 530 l 1,23,24
 367 555 367 555 351 555 c 256,25,26
 335 555 335 555 317.5 536.5 c 128,-1,27
 300 518 300 518 283 488.5 c 128,-1,28
 266 459 266 459 250 422.5 c 128,-1,29
 234 386 234 386 222 349 c 128,-1,30
 210 312 210 312 202.5 278.5 c 128,-1,31
 195 245 195 245 195 224 c 0,32,33
 195 192 195 192 203.5 179 c 128,-1,34
 212 166 212 166 226 166 c 0,35,36
 237 166 237 166 251 174.5 c 128,-1,37
 265 183 265 183 277 196.5 c 128,-1,38
 289 210 289 210 299 227 c 128,-1,39
 309 244 309 244 313 261 c 1,40,-1
 427 215 l 1,41,0
 403 160 403 160 373.5 119.5 c 128,-1,1
306.5 -106.5 m 128,-1,43
 296 -124 296 -124 278 -137 c 128,-1,44
 260 -150 260 -150 235.5 -157.5 c 128,-1,45
 211 -165 211 -165 182 -165 c 0,46,47
 158 -165 158 -165 135.5 -156 c 128,-1,48
 113 -147 113 -147 98 -128 c 1,49,-1
 117 -40 l 1,50,51
 143 -68 143 -68 170 -68 c 0,52,53
 192 -68 192 -68 206.5 -52 c 128,-1,54
 221 -36 221 -36 221 -11 c 0,55,56
 221 1 221 1 216 19 c 1,57,58
 234 17 234 17 245.5 15 c 128,-1,59
 257 13 257 13 266.5 11.5 c 128,-1,60
 276 10 276 10 277 10 c 0,61,62
 317 -29 317 -29 317 -68 c 0,63,42
 317 -89 317 -89 306.5 -106.5 c 128,-1,43
EndSplineSet
Validated: 5
EndChar

StartChar: D
Encoding: 68 68 38
Width: 441
GlyphClass: 2
Flags: W
AnchorPoint: "Anchor-7" 0 0 basechar 0
AnchorPoint: "Anchor-6" 313 721 basechar 0
AnchorPoint: "Anchor-5" 0 0 basechar 0
AnchorPoint: "Anchor-4" 221 0 basechar 0
LayerCount: 2
Fore
SplineSet
494 400.5 m 128,-1,1
 479 342 479 342 452 284.5 c 128,-1,2
 425 227 425 227 385.5 174.5 c 128,-1,3
 346 122 346 122 296 82.5 c 128,-1,4
 246 43 246 43 186.5 19 c 128,-1,5
 127 -5 127 -5 60 -5 c 0,6,7
 46 -5 46 -5 32 -3.5 c 128,-1,8
 18 -2 18 -2 4 0 c 1,9,10
 31 138 31 138 57 269 c 0,11,12
 67 324 67 324 78 383.5 c 128,-1,13
 89 443 89 443 99 501 c 128,-1,14
 109 559 109 559 118.5 612 c 128,-1,15
 128 665 128 665 134 708 c 1,16,17
 177 716 177 716 221 723 c 128,-1,18
 265 730 265 730 311 730 c 0,19,20
 365 730 365 730 402.5 713 c 128,-1,21
 440 696 440 696 463.5 666 c 128,-1,22
 487 636 487 636 498 596 c 128,-1,23
 509 556 509 556 509 511 c 0,24,0
 509 459 509 459 494 400.5 c 128,-1,1
250 476 m 128,-1,26
 238 422 238 422 226 367 c 128,-1,27
 214 312 214 312 202 252 c 128,-1,28
 190 192 190 192 179 121 c 1,29,30
 203 137 203 137 225.5 164.5 c 128,-1,31
 248 192 248 192 268 228 c 128,-1,32
 288 264 288 264 304.5 304 c 128,-1,33
 321 344 321 344 333 382 c 128,-1,34
 345 420 345 420 351.5 453 c 128,-1,35
 358 486 358 486 358 510 c 0,36,37
 358 547 358 547 337.5 568 c 128,-1,38
 317 589 317 589 273 589 c 1,39,25
 262 530 262 530 250 476 c 128,-1,26
EndSplineSet
Validated: 1
EndChar

StartChar: Eth
Encoding: 208 208 40
Width: 445
GlyphClass: 2
Flags: W
LayerCount: 2
Fore
SplineSet
489.5 381 m 128,-1,1
 478 324 478 324 456 270 c 128,-1,2
 434 216 434 216 402 167 c 128,-1,3
 370 118 370 118 329.5 81.5 c 128,-1,4
 289 45 289 45 240 23.5 c 128,-1,5
 191 2 191 2 136 2 c 0,6,7
 104 2 104 2 73.5 11.5 c 128,-1,8
 43 21 43 21 13 42 c 1,9,10
 21 81 21 81 30 128 c 0,11,12
 38 168 38 168 49 219.5 c 128,-1,13
 60 271 60 271 70 331 c 1,14,15
 63 330 63 330 56.5 330 c 128,-1,16
 50 330 50 330 45 330 c 2,17,-1
 34 330 l 1,18,-1
 67 436 l 2,19,20
 70 435 70 435 74 435 c 2,21,-1
 90 435 l 1,22,23
 104 509 104 509 116 579.5 c 128,-1,24
 128 650 128 650 136 708 c 1,25,26
 179 716 179 716 223 723 c 128,-1,27
 267 730 267 730 313 730 c 0,28,29
 364 730 364 730 400.5 711.5 c 128,-1,30
 437 693 437 693 459 660.5 c 128,-1,31
 481 628 481 628 491 584.5 c 128,-1,32
 501 541 501 541 501 491 c 0,33,0
 501 438 501 438 489.5 381 c 128,-1,1
193.5 231 m 128,-1,35
 184 180 184 180 171 121 c 1,36,37
 207 143 207 143 239 185.5 c 128,-1,38
 271 228 271 228 296 280 c 128,-1,39
 321 332 321 332 336 387.5 c 128,-1,40
 351 443 351 443 351 490 c 0,41,42
 351 515 351 515 346 536.5 c 128,-1,43
 341 558 341 558 330 574 c 128,-1,44
 319 590 319 590 303 599 c 128,-1,45
 287 608 287 608 266 608 c 1,46,47
 256 563 256 563 247.5 521 c 128,-1,48
 239 479 239 479 231 435 c 1,49,50
 242 435 242 435 252 435.5 c 128,-1,51
 262 436 262 436 270 436 c 256,52,53
 278 436 278 436 286 437 c 1,54,-1
 262 329 l 1,55,-1
 247 329 l 2,56,57
 240 329 240 329 231.5 329.5 c 128,-1,58
 223 330 223 330 213 330 c 1,59,34
 203 282 203 282 193.5 231 c 128,-1,35
EndSplineSet
Validated: 1
EndChar

StartChar: E
Encoding: 69 69 44
Width: 341
GlyphClass: 2
Flags: W
AnchorPoint: "Anchor-7" 0 0 basechar 0
AnchorPoint: "Anchor-6" 265 750 basechar 0
AnchorPoint: "Anchor-5" 307 10 basechar 0
AnchorPoint: "Anchor-4" 171 0 basechar 0
LayerCount: 2
Fore
SplineSet
8 -1 m 1,0,-1
 139 710 l 1,1,-1
 455 737 l 1,2,3
 448 715 448 715 443 692 c 0,4,5
 438 673 438 673 433.5 652.5 c 128,-1,6
 429 632 429 632 426 616 c 1,7,8
 416 615 416 615 397.5 614.5 c 128,-1,9
 379 614 379 614 358 613.5 c 128,-1,10
 337 613 337 613 315.5 613 c 128,-1,11
 294 613 294 613 278 613 c 1,12,-1
 243 434 l 1,13,14
 274 436 274 436 301 437 c 0,15,16
 323 438 323 438 346 438 c 128,-1,17
 369 438 369 438 380 439 c 1,18,19
 376 411 376 411 372.5 384 c 128,-1,20
 369 357 369 357 364 329 c 1,21,22
 354 328 354 328 331.5 327.5 c 128,-1,23
 309 327 309 327 286 326 c 0,24,25
 260 325 260 325 229 324 c 1,26,-1
 195 140 l 1,27,-1
 341 163 l 1,28,-1
 331 49 l 1,29,-1
 8 -1 l 1,0,-1
EndSplineSet
Validated: 1
EndChar

StartChar: uni1EBE
Encoding: 7870 7870 49
Width: 341
GlyphClass: 2
Flags: W
AnchorPoint: "Anchor-7" 0 0 basechar 0
AnchorPoint: "Anchor-6" 377 1145 basechar 0
AnchorPoint: "Anchor-5" 307 10 basechar 0
AnchorPoint: "Anchor-4" 0 0 basechar 0
LayerCount: 2
Fore
SplineSet
8 -1 m 1,0,-1
 139 710 l 1,1,-1
 455 737 l 1,2,3
 448 715 448 715 443 692 c 0,4,5
 438 673 438 673 433.5 652.5 c 128,-1,6
 429 632 429 632 426 616 c 1,7,8
 416 615 416 615 397.5 614.5 c 128,-1,9
 379 614 379 614 358 613.5 c 128,-1,10
 337 613 337 613 315.5 613 c 128,-1,11
 294 613 294 613 278 613 c 1,12,-1
 243 434 l 1,13,14
 274 436 274 436 301 437 c 0,15,16
 323 438 323 438 346 438 c 128,-1,17
 369 438 369 438 380 439 c 1,18,19
 376 411 376 411 372.5 384 c 128,-1,20
 369 357 369 357 364 329 c 1,21,22
 354 328 354 328 331.5 327.5 c 128,-1,23
 309 327 309 327 286 326 c 0,24,25
 260 325 260 325 229 324 c 1,26,-1
 195 140 l 1,27,-1
 341 163 l 1,28,-1
 331 49 l 1,29,-1
 8 -1 l 1,0,-1
284 861 m 128,-1,31
 269 845 269 845 254 828 c 128,-1,32
 239 811 239 811 224 795 c 128,-1,33
 209 779 209 779 199 768 c 1,34,35
 186 779 186 779 176 788.5 c 128,-1,36
 166 798 166 798 160 806 c 0,37,38
 151 815 151 815 145 823 c 1,39,40
 173 864 173 864 203 903 c 0,41,42
 228 936 228 936 257.5 972 c 128,-1,43
 287 1008 287 1008 313 1034 c 1,44,45
 352 1028 352 1028 367.5 1029 c 128,-1,46
 383 1030 383 1030 385 1028 c 0,47,48
 393 1001 393 1001 402.5 966 c 128,-1,49
 412 931 412 931 421 900 c 0,50,51
 432 863 432 863 443 826 c 1,52,53
 431 816 431 816 419 806 c 0,54,55
 409 797 409 797 396 787.5 c 128,-1,56
 383 778 383 778 371 769 c 1,57,-1
 310 887 l 1,58,30
 299 877 299 877 284 861 c 128,-1,31
528.5 957 m 128,-1,60
 485 941 485 941 447 927 c 1,61,62
 446 934 446 934 446 940 c 128,-1,63
 446 946 446 946 446 952 c 0,64,65
 446 962 446 962 446.5 972.5 c 128,-1,66
 447 983 447 983 447 995 c 1,67,68
 490 1039 490 1039 529 1074 c 128,-1,69
 568 1109 568 1109 601 1146 c 1,70,71
 605 1103 605 1103 605 1065.5 c 128,-1,72
 605 1028 605 1028 611 988 c 1,73,59
 572 973 572 973 528.5 957 c 128,-1,60
EndSplineSet
Validated: 33
EndChar

StartChar: uni1EC0
Encoding: 7872 7872 51
Width: 341
GlyphClass: 2
Flags: W
AnchorPoint: "Anchor-7" 0 0 basechar 0
AnchorPoint: "Anchor-6" 245 1155 basechar 0
AnchorPoint: "Anchor-5" 307 10 basechar 0
AnchorPoint: "Anchor-4" 0 0 basechar 0
LayerCount: 2
Fore
SplineSet
8 -1 m 1,0,-1
 139 710 l 1,1,-1
 455 737 l 1,2,3
 448 715 448 715 443 692 c 0,4,5
 438 673 438 673 433.5 652.5 c 128,-1,6
 429 632 429 632 426 616 c 1,7,8
 416 615 416 615 397.5 614.5 c 128,-1,9
 379 614 379 614 358 613.5 c 128,-1,10
 337 613 337 613 315.5 613 c 128,-1,11
 294 613 294 613 278 613 c 1,12,-1
 243 434 l 1,13,14
 274 436 274 436 301 437 c 0,15,16
 323 438 323 438 346 438 c 128,-1,17
 369 438 369 438 380 439 c 1,18,19
 376 411 376 411 372.5 384 c 128,-1,20
 369 357 369 357 364 329 c 1,21,22
 354 328 354 328 331.5 327.5 c 128,-1,23
 309 327 309 327 286 326 c 0,24,25
 260 325 260 325 229 324 c 1,26,-1
 195 140 l 1,27,-1
 341 163 l 1,28,-1
 331 49 l 1,29,-1
 8 -1 l 1,0,-1
278 840 m 128,-1,31
 263 824 263 824 248 807 c 128,-1,32
 233 790 233 790 218 774 c 128,-1,33
 203 758 203 758 193 747 c 1,34,35
 180 758 180 758 170 767.5 c 128,-1,36
 160 777 160 777 154 785 c 0,37,38
 145 794 145 794 139 802 c 1,39,40
 167 843 167 843 197 882 c 0,41,42
 222 915 222 915 251.5 951 c 128,-1,43
 281 987 281 987 307 1013 c 1,44,45
 346 1007 346 1007 361.5 1008 c 128,-1,46
 377 1009 377 1009 379 1007 c 0,47,48
 387 980 387 980 396.5 945 c 128,-1,49
 406 910 406 910 415 879 c 0,50,51
 426 842 426 842 437 805 c 1,52,53
 425 795 425 795 413 785 c 0,54,55
 403 776 403 776 390 766.5 c 128,-1,56
 377 757 377 757 365 748 c 1,57,-1
 304 866 l 1,58,30
 293 856 293 856 278 840 c 128,-1,31
220 952 m 1,59,60
 187 960 187 960 156 968 c 0,61,62
 129 974 129 974 101 981.5 c 128,-1,63
 73 989 73 989 54 995 c 1,64,65
 58 1014 58 1014 63 1041 c 128,-1,66
 68 1068 68 1068 73 1094 c 0,67,68
 79 1124 79 1124 85 1155 c 1,69,70
 110 1128 110 1128 136 1102 c 0,71,72
 157 1079 157 1079 181.5 1052.5 c 128,-1,73
 206 1026 206 1026 225 1005 c 1,74,-1
 220 952 l 1,59,60
EndSplineSet
Validated: 33
EndChar

StartChar: Eogonek
Encoding: 280 280 62
Width: 341
GlyphClass: 2
Flags: W
AnchorPoint: "Anchor-7" 0 0 basechar 0
AnchorPoint: "Anchor-6" 265 750 basechar 0
AnchorPoint: "Anchor-5" 307 10 basechar 0
AnchorPoint: "Anchor-4" 171 0 basechar 0
LayerCount: 2
Fore
SplineSet
8 -1 m 1,0,-1
 139 710 l 1,1,-1
 455 737 l 1,2,3
 448 715 448 715 443 692 c 0,4,5
 438 673 438 673 433.5 652.5 c 128,-1,6
 429 632 429 632 426 616 c 1,7,8
 416 615 416 615 397.5 614.5 c 128,-1,9
 379 614 379 614 358 613.5 c 128,-1,10
 337 613 337 613 315.5 613 c 128,-1,11
 294 613 294 613 278 613 c 1,12,-1
 243 434 l 1,13,14
 274 436 274 436 301 437 c 0,15,16
 323 438 323 438 346 438 c 128,-1,17
 369 438 369 438 380 439 c 1,18,19
 376 411 376 411 372.5 384 c 128,-1,20
 369 357 369 357 364 329 c 1,21,22
 354 328 354 328 331.5 327.5 c 128,-1,23
 309 327 309 327 286 326 c 0,24,25
 260 325 260 325 229 324 c 1,26,-1
 195 140 l 1,27,-1
 341 163 l 1,28,-1
 331 49 l 1,29,-1
 8 -1 l 1,0,-1
315.5 -125 m 128,-1,31
 293 -134 293 -134 270 -134 c 0,32,33
 240 -134 240 -134 215.5 -126.5 c 128,-1,34
 191 -119 191 -119 173 -106 c 128,-1,35
 155 -93 155 -93 145 -75.5 c 128,-1,36
 135 -58 135 -58 135 -37 c 0,37,38
 135 2 135 2 175 41 c 0,39,40
 176 41 176 41 185 42.5 c 128,-1,41
 194 44 194 44 206 46 c 128,-1,42
 218 48 218 48 235 50 c 1,43,44
 231 32 231 32 231 20 c 0,45,46
 231 -5 231 -5 245.5 -21 c 128,-1,47
 260 -37 260 -37 281 -37 c 0,48,49
 309 -37 309 -37 334 -9 c 1,50,-1
 354 -97 l 1,51,30
 338 -116 338 -116 315.5 -125 c 128,-1,31
EndSplineSet
Validated: 5
EndChar

StartChar: F
Encoding: 70 70 64
Width: 341
GlyphClass: 2
Flags: W
AnchorPoint: "Anchor-7" 0 0 basechar 0
AnchorPoint: "Anchor-6" 325 721 basechar 0
AnchorPoint: "Anchor-5" 0 0 basechar 0
AnchorPoint: "Anchor-4" 171 0 basechar 0
LayerCount: 2
Fore
SplineSet
62 12 m 128,-1,1
 29 5 29 5 4 -1 c 1,2,3
 16 42 16 42 27.5 95.5 c 128,-1,4
 39 149 39 149 50.5 208 c 128,-1,5
 62 267 62 267 72.5 327.5 c 128,-1,6
 83 388 83 388 93 444 c 0,7,8
 114 577 114 577 135 719 c 1,9,-1
 470 736 l 1,10,-1
 441 613 l 1,11,-1
 284 613 l 1,12,-1
 253 435 l 1,13,14
 284 436 284 436 312 436 c 0,15,16
 335 436 335 436 359 436 c 128,-1,17
 383 436 383 436 396 437 c 1,18,19
 393 409 393 409 388.5 382 c 128,-1,20
 384 355 384 355 380 328 c 1,21,22
 367 328 367 328 343 328.5 c 128,-1,23
 319 329 319 329 293.5 330 c 128,-1,24
 268 331 268 331 236 332 c 1,25,-1
 190 37 l 1,26,27
 156 31 156 31 123 24 c 0,28,0
 95 19 95 19 62 12 c 128,-1,1
EndSplineSet
Validated: 1
EndChar

StartChar: G
Encoding: 71 71 65
Width: 499
GlyphClass: 2
Flags: W
AnchorPoint: "Anchor-7" 0 0 basechar 0
AnchorPoint: "Anchor-6" 379 721 basechar 0
AnchorPoint: "Anchor-5" 0 0 basechar 0
AnchorPoint: "Anchor-4" 250 0 basechar 0
LayerCount: 2
Fore
SplineSet
504 203.5 m 128,-1,1
 471 128 471 128 424.5 77 c 128,-1,2
 378 26 378 26 324.5 1 c 128,-1,3
 271 -24 271 -24 223 -24 c 0,4,5
 186 -24 186 -24 152.5 -8 c 128,-1,6
 119 8 119 8 94.5 40.5 c 128,-1,7
 70 73 70 73 56 122 c 128,-1,8
 42 171 42 171 42 237 c 0,9,10
 42 366 42 366 79 462 c 128,-1,11
 116 558 116 558 172.5 622 c 128,-1,12
 229 686 229 686 293.5 717 c 128,-1,13
 358 748 358 748 414 748 c 0,14,15
 454 748 454 748 483.5 734 c 128,-1,16
 513 720 513 720 532 696.5 c 128,-1,17
 551 673 551 673 559.5 641.5 c 128,-1,18
 568 610 568 610 568 575 c 1,19,-1
 431 549 l 1,20,21
 422 589 422 589 407 606 c 128,-1,22
 392 623 392 623 373 623 c 0,23,24
 348 623 348 623 318 587.5 c 128,-1,25
 288 552 288 552 262 496 c 128,-1,26
 236 440 236 440 218 373 c 128,-1,27
 200 306 200 306 198 241 c 0,28,29
 198 179 198 179 216.5 152.5 c 128,-1,30
 235 126 235 126 264 126 c 0,31,32
 284 126 284 126 305.5 136 c 128,-1,33
 327 146 327 146 344 164.5 c 128,-1,34
 361 183 361 183 372.5 207.5 c 128,-1,35
 384 232 384 232 385 261 c 1,36,-1
 278 245 l 1,37,-1
 297 344 l 1,38,39
 344 350 344 350 389 356 c 0,40,41
 427 361 427 361 469.5 368 c 128,-1,42
 512 375 512 375 544 381 c 1,43,0
 537 279 537 279 504 203.5 c 128,-1,1
EndSplineSet
Validated: 1
EndChar

StartChar: H
Encoding: 72 72 71
Width: 442
GlyphClass: 2
Flags: W
AnchorPoint: "Anchor-7" 0 0 basechar 0
AnchorPoint: "Anchor-6" 349 721 basechar 0
AnchorPoint: "Anchor-5" 0 0 basechar 0
AnchorPoint: "Anchor-4" 222 0 basechar 0
LayerCount: 2
Fore
SplineSet
9 -2 m 1,0,1
 35 136 35 136 60 269 c 0,2,3
 69 325 69 325 80 385.5 c 128,-1,4
 91 446 91 446 101 505 c 128,-1,5
 111 564 111 564 120 619.5 c 128,-1,6
 129 675 129 675 136 721 c 1,7,-1
 298 732 l 1,8,9
 281 662 281 662 264.5 586 c 128,-1,10
 248 510 248 510 234 438 c 1,11,-1
 333 449 l 1,12,13
 347 520 347 520 358 586.5 c 128,-1,14
 369 653 369 653 387 724 c 1,15,16
 410 728 410 728 438 730.5 c 128,-1,17
 466 733 466 733 490 735 c 128,-1,18
 514 737 514 737 530.5 738.5 c 128,-1,19
 547 740 547 740 547 740 c 1,20,21
 533 695 533 695 520.5 641.5 c 128,-1,22
 508 588 508 588 496 530.5 c 128,-1,23
 484 473 484 473 473 414 c 128,-1,24
 462 355 462 355 453 302 c 0,25,26
 431 175 431 175 412 42 c 1,27,-1
 256 24 l 1,28,29
 269 84 269 84 279 141 c 0,30,31
 289 189 289 189 299.5 241 c 128,-1,32
 310 293 310 293 316 330 c 1,33,-1
 219 321 l 1,34,35
 212 283 212 283 202.5 233 c 128,-1,36
 193 183 193 183 185 138 c 0,37,38
 174 84 174 84 163 30 c 1,39,-1
 9 -2 l 1,0,1
EndSplineSet
Validated: 1
EndChar

StartChar: Hbar
Encoding: 294 294 72
Width: 577
GlyphClass: 2
Flags: W
AnchorPoint: "Anchor-7" 0 0 basechar 0
AnchorPoint: "Anchor-6" 418 721 basechar 0
AnchorPoint: "Anchor-5" 0 0 basechar 0
AnchorPoint: "Anchor-4" 291 0 basechar 0
LayerCount: 2
Fore
SplineSet
640 547 m 1,0,-1
 97 489 l 1,1,-1
 117 598 l 1,2,-1
 655 657 l 1,3,-1
 640 547 l 1,0,-1
78 -2 m 1,4,5
 104 136 104 136 129 269 c 0,6,7
 139 325 139 325 149.5 385.5 c 128,-1,8
 160 446 160 446 170.5 505 c 128,-1,9
 181 564 181 564 189.5 619.5 c 128,-1,10
 198 675 198 675 205 721 c 1,11,-1
 367 732 l 1,12,13
 351 662 351 662 334 586 c 128,-1,14
 317 510 317 510 304 438 c 1,15,-1
 402 449 l 1,16,17
 416 520 416 520 427 586.5 c 128,-1,18
 438 653 438 653 456 724 c 1,19,20
 479 728 479 728 507 730.5 c 128,-1,21
 535 733 535 733 559 735 c 128,-1,22
 583 737 583 737 599.5 738.5 c 128,-1,23
 616 740 616 740 616 740 c 1,24,25
 603 695 603 695 590 641.5 c 128,-1,26
 577 588 577 588 565.5 530.5 c 128,-1,27
 554 473 554 473 542.5 414 c 128,-1,28
 531 355 531 355 522 302 c 0,29,30
 500 175 500 175 481 42 c 1,31,-1
 325 24 l 1,32,33
 338 84 338 84 349 141 c 0,34,35
 358 189 358 189 368.5 241 c 128,-1,36
 379 293 379 293 386 330 c 1,37,-1
 288 321 l 1,38,39
 281 283 281 283 272 233 c 128,-1,40
 263 183 263 183 254 138 c 0,41,42
 243 84 243 84 232 30 c 1,43,-1
 78 -2 l 1,4,5
EndSplineSet
Validated: 5
EndChar

StartChar: I
Encoding: 73 73 74
Width: 200
GlyphClass: 2
Flags: W
AnchorPoint: "Anchor-7" 0 0 basechar 0
AnchorPoint: "Anchor-6" 271 721 basechar 0
AnchorPoint: "Anchor-5" 186 10 basechar 0
AnchorPoint: "Anchor-4" 101 0 basechar 0
LayerCount: 2
Fore
SplineSet
123 17.5 m 128,-1,1
 97 15 97 15 69 11.5 c 128,-1,2
 41 8 41 8 18.5 5 c 128,-1,3
 -4 2 -4 2 -6 1 c 1,4,5
 6 44 6 44 18 96.5 c 128,-1,6
 30 149 30 149 42.5 206.5 c 128,-1,7
 55 264 55 264 66.5 323 c 128,-1,8
 78 382 78 382 89 437 c 0,9,10
 114 565 114 565 138 700 c 1,11,-1
 294 725 l 1,12,13
 268 591 268 591 242 462 c 0,14,15
 231 407 231 407 219.5 348 c 128,-1,16
 208 289 208 289 197.5 231 c 128,-1,17
 187 173 187 173 176.5 118.5 c 128,-1,18
 166 64 166 64 158 20 c 1,19,0
 149 20 149 20 123 17.5 c 128,-1,1
EndSplineSet
Validated: 1
EndChar

StartChar: Iogonek
Encoding: 302 302 87
Width: 200
GlyphClass: 2
Flags: W
AnchorPoint: "Anchor-7" 0 0 basechar 0
AnchorPoint: "Anchor-6" 271 721 basechar 0
AnchorPoint: "Anchor-5" 186 10 basechar 0
AnchorPoint: "Anchor-4" 101 0 basechar 0
LayerCount: 2
Fore
SplineSet
123 17.5 m 128,-1,1
 97 15 97 15 69 11.5 c 128,-1,2
 41 8 41 8 18.5 5 c 128,-1,3
 -4 2 -4 2 -6 1 c 1,4,5
 6 44 6 44 18 96.5 c 128,-1,6
 30 149 30 149 42.5 206.5 c 128,-1,7
 55 264 55 264 66.5 323 c 128,-1,8
 78 382 78 382 89 437 c 0,9,10
 114 565 114 565 138 700 c 1,11,-1
 294 725 l 1,12,13
 268 591 268 591 242 462 c 0,14,15
 231 407 231 407 219.5 348 c 128,-1,16
 208 289 208 289 197.5 231 c 128,-1,17
 187 173 187 173 176.5 118.5 c 128,-1,18
 166 64 166 64 158 20 c 1,19,0
 149 20 149 20 123 17.5 c 128,-1,1
194.5 -125 m 128,-1,21
 172 -134 172 -134 149 -134 c 0,22,23
 119 -134 119 -134 94.5 -126.5 c 128,-1,24
 70 -119 70 -119 52 -106 c 128,-1,25
 34 -93 34 -93 24 -75.5 c 128,-1,26
 14 -58 14 -58 14 -37 c 0,27,28
 14 2 14 2 54 41 c 0,29,30
 55 41 55 41 64 42.5 c 128,-1,31
 73 44 73 44 85 46 c 128,-1,32
 97 48 97 48 114 50 c 1,33,34
 110 32 110 32 110 20 c 0,35,36
 110 -5 110 -5 124.5 -21 c 128,-1,37
 139 -37 139 -37 160 -37 c 0,38,39
 188 -37 188 -37 213 -9 c 1,40,-1
 233 -97 l 1,41,20
 217 -116 217 -116 194.5 -125 c 128,-1,21
EndSplineSet
Validated: 5
EndChar

StartChar: J
Encoding: 74 74 89
Width: 279
GlyphClass: 2
Flags: W
AnchorPoint: "Anchor-7" 0 0 basechar 0
AnchorPoint: "Anchor-6" 321 721 basechar 0
AnchorPoint: "Anchor-5" 0 0 basechar 0
AnchorPoint: "Anchor-4" 140 0 basechar 0
LayerCount: 2
Fore
SplineSet
264 174.5 m 128,-1,1
 251 127 251 127 229.5 88.5 c 128,-1,2
 208 50 208 50 177.5 24.5 c 128,-1,3
 147 -1 147 -1 105 -1 c 0,4,5
 77 -1 77 -1 44.5 11 c 128,-1,6
 12 23 12 23 -27 52 c 1,7,-1
 42 206 l 1,8,9
 47 196 47 196 61.5 188.5 c 128,-1,10
 76 181 76 181 93 181 c 0,11,12
 105 181 105 181 114.5 201 c 128,-1,13
 124 221 124 221 131 247.5 c 128,-1,14
 138 274 138 274 142 302 c 128,-1,15
 146 330 146 330 148 347 c 0,16,17
 167 444 167 444 184 540.5 c 128,-1,18
 201 637 201 637 224 733 c 1,19,20
 269 737 269 737 312.5 745.5 c 128,-1,21
 356 754 356 754 400 766 c 1,22,23
 385 715 385 715 369 650 c 128,-1,24
 353 585 353 585 338 517 c 128,-1,25
 323 449 323 449 309.5 383.5 c 128,-1,26
 296 318 296 318 286 266 c 0,27,0
 277 222 277 222 264 174.5 c 128,-1,1
EndSplineSet
Validated: 1
EndChar

StartChar: K
Encoding: 75 75 91
Width: 462
GlyphClass: 2
Flags: W
AnchorPoint: "Anchor-7" 0 0 basechar 0
AnchorPoint: "Anchor-6" 360 721 basechar 0
AnchorPoint: "Anchor-5" 0 0 basechar 0
AnchorPoint: "Anchor-4" 231 0 basechar 0
LayerCount: 2
Fore
SplineSet
7 -1 m 1,0,1
 37 139 37 139 63 271 c 0,2,3
 73 328 73 328 84 389 c 128,-1,4
 95 450 95 450 104.5 510 c 128,-1,5
 114 570 114 570 121.5 626.5 c 128,-1,6
 129 683 129 683 133 729 c 1,7,8
 156 727 156 727 185 725.5 c 128,-1,9
 214 724 214 724 239 722 c 0,10,11
 269 720 269 720 299 720 c 1,12,13
 298 716 298 716 296 705 c 128,-1,14
 294 694 294 694 291 678.5 c 128,-1,15
 288 663 288 663 284.5 644 c 128,-1,16
 281 625 281 625 277 606 c 0,17,18
 269 562 269 562 259 507 c 1,19,-1
 265 508 l 1,20,21
 275 524 275 524 293.5 552.5 c 128,-1,22
 312 581 312 581 332 613 c 128,-1,23
 352 645 352 645 371 674.5 c 128,-1,24
 390 704 390 704 403 725 c 1,25,26
 453 729 453 729 503 734 c 128,-1,27
 553 739 553 739 603 747 c 1,28,29
 556 684 556 684 512 623 c 0,30,31
 493 597 493 597 473.5 569 c 128,-1,32
 454 541 454 541 435 514 c 128,-1,33
 416 487 416 487 399.5 462 c 128,-1,34
 383 437 383 437 370 416 c 1,35,36
 392 315 392 315 422 221 c 128,-1,37
 452 127 452 127 483 29 c 1,38,39
 460 30 460 30 436 30.5 c 128,-1,40
 412 31 412 31 389 31 c 0,41,42
 360 31 360 31 333 30.5 c 128,-1,43
 306 30 306 30 277 29 c 1,44,45
 268 94 268 94 257.5 165.5 c 128,-1,46
 247 237 247 237 238 302 c 1,47,-1
 220 281 l 1,48,49
 213 251 213 251 204.5 207 c 128,-1,50
 196 163 196 163 188 122 c 0,51,52
 179 74 179 74 169 23 c 1,53,-1
 7 -1 l 1,0,1
EndSplineSet
Validated: 1
EndChar

StartChar: L
Encoding: 76 76 93
Width: 302
GlyphClass: 2
Flags: W
AnchorPoint: "Anchor-7" 282 721 basechar 0
AnchorPoint: "Anchor-6" 244 721 basechar 0
AnchorPoint: "Anchor-5" 0 0 basechar 0
AnchorPoint: "Anchor-4" 151 0 basechar 0
LayerCount: 2
Fore
SplineSet
210.5 30 m 128,-1,1
 176 28 176 28 141 24 c 128,-1,2
 106 20 106 20 72.5 13.5 c 128,-1,3
 39 7 39 7 12 -2 c 1,4,5
 18 43 18 43 26 98 c 128,-1,6
 34 153 34 153 44.5 212 c 128,-1,7
 55 271 55 271 65.5 331 c 128,-1,8
 76 391 76 391 87 446 c 0,9,10
 112 577 112 577 140 713 c 1,11,-1
 315 736 l 1,12,13
 288 620 288 620 263 510 c 0,14,15
 252 463 252 463 241 412.5 c 128,-1,16
 230 362 230 362 220 314 c 128,-1,17
 210 266 210 266 202 221 c 128,-1,18
 194 176 194 176 189 141 c 1,19,20
 214 143 214 143 242.5 143.5 c 128,-1,21
 271 144 271 144 293 144 c 1,22,23
 294 125 294 125 296 106.5 c 128,-1,24
 298 88 298 88 300.5 73 c 128,-1,25
 303 58 303 58 304.5 46.5 c 128,-1,26
 306 35 306 35 307 31 c 1,27,28
 299 31 299 31 291.5 31.5 c 128,-1,29
 284 32 284 32 276 32 c 0,30,0
 245 32 245 32 210.5 30 c 128,-1,1
EndSplineSet
Validated: 1
EndChar

StartChar: uni01C7
Encoding: 455 455 94
Width: 581
GlyphClass: 2
Flags: W
AnchorPoint: "Anchor-7" 282 721 basechar 0
AnchorPoint: "Anchor-6" 623 721 basechar 0
AnchorPoint: "Anchor-5" 0 0 basechar 0
AnchorPoint: "Anchor-4" 442 0 basechar 0
LayerCount: 2
Fore
SplineSet
210.5 30 m 128,-1,1
 176 28 176 28 141 24 c 128,-1,2
 106 20 106 20 72.5 13.5 c 128,-1,3
 39 7 39 7 12 -2 c 1,4,5
 18 43 18 43 26 98 c 128,-1,6
 34 153 34 153 44.5 212 c 128,-1,7
 55 271 55 271 65.5 331 c 128,-1,8
 76 391 76 391 87 446 c 0,9,10
 112 577 112 577 140 713 c 1,11,-1
 315 736 l 1,12,13
 288 620 288 620 263 510 c 0,14,15
 252 463 252 463 241 412.5 c 128,-1,16
 230 362 230 362 220 314 c 128,-1,17
 210 266 210 266 202 221 c 128,-1,18
 194 176 194 176 189 141 c 1,19,20
 214 143 214 143 242.5 143.5 c 128,-1,21
 271 144 271 144 293 144 c 1,22,23
 294 125 294 125 296 106.5 c 128,-1,24
 298 88 298 88 300.5 73 c 128,-1,25
 303 58 303 58 304.5 46.5 c 128,-1,26
 306 35 306 35 307 31 c 1,27,28
 299 31 299 31 291.5 31.5 c 128,-1,29
 284 32 284 32 276 32 c 0,30,0
 245 32 245 32 210.5 30 c 128,-1,1
566 174.5 m 128,-1,32
 553 127 553 127 531.5 88.5 c 128,-1,33
 510 50 510 50 479.5 24.5 c 128,-1,34
 449 -1 449 -1 407 -1 c 0,35,36
 379 -1 379 -1 346.5 11 c 128,-1,37
 314 23 314 23 275 52 c 1,38,-1
 344 206 l 1,39,40
 349 196 349 196 363.5 188.5 c 128,-1,41
 378 181 378 181 395 181 c 0,42,43
 407 181 407 181 416.5 201 c 128,-1,44
 426 221 426 221 433 247.5 c 128,-1,45
 440 274 440 274 444 302 c 128,-1,46
 448 330 448 330 450 347 c 0,47,48
 469 444 469 444 486 540.5 c 128,-1,49
 503 637 503 637 526 733 c 1,50,51
 571 737 571 737 614.5 745.5 c 128,-1,52
 658 754 658 754 702 766 c 1,53,54
 687 715 687 715 671 650 c 128,-1,55
 655 585 655 585 640 517 c 128,-1,56
 625 449 625 449 611.5 383.5 c 128,-1,57
 598 318 598 318 588 266 c 0,58,31
 579 222 579 222 566 174.5 c 128,-1,32
EndSplineSet
Validated: 5
EndChar

StartChar: uni01C8
Encoding: 456 456 99
Width: 581
GlyphClass: 2
Flags: W
AnchorPoint: "Anchor-7" 282 721 basechar 0
AnchorPoint: "Anchor-6" 244 721 basechar 0
AnchorPoint: "Anchor-5" 0 0 basechar 0
AnchorPoint: "Anchor-4" 151 0 basechar 0
LayerCount: 2
Fore
SplineSet
210.5 30 m 128,-1,1
 176 28 176 28 141 24 c 128,-1,2
 106 20 106 20 72.5 13.5 c 128,-1,3
 39 7 39 7 12 -2 c 1,4,5
 18 43 18 43 26 98 c 128,-1,6
 34 153 34 153 44.5 212 c 128,-1,7
 55 271 55 271 65.5 331 c 128,-1,8
 76 391 76 391 87 446 c 0,9,10
 112 577 112 577 140 713 c 1,11,-1
 315 736 l 1,12,13
 288 620 288 620 263 510 c 0,14,15
 252 463 252 463 241 412.5 c 128,-1,16
 230 362 230 362 220 314 c 128,-1,17
 210 266 210 266 202 221 c 128,-1,18
 194 176 194 176 189 141 c 1,19,20
 214 143 214 143 242.5 143.5 c 128,-1,21
 271 144 271 144 293 144 c 1,22,23
 294 125 294 125 296 106.5 c 128,-1,24
 298 88 298 88 300.5 73 c 128,-1,25
 303 58 303 58 304.5 46.5 c 128,-1,26
 306 35 306 35 307 31 c 1,27,28
 299 31 299 31 291.5 31.5 c 128,-1,29
 284 32 284 32 276 32 c 0,30,0
 245 32 245 32 210.5 30 c 128,-1,1
566 174.5 m 128,-1,32
 553 127 553 127 531.5 88.5 c 128,-1,33
 510 50 510 50 479.5 24.5 c 128,-1,34
 449 -1 449 -1 407 -1 c 0,35,36
 379 -1 379 -1 346.5 11 c 128,-1,37
 314 23 314 23 275 52 c 1,38,-1
 344 206 l 1,39,40
 349 196 349 196 363.5 188.5 c 128,-1,41
 378 181 378 181 395 181 c 0,42,43
 407 181 407 181 416.5 201 c 128,-1,44
 426 221 426 221 433 247.5 c 128,-1,45
 440 274 440 274 444 302 c 128,-1,46
 448 330 448 330 450 347 c 0,47,48
 469 444 469 444 486 540.5 c 128,-1,49
 503 637 503 637 526 733 c 1,50,51
 571 737 571 737 614.5 745.5 c 128,-1,52
 658 754 658 754 702 766 c 1,53,54
 687 715 687 715 671 650 c 128,-1,55
 655 585 655 585 640 517 c 128,-1,56
 625 449 625 449 611.5 383.5 c 128,-1,57
 598 318 598 318 588 266 c 0,58,31
 579 222 579 222 566 174.5 c 128,-1,32
EndSplineSet
Validated: 5
EndChar

StartChar: Lslash
Encoding: 321 321 100
Width: 309
GlyphClass: 2
Flags: W
LayerCount: 2
Fore
SplineSet
216.5 30 m 128,-1,1
 182 28 182 28 147 24 c 128,-1,2
 112 20 112 20 78.5 13.5 c 128,-1,3
 45 7 45 7 18 -2 c 1,4,5
 26 67 26 67 40.5 155 c 128,-1,6
 55 243 55 243 71 333 c 1,7,8
 63 329 63 329 55 326.5 c 128,-1,9
 47 324 47 324 42 322 c 0,10,11
 35 319 35 319 30 317 c 1,12,-1
 41 441 l 1,13,14
 49 443 49 443 58 446 c 0,15,16
 65 448 65 448 74.5 451 c 128,-1,17
 84 454 84 454 95 458 c 1,18,19
 105 512 105 512 113.5 558 c 128,-1,20
 122 604 122 604 130 639 c 0,21,22
 138 679 138 679 146 713 c 1,23,-1
 321 736 l 1,24,25
 314 707 314 707 306 673 c 0,26,27
 298 644 298 644 289 604 c 128,-1,28
 280 564 280 564 270 519 c 1,29,30
 286 524 286 524 303 530.5 c 128,-1,31
 320 537 320 537 334 542 c 0,32,33
 351 548 351 548 365 555 c 1,34,-1
 368 435 l 1,35,-1
 242 393 l 1,36,37
 228 322 228 322 215 256 c 128,-1,38
 202 190 202 190 195 141 c 1,39,40
 220 143 220 143 248 143.5 c 128,-1,41
 276 144 276 144 299 144 c 1,42,43
 300 125 300 125 302 106.5 c 128,-1,44
 304 88 304 88 306.5 73 c 128,-1,45
 309 58 309 58 310.5 46.5 c 128,-1,46
 312 35 312 35 313 31 c 1,47,48
 305 31 305 31 297.5 31.5 c 128,-1,49
 290 32 290 32 282 32 c 0,50,0
 251 32 251 32 216.5 30 c 128,-1,1
EndSplineSet
Validated: 1
EndChar

StartChar: M
Encoding: 77 77 101
Width: 619
GlyphClass: 2
Flags: W
AnchorPoint: "Anchor-7" 0 0 basechar 0
AnchorPoint: "Anchor-6" 470 721 basechar 0
AnchorPoint: "Anchor-5" 0 0 basechar 0
AnchorPoint: "Anchor-4" 310 0 basechar 0
LayerCount: 2
Fore
SplineSet
-30 6 m 1,0,1
 14 139 14 139 54 267 c 0,2,3
 71 321 71 321 89 380 c 128,-1,4
 107 439 107 439 125 497 c 128,-1,5
 143 555 143 555 158.5 609 c 128,-1,6
 174 663 174 663 186 709 c 1,7,8
 241 709 241 709 290 715 c 128,-1,9
 339 721 339 721 396 726 c 1,10,11
 393 704 393 704 389.5 676.5 c 128,-1,12
 386 649 386 649 381.5 619 c 128,-1,13
 377 589 377 589 372 557 c 128,-1,14
 367 525 367 525 360 475 c 128,-1,15
 353 425 353 425 341 350 c 1,16,-1
 354 350 l 1,17,18
 383 426 383 426 402 476.5 c 128,-1,19
 421 527 421 527 433 559 c 128,-1,20
 445 591 445 591 457.5 621.5 c 128,-1,21
 470 652 470 652 481.5 679.5 c 128,-1,22
 493 707 493 707 503 728 c 1,23,24
 528 730 528 730 550 733 c 128,-1,25
 572 736 572 736 594 739.5 c 128,-1,26
 616 743 616 743 638.5 746.5 c 128,-1,27
 661 750 661 750 688 755 c 1,28,29
 678 697 678 697 669 636 c 128,-1,30
 660 575 660 575 653 514.5 c 128,-1,31
 646 454 646 454 639.5 395 c 128,-1,32
 633 336 633 336 628 283 c 0,33,34
 616 159 616 159 607 41 c 1,35,-1
 433 10 l 1,36,37
 433 15 433 15 434.5 37 c 128,-1,38
 436 59 436 59 438.5 91 c 128,-1,39
 441 123 441 123 445.5 162 c 128,-1,40
 450 201 450 201 454.5 240 c 128,-1,41
 459 279 459 279 464 315.5 c 128,-1,42
 469 352 469 352 474 378 c 1,43,-1
 465 378 l 1,44,45
 451 336 451 336 434 289.5 c 128,-1,46
 417 243 417 243 399.5 195 c 128,-1,47
 382 147 382 147 365 101 c 128,-1,48
 348 55 348 55 335 13 c 1,49,50
 300 12 300 12 275 10.5 c 128,-1,51
 250 9 250 9 217 7 c 1,52,-1
 249 378 l 1,53,-1
 234 378 l 1,54,55
 232 365 232 365 224 334.5 c 128,-1,56
 216 304 216 304 205.5 264.5 c 128,-1,57
 195 225 195 225 183 182.5 c 128,-1,58
 171 140 171 140 160.5 103.5 c 128,-1,59
 150 67 150 67 143 43.5 c 128,-1,60
 136 20 136 20 135 17 c 2,61,-1
 -30 6 l 1,0,1
EndSplineSet
Validated: 1
EndChar

StartChar: N
Encoding: 78 78 102
Width: 453
GlyphClass: 2
Flags: W
AnchorPoint: "Anchor-7" 0 0 basechar 0
AnchorPoint: "Anchor-6" 375 721 basechar 0
AnchorPoint: "Anchor-5" 0 0 basechar 0
AnchorPoint: "Anchor-4" 227 0 basechar 0
LayerCount: 2
Fore
SplineSet
6 -5 m 1,0,1
 34 136 34 136 60 270 c 0,2,3
 70 326 70 326 81.5 387.5 c 128,-1,4
 93 449 93 449 103 508.5 c 128,-1,5
 113 568 113 568 121.5 623.5 c 128,-1,6
 130 679 130 679 135 725 c 1,7,8
 166 727 166 727 195 729 c 0,9,10
 221 731 221 731 248 732.5 c 128,-1,11
 275 734 275 734 296 736 c 1,12,13
 309 659 309 659 319 589 c 0,14,15
 324 559 324 559 329.5 526.5 c 128,-1,16
 335 494 335 494 340 464 c 128,-1,17
 345 434 345 434 350 406.5 c 128,-1,18
 355 379 355 379 360 358 c 1,19,20
 364 379 364 379 369 406.5 c 128,-1,21
 374 434 374 434 380 464.5 c 128,-1,22
 386 495 386 495 392.5 527 c 128,-1,23
 399 559 399 559 405 589 c 0,24,25
 420 659 420 659 436 735 c 1,26,-1
 558 750 l 1,27,28
 524 600 524 600 498 466 c 0,29,30
 486 408 486 408 474.5 349 c 128,-1,31
 463 290 463 290 453 235 c 128,-1,32
 443 180 443 180 436 133.5 c 128,-1,33
 429 87 429 87 425 55 c 0,34,35
 422 55 422 55 401.5 50.5 c 128,-1,36
 381 46 381 46 354.5 40 c 128,-1,37
 328 34 328 34 301.5 27.5 c 128,-1,38
 275 21 275 21 262 17 c 1,39,40
 255 98 255 98 247 171 c 0,41,42
 244 202 244 202 240 235 c 128,-1,43
 236 268 236 268 232.5 298 c 128,-1,44
 229 328 229 328 225.5 354.5 c 128,-1,45
 222 381 222 381 219 399 c 1,46,47
 216 381 216 381 211 355 c 128,-1,48
 206 329 206 329 201 299.5 c 128,-1,49
 196 270 196 270 191 238.5 c 128,-1,50
 186 207 186 207 180 177 c 0,51,52
 167 106 167 106 152 29 c 1,53,-1
 6 -5 l 1,0,1
EndSplineSet
Validated: 1
EndChar

StartChar: Eng
Encoding: 330 330 107
Width: 453
GlyphClass: 2
Flags: W
AnchorPoint: "Anchor-7" 0 0 basechar 0
AnchorPoint: "Anchor-6" 375 721 basechar 0
AnchorPoint: "Anchor-5" 0 0 basechar 0
AnchorPoint: "Anchor-4" 227 0 basechar 0
LayerCount: 2
Fore
SplineSet
368 -105 m 128,-1,1
 325 -183 325 -183 248 -183 c 0,2,3
 215 -183 215 -183 183 -169 c 128,-1,4
 151 -155 151 -155 115 -130 c 1,5,-1
 173 -2 l 1,6,7
 205 -38 205 -38 228 -38 c 0,8,9
 241 -38 241 -38 252 -25.5 c 128,-1,10
 263 -13 263 -13 262 2 c 2,11,-1
 240 234 l 1,12,-1
 232 298 l 2,13,14
 231 307 231 307 229.5 324.5 c 128,-1,15
 228 342 228 342 226 354 c 2,16,-1
 219 399 l 1,17,-1
 211 354 l 2,18,19
 202 307 202 307 201 299 c 0,20,21
 199 284 199 284 190 238 c 0,22,23
 188 216 188 216 180 177 c 2,24,-1
 152 29 l 1,25,-1
 6 -5 l 1,26,-1
 60 270 l 2,27,28
 65 303 65 303 72 336 c 2,29,-1
 81 388 l 2,30,31
 89 429 89 429 103 509 c 0,32,33
 109 547 109 547 111 561 c 0,34,35
 114 578 114 578 121 623 c 0,36,37
 131 686 131 686 135 725 c 1,38,-1
 195 729 l 1,39,-1
 248 732 l 2,40,41
 264 733 264 733 276 734 c 128,-1,42
 288 735 288 735 296 736 c 1,43,44
 311 649 311 649 319 589 c 2,45,-1
 329 526 l 2,46,47
 337 484 337 484 340 464 c 2,48,-1
 346 430 l 1,49,-1
 350 406 l 1,50,-1
 360 358 l 1,51,-1
 369 406 l 2,52,53
 373 429 373 429 376 444 c 2,54,-1
 380 464 l 2,55,56
 390 514 390 514 393 526 c 2,57,-1
 405 589 l 1,58,-1
 436 735 l 1,59,-1
 558 750 l 1,60,61
 535 649 535 649 498 466 c 2,62,-1
 475 349 l 1,63,-1
 453 234 l 2,64,65
 441 173 441 173 436 133 c 0,66,67
 431 104 431 104 431 105 c 2,68,-1
 425 67 l 2,69,0
 411 -27 411 -27 368 -105 c 128,-1,1
EndSplineSet
Validated: 1
EndChar

StartChar: uni019D
Encoding: 413 413 108
Width: 465
GlyphClass: 2
Flags: W
LayerCount: 2
Fore
SplineSet
152 29 m 2,0,1
 147 -9 147 -9 127.5 -58 c 128,-1,2
 108 -107 108 -107 71.5 -144 c 128,-1,3
 35 -181 35 -181 -18 -181 c 0,4,5
 -50 -181 -50 -181 -82 -167 c 128,-1,6
 -114 -153 -114 -153 -150 -128 c 1,7,-1
 -93 0 l 1,8,9
 -77 -18 -77 -18 -64 -27 c 128,-1,10
 -51 -36 -51 -36 -38 -36 c 0,11,12
 -23 -36 -23 -36 -9.5 -26 c 128,-1,13
 4 -16 4 -16 8 4 c 2,14,-1
 60 270 l 2,15,16
 65 303 65 303 72 336 c 2,17,-1
 81 388 l 2,18,19
 89 429 89 429 103 509 c 0,20,21
 109 547 109 547 111 561 c 0,22,23
 114 578 114 578 121 623 c 0,24,25
 131 686 131 686 135 725 c 1,26,-1
 195 729 l 1,27,-1
 248 732 l 2,28,29
 264 733 264 733 276 734 c 128,-1,30
 288 735 288 735 296 736 c 1,31,32
 311 649 311 649 319 589 c 2,33,-1
 329 526 l 2,34,35
 337 484 337 484 340 464 c 2,36,-1
 346 430 l 1,37,-1
 350 406 l 1,38,-1
 360 358 l 1,39,-1
 369 406 l 2,40,41
 373 429 373 429 376 444 c 2,42,-1
 380 464 l 2,43,44
 390 514 390 514 393 526 c 2,45,-1
 405 589 l 1,46,-1
 436 735 l 1,47,-1
 558 750 l 1,48,49
 535 649 535 649 498 466 c 2,50,-1
 475 349 l 1,51,-1
 453 234 l 2,52,53
 441 173 441 173 436 133 c 2,54,-1
 428 77 l 1,55,-1
 425 55 l 1,56,-1
 262 17 l 1,57,-1
 240 234 l 1,58,-1
 232 298 l 2,59,60
 231 307 231 307 229.5 324.5 c 128,-1,61
 228 342 228 342 226 354 c 2,62,-1
 219 399 l 1,63,-1
 211 354 l 2,64,65
 202 307 202 307 201 299 c 0,66,67
 199 284 199 284 190 238 c 0,68,69
 188 216 188 216 180 177 c 2,70,-1
 152 29 l 2,0,1
EndSplineSet
Validated: 1
EndChar

StartChar: O
Encoding: 79 79 111
Width: 493
GlyphClass: 2
Flags: W
AnchorPoint: "Anchor-7" 491 574 basechar 0
AnchorPoint: "Anchor-6" 414 750 basechar 0
AnchorPoint: "Anchor-5" 295 10 basechar 0
AnchorPoint: "Anchor-4" 162 0 basechar 0
LayerCount: 2
Fore
SplineSet
542.5 386.5 m 128,-1,1
 525 314 525 314 496 253.5 c 128,-1,2
 467 193 467 193 428.5 145.5 c 128,-1,3
 390 98 390 98 348 64.5 c 128,-1,4
 306 31 306 31 263 13.5 c 128,-1,5
 220 -4 220 -4 181 -4 c 0,6,7
 148 -4 148 -4 121 8.5 c 128,-1,8
 94 21 94 21 74 45.5 c 128,-1,9
 54 70 54 70 42.5 108.5 c 128,-1,10
 31 147 31 147 31 201 c 0,11,12
 31 257 31 257 45 319 c 128,-1,13
 59 381 59 381 83 442 c 128,-1,14
 107 503 107 503 142 558 c 128,-1,15
 177 613 177 613 219 655.5 c 128,-1,16
 261 698 261 698 309 723 c 128,-1,17
 357 748 357 748 409 748 c 0,18,19
 454 748 454 748 483.5 729.5 c 128,-1,20
 513 711 513 711 529.5 681.5 c 128,-1,21
 546 652 546 652 553 615 c 128,-1,22
 560 578 560 578 560 541 c 0,23,0
 560 459 560 459 542.5 386.5 c 128,-1,1
184 204 m 128,-1,25
 188 192 188 192 195 183 c 128,-1,26
 202 174 202 174 212.5 167.5 c 128,-1,27
 223 161 223 161 235 161 c 0,28,29
 280 161 280 161 315 192 c 128,-1,30
 350 223 350 223 373 268 c 128,-1,31
 396 313 396 313 408.5 364 c 128,-1,32
 421 415 421 415 421 457 c 0,33,34
 421 469 421 469 419.5 483 c 128,-1,35
 418 497 418 497 413.5 509 c 128,-1,36
 409 521 409 521 399.5 529.5 c 128,-1,37
 390 538 390 538 374 538 c 0,38,39
 342 538 342 538 315 522 c 128,-1,40
 288 506 288 506 266.5 479.5 c 128,-1,41
 245 453 245 453 229 419.5 c 128,-1,42
 213 386 213 386 201.5 351.5 c 128,-1,43
 190 317 190 317 185 284 c 128,-1,44
 180 251 180 251 180 227 c 0,45,24
 180 216 180 216 184 204 c 128,-1,25
EndSplineSet
Validated: 1
Substitution2: "Single Substitution lookup 19 subtable" ordmasculine
Substitution2: "'aalt' Access All Alternates in Latin lookup 0 subtable" ordmasculine
EndChar

StartChar: uni1ED0
Encoding: 7888 7888 115
Width: 493
GlyphClass: 2
Flags: W
AnchorPoint: "Anchor-7" 491 574 basechar 0
AnchorPoint: "Anchor-6" 526 1145 basechar 0
AnchorPoint: "Anchor-5" 295 10 basechar 0
AnchorPoint: "Anchor-4" 0 0 basechar 0
LayerCount: 2
Fore
SplineSet
542.5 386.5 m 128,-1,1
 525 314 525 314 496 253.5 c 128,-1,2
 467 193 467 193 428.5 145.5 c 128,-1,3
 390 98 390 98 348 64.5 c 128,-1,4
 306 31 306 31 263 13.5 c 128,-1,5
 220 -4 220 -4 181 -4 c 0,6,7
 148 -4 148 -4 121 8.5 c 128,-1,8
 94 21 94 21 74 45.5 c 128,-1,9
 54 70 54 70 42.5 108.5 c 128,-1,10
 31 147 31 147 31 201 c 0,11,12
 31 257 31 257 45 319 c 128,-1,13
 59 381 59 381 83 442 c 128,-1,14
 107 503 107 503 142 558 c 128,-1,15
 177 613 177 613 219 655.5 c 128,-1,16
 261 698 261 698 309 723 c 128,-1,17
 357 748 357 748 409 748 c 0,18,19
 454 748 454 748 483.5 729.5 c 128,-1,20
 513 711 513 711 529.5 681.5 c 128,-1,21
 546 652 546 652 553 615 c 128,-1,22
 560 578 560 578 560 541 c 0,23,0
 560 459 560 459 542.5 386.5 c 128,-1,1
184 204 m 128,-1,25
 188 192 188 192 195 183 c 128,-1,26
 202 174 202 174 212.5 167.5 c 128,-1,27
 223 161 223 161 235 161 c 0,28,29
 280 161 280 161 315 192 c 128,-1,30
 350 223 350 223 373 268 c 128,-1,31
 396 313 396 313 408.5 364 c 128,-1,32
 421 415 421 415 421 457 c 0,33,34
 421 469 421 469 419.5 483 c 128,-1,35
 418 497 418 497 413.5 509 c 128,-1,36
 409 521 409 521 399.5 529.5 c 128,-1,37
 390 538 390 538 374 538 c 0,38,39
 342 538 342 538 315 522 c 128,-1,40
 288 506 288 506 266.5 479.5 c 128,-1,41
 245 453 245 453 229 419.5 c 128,-1,42
 213 386 213 386 201.5 351.5 c 128,-1,43
 190 317 190 317 185 284 c 128,-1,44
 180 251 180 251 180 227 c 0,45,24
 180 216 180 216 184 204 c 128,-1,25
433 861 m 128,-1,47
 418 845 418 845 403 828 c 128,-1,48
 388 811 388 811 373 795 c 128,-1,49
 358 779 358 779 348 768 c 1,50,51
 335 779 335 779 325 788.5 c 128,-1,52
 315 798 315 798 309 806 c 0,53,54
 300 815 300 815 294 823 c 1,55,56
 322 864 322 864 352 903 c 0,57,58
 377 936 377 936 406.5 972 c 128,-1,59
 436 1008 436 1008 462 1034 c 1,60,61
 501 1028 501 1028 516.5 1029 c 128,-1,62
 532 1030 532 1030 534 1028 c 0,63,64
 542 1001 542 1001 551.5 966 c 128,-1,65
 561 931 561 931 570 900 c 0,66,67
 581 863 581 863 592 826 c 1,68,69
 580 816 580 816 568 806 c 0,70,71
 558 797 558 797 545 787.5 c 128,-1,72
 532 778 532 778 520 769 c 1,73,-1
 459 887 l 1,74,46
 448 877 448 877 433 861 c 128,-1,47
677.5 957 m 128,-1,76
 634 941 634 941 596 927 c 1,77,78
 595 934 595 934 595 940 c 128,-1,79
 595 946 595 946 595 952 c 0,80,81
 595 962 595 962 595.5 972.5 c 128,-1,82
 596 983 596 983 596 995 c 1,83,84
 639 1039 639 1039 678 1074 c 128,-1,85
 717 1109 717 1109 750 1146 c 1,86,87
 754 1103 754 1103 754 1065.5 c 128,-1,88
 754 1028 754 1028 760 988 c 1,89,75
 721 973 721 973 677.5 957 c 128,-1,76
EndSplineSet
Validated: 33
EndChar

StartChar: uni1ED2
Encoding: 7890 7890 117
Width: 493
GlyphClass: 2
Flags: W
AnchorPoint: "Anchor-7" 491 574 basechar 0
AnchorPoint: "Anchor-6" 394 1155 basechar 0
AnchorPoint: "Anchor-5" 295 10 basechar 0
AnchorPoint: "Anchor-4" 0 0 basechar 0
LayerCount: 2
Fore
SplineSet
542.5 386.5 m 128,-1,1
 525 314 525 314 496 253.5 c 128,-1,2
 467 193 467 193 428.5 145.5 c 128,-1,3
 390 98 390 98 348 64.5 c 128,-1,4
 306 31 306 31 263 13.5 c 128,-1,5
 220 -4 220 -4 181 -4 c 0,6,7
 148 -4 148 -4 121 8.5 c 128,-1,8
 94 21 94 21 74 45.5 c 128,-1,9
 54 70 54 70 42.5 108.5 c 128,-1,10
 31 147 31 147 31 201 c 0,11,12
 31 257 31 257 45 319 c 128,-1,13
 59 381 59 381 83 442 c 128,-1,14
 107 503 107 503 142 558 c 128,-1,15
 177 613 177 613 219 655.5 c 128,-1,16
 261 698 261 698 309 723 c 128,-1,17
 357 748 357 748 409 748 c 0,18,19
 454 748 454 748 483.5 729.5 c 128,-1,20
 513 711 513 711 529.5 681.5 c 128,-1,21
 546 652 546 652 553 615 c 128,-1,22
 560 578 560 578 560 541 c 0,23,0
 560 459 560 459 542.5 386.5 c 128,-1,1
184 204 m 128,-1,25
 188 192 188 192 195 183 c 128,-1,26
 202 174 202 174 212.5 167.5 c 128,-1,27
 223 161 223 161 235 161 c 0,28,29
 280 161 280 161 315 192 c 128,-1,30
 350 223 350 223 373 268 c 128,-1,31
 396 313 396 313 408.5 364 c 128,-1,32
 421 415 421 415 421 457 c 0,33,34
 421 469 421 469 419.5 483 c 128,-1,35
 418 497 418 497 413.5 509 c 128,-1,36
 409 521 409 521 399.5 529.5 c 128,-1,37
 390 538 390 538 374 538 c 0,38,39
 342 538 342 538 315 522 c 128,-1,40
 288 506 288 506 266.5 479.5 c 128,-1,41
 245 453 245 453 229 419.5 c 128,-1,42
 213 386 213 386 201.5 351.5 c 128,-1,43
 190 317 190 317 185 284 c 128,-1,44
 180 251 180 251 180 227 c 0,45,24
 180 216 180 216 184 204 c 128,-1,25
427 840 m 128,-1,47
 412 824 412 824 397 807 c 128,-1,48
 382 790 382 790 367 774 c 128,-1,49
 352 758 352 758 342 747 c 1,50,51
 329 758 329 758 319 767.5 c 128,-1,52
 309 777 309 777 303 785 c 0,53,54
 294 794 294 794 288 802 c 1,55,56
 316 843 316 843 346 882 c 0,57,58
 371 915 371 915 400.5 951 c 128,-1,59
 430 987 430 987 456 1013 c 1,60,61
 495 1007 495 1007 510.5 1008 c 128,-1,62
 526 1009 526 1009 528 1007 c 0,63,64
 536 980 536 980 545.5 945 c 128,-1,65
 555 910 555 910 564 879 c 0,66,67
 575 842 575 842 586 805 c 1,68,69
 574 795 574 795 562 785 c 0,70,71
 552 776 552 776 539 766.5 c 128,-1,72
 526 757 526 757 514 748 c 1,73,-1
 453 866 l 1,74,46
 442 856 442 856 427 840 c 128,-1,47
369 952 m 1,75,76
 336 960 336 960 305 968 c 0,77,78
 278 974 278 974 250 981.5 c 128,-1,79
 222 989 222 989 203 995 c 1,80,81
 207 1014 207 1014 212 1041 c 128,-1,82
 217 1068 217 1068 222 1094 c 0,83,84
 228 1124 228 1124 234 1155 c 1,85,86
 259 1128 259 1128 285 1102 c 0,87,88
 306 1079 306 1079 330.5 1052.5 c 128,-1,89
 355 1026 355 1026 374 1005 c 1,90,-1
 369 952 l 1,75,76
EndSplineSet
Validated: 33
EndChar

StartChar: Ohorn
Encoding: 416 416 127
Width: 493
GlyphClass: 2
Flags: W
AnchorPoint: "Anchor-7" 720 777 basechar 0
AnchorPoint: "Anchor-6" 414 750 basechar 0
AnchorPoint: "Anchor-5" 295 10 basechar 0
AnchorPoint: "Anchor-4" 162 0 basechar 0
LayerCount: 2
Fore
SplineSet
542.5 386.5 m 128,-1,1
 525 314 525 314 496 253.5 c 128,-1,2
 467 193 467 193 428.5 145.5 c 128,-1,3
 390 98 390 98 348 64.5 c 128,-1,4
 306 31 306 31 263 13.5 c 128,-1,5
 220 -4 220 -4 181 -4 c 0,6,7
 148 -4 148 -4 121 8.5 c 128,-1,8
 94 21 94 21 74 45.5 c 128,-1,9
 54 70 54 70 42.5 108.5 c 128,-1,10
 31 147 31 147 31 201 c 0,11,12
 31 257 31 257 45 319 c 128,-1,13
 59 381 59 381 83 442 c 128,-1,14
 107 503 107 503 142 558 c 128,-1,15
 177 613 177 613 219 655.5 c 128,-1,16
 261 698 261 698 309 723 c 128,-1,17
 357 748 357 748 409 748 c 0,18,19
 454 748 454 748 483.5 729.5 c 128,-1,20
 513 711 513 711 529.5 681.5 c 128,-1,21
 546 652 546 652 553 615 c 128,-1,22
 560 578 560 578 560 541 c 0,23,0
 560 459 560 459 542.5 386.5 c 128,-1,1
184 204 m 128,-1,25
 188 192 188 192 195 183 c 128,-1,26
 202 174 202 174 212.5 167.5 c 128,-1,27
 223 161 223 161 235 161 c 0,28,29
 280 161 280 161 315 192 c 128,-1,30
 350 223 350 223 373 268 c 128,-1,31
 396 313 396 313 408.5 364 c 128,-1,32
 421 415 421 415 421 457 c 0,33,34
 421 469 421 469 419.5 483 c 128,-1,35
 418 497 418 497 413.5 509 c 128,-1,36
 409 521 409 521 399.5 529.5 c 128,-1,37
 390 538 390 538 374 538 c 0,38,39
 342 538 342 538 315 522 c 128,-1,40
 288 506 288 506 266.5 479.5 c 128,-1,41
 245 453 245 453 229 419.5 c 128,-1,42
 213 386 213 386 201.5 351.5 c 128,-1,43
 190 317 190 317 185 284 c 128,-1,44
 180 251 180 251 180 227 c 0,45,24
 180 216 180 216 184 204 c 128,-1,25
519 612 m 1,46,47
 597 612 597 612 598.5 669.5 c 128,-1,48
 600 727 600 727 598 776 c 1,49,50
 611 766 611 766 622.5 755.5 c 128,-1,51
 634 745 634 745 645 736 c 0,52,53
 657 725 657 725 667 716 c 1,54,55
 671 652 671 652 636.5 600.5 c 128,-1,56
 602 549 602 549 532 540 c 1,57,-1
 519 612 l 1,46,47
EndSplineSet
Validated: 37
EndChar

StartChar: uni01EA
Encoding: 490 490 136
Width: 493
GlyphClass: 2
Flags: W
AnchorPoint: "Anchor-7" 491 574 basechar 0
AnchorPoint: "Anchor-6" 414 750 basechar 0
AnchorPoint: "Anchor-5" 295 10 basechar 0
AnchorPoint: "Anchor-4" 162 0 basechar 0
LayerCount: 2
Fore
SplineSet
542.5 386.5 m 128,-1,1
 525 314 525 314 496 253.5 c 128,-1,2
 467 193 467 193 428.5 145.5 c 128,-1,3
 390 98 390 98 348 64.5 c 128,-1,4
 306 31 306 31 263 13.5 c 128,-1,5
 220 -4 220 -4 181 -4 c 0,6,7
 148 -4 148 -4 121 8.5 c 128,-1,8
 94 21 94 21 74 45.5 c 128,-1,9
 54 70 54 70 42.5 108.5 c 128,-1,10
 31 147 31 147 31 201 c 0,11,12
 31 257 31 257 45 319 c 128,-1,13
 59 381 59 381 83 442 c 128,-1,14
 107 503 107 503 142 558 c 128,-1,15
 177 613 177 613 219 655.5 c 128,-1,16
 261 698 261 698 309 723 c 128,-1,17
 357 748 357 748 409 748 c 0,18,19
 454 748 454 748 483.5 729.5 c 128,-1,20
 513 711 513 711 529.5 681.5 c 128,-1,21
 546 652 546 652 553 615 c 128,-1,22
 560 578 560 578 560 541 c 0,23,0
 560 459 560 459 542.5 386.5 c 128,-1,1
184 204 m 128,-1,25
 188 192 188 192 195 183 c 128,-1,26
 202 174 202 174 212.5 167.5 c 128,-1,27
 223 161 223 161 235 161 c 0,28,29
 280 161 280 161 315 192 c 128,-1,30
 350 223 350 223 373 268 c 128,-1,31
 396 313 396 313 408.5 364 c 128,-1,32
 421 415 421 415 421 457 c 0,33,34
 421 469 421 469 419.5 483 c 128,-1,35
 418 497 418 497 413.5 509 c 128,-1,36
 409 521 409 521 399.5 529.5 c 128,-1,37
 390 538 390 538 374 538 c 0,38,39
 342 538 342 538 315 522 c 128,-1,40
 288 506 288 506 266.5 479.5 c 128,-1,41
 245 453 245 453 229 419.5 c 128,-1,42
 213 386 213 386 201.5 351.5 c 128,-1,43
 190 317 190 317 185 284 c 128,-1,44
 180 251 180 251 180 227 c 0,45,24
 180 216 180 216 184 204 c 128,-1,25
303.5 -125 m 128,-1,47
 281 -134 281 -134 258 -134 c 0,48,49
 228 -134 228 -134 203.5 -126.5 c 128,-1,50
 179 -119 179 -119 161 -106 c 128,-1,51
 143 -93 143 -93 133 -75.5 c 128,-1,52
 123 -58 123 -58 123 -37 c 0,53,54
 123 2 123 2 163 41 c 0,55,56
 164 41 164 41 173 42.5 c 128,-1,57
 182 44 182 44 194 46 c 128,-1,58
 206 48 206 48 223 50 c 1,59,60
 219 32 219 32 219 20 c 0,61,62
 219 -5 219 -5 233.5 -21 c 128,-1,63
 248 -37 248 -37 269 -37 c 0,64,65
 297 -37 297 -37 322 -9 c 1,66,-1
 342 -97 l 1,67,46
 326 -116 326 -116 303.5 -125 c 128,-1,47
EndSplineSet
Validated: 5
EndChar

StartChar: Oslash
Encoding: 216 216 137
Width: 493
GlyphClass: 2
Flags: W
AnchorPoint: "Anchor-7" 0 0 basechar 0
AnchorPoint: "Anchor-6" 409 748 basechar 0
AnchorPoint: "Anchor-5" 0 0 basechar 0
AnchorPoint: "Anchor-4" 247 0 basechar 0
LayerCount: 2
Fore
SplineSet
49 -8 m 1,0,-1
 -1 40 l 1,1,-1
 47 96 l 1,2,3
 31 141 31 141 31 201 c 0,4,5
 31 257 31 257 45 319 c 128,-1,6
 59 381 59 381 83 442 c 128,-1,7
 107 503 107 503 142 558 c 128,-1,8
 177 613 177 613 219 655.5 c 128,-1,9
 261 698 261 698 309 723 c 128,-1,10
 357 748 357 748 409 748 c 0,11,12
 448 748 448 748 475 734 c 128,-1,13
 502 720 502 720 520 696 c 1,14,-1
 555 742 l 1,15,-1
 606 704 l 1,16,-1
 623 724 l 1,17,-1
 550 630 l 1,18,19
 555 608 555 608 557.5 585.5 c 128,-1,20
 560 563 560 563 560 541 c 0,21,22
 560 459 560 459 542.5 386.5 c 128,-1,23
 525 314 525 314 496 253.5 c 128,-1,24
 467 193 467 193 428.5 145.5 c 128,-1,25
 390 98 390 98 348 64.5 c 128,-1,26
 306 31 306 31 263 13.5 c 128,-1,27
 220 -4 220 -4 181 -4 c 0,28,29
 121 -4 121 -4 82 35 c 1,30,-1
 49 -8 l 1,0,-1
247 168 m 0,32,33
 275 168 275 168 300.5 183 c 128,-1,34
 326 198 326 198 347.5 222 c 128,-1,35
 369 246 369 246 385.5 277.5 c 128,-1,36
 402 309 402 309 414.5 340.5 c 128,-1,37
 427 372 427 372 433 403 c 128,-1,38
 439 434 439 434 439 457 c 0,39,40
 439 473 439 473 437 484 c 1,41,-1
 196 181 l 1,42,31
 222 168 222 168 247 168 c 0,32,33
173.5 258.5 m 128,-1,44
 174 252 174 252 175 246 c 1,45,-1
 413 533 l 1,46,47
 388 576 388 576 354 576 c 0,48,49
 322 576 322 576 290.5 546.5 c 128,-1,50
 259 517 259 517 232.5 471.5 c 128,-1,51
 206 426 206 426 189.5 372 c 128,-1,52
 173 318 173 318 173 271 c 0,53,43
 173 265 173 265 173.5 258.5 c 128,-1,44
EndSplineSet
Validated: 1
EndChar

StartChar: OE
Encoding: 338 338 141
Width: 561
GlyphClass: 2
Flags: W
AnchorPoint: "Anchor-7" 0 0 basechar 0
AnchorPoint: "Anchor-6" 280 721 basechar 0
AnchorPoint: "Anchor-5" 0 0 basechar 0
AnchorPoint: "Anchor-4" 280 0 basechar 0
LayerCount: 2
Fore
SplineSet
248 10 m 2,0,1
 190 10 190 10 150 27.5 c 128,-1,2
 110 45 110 45 84.5 75 c 128,-1,3
 59 105 59 105 47 146.5 c 128,-1,4
 35 188 35 188 35 234 c 0,5,6
 35 284 35 284 48 339 c 128,-1,7
 61 394 61 394 83.5 446 c 128,-1,8
 106 498 106 498 138.5 546 c 128,-1,9
 171 594 171 594 210.5 631 c 128,-1,10
 250 668 250 668 295 692 c 128,-1,11
 340 716 340 716 389 720 c 2,12,-1
 675 739 l 1,13,14
 668 717 668 717 663 694 c 0,15,16
 658 675 658 675 653 654.5 c 128,-1,17
 648 634 648 634 646 618 c 1,18,-1
 634 618 l 2,19,20
 612 618 612 618 580.5 620.5 c 128,-1,21
 549 623 549 623 521 623 c 1,22,-1
 486 443 l 1,23,24
 504 442 504 442 521 442 c 0,25,26
 536 441 536 441 553 441 c 128,-1,27
 570 441 570 441 584 441 c 2,28,-1
 600 441 l 1,29,30
 596 413 596 413 592.5 386 c 128,-1,31
 589 359 589 359 584 331 c 0,32,33
 580 331 580 331 575.5 330.5 c 128,-1,34
 571 330 571 330 566 330 c 0,35,36
 553 330 553 330 536.5 330.5 c 128,-1,37
 520 331 520 331 504 332 c 128,-1,38
 488 333 488 333 473 334 c 1,39,-1
 438 149 l 1,40,-1
 561 165 l 1,41,-1
 551 51 l 1,42,-1
 258 10 l 1,43,-1
 248 10 l 2,0,1
199.5 199.5 m 128,-1,45
 221 171 221 171 270 171 c 0,46,47
 274 171 274 171 278 171 c 128,-1,48
 282 171 282 171 287 172 c 1,49,-1
 356 546 l 1,50,51
 324 541 324 541 292.5 512.5 c 128,-1,52
 261 484 261 484 235 443.5 c 128,-1,53
 209 403 209 403 193.5 356.5 c 128,-1,54
 178 310 178 310 178 270 c 0,55,44
 178 228 178 228 199.5 199.5 c 128,-1,45
EndSplineSet
Validated: 1
EndChar

StartChar: P
Encoding: 80 80 142
Width: 379
GlyphClass: 2
Flags: W
AnchorPoint: "Anchor-7" 0 0 basechar 0
AnchorPoint: "Anchor-6" 311 721 basechar 0
AnchorPoint: "Anchor-5" 0 0 basechar 0
AnchorPoint: "Anchor-4" 189 0 basechar 0
LayerCount: 2
Fore
SplineSet
-3 -1 m 1,0,1
 27 134 27 134 54 263 c 0,2,3
 65 317 65 317 77 377 c 128,-1,4
 89 437 89 437 100 495 c 128,-1,5
 111 553 111 553 121 607 c 128,-1,6
 131 661 131 661 138 706 c 1,7,8
 167 715 167 715 195 721.5 c 128,-1,9
 223 728 223 728 252.5 733 c 128,-1,10
 282 738 282 738 308 738 c 0,11,12
 353 738 353 738 383.5 723 c 128,-1,13
 414 708 414 708 433 682.5 c 128,-1,14
 452 657 452 657 460 623 c 128,-1,15
 468 589 468 589 468 550 c 0,16,17
 468 494 468 494 447.5 442 c 128,-1,18
 427 390 427 390 392.5 349.5 c 128,-1,19
 358 309 358 309 313.5 285 c 128,-1,20
 269 261 269 261 221 261 c 2,21,-1
 210 261 l 1,22,23
 202 227 202 227 195 187 c 128,-1,24
 188 147 188 147 183 113 c 0,25,26
 176 73 176 73 170 33 c 1,27,-1
 -3 -1 l 1,0,1
254 492 m 128,-1,29
 243 433 243 433 230 366 c 1,30,31
 246 370 246 370 263.5 384.5 c 128,-1,32
 281 399 281 399 296 422.5 c 128,-1,33
 311 446 311 446 320 477 c 128,-1,34
 329 508 329 508 329 542 c 0,35,36
 329 579 329 579 312.5 598 c 128,-1,37
 296 617 296 617 276 617 c 1,38,28
 265 551 265 551 254 492 c 128,-1,29
EndSplineSet
Validated: 1
EndChar

StartChar: Thorn
Encoding: 222 222 143
Width: 386
GlyphClass: 2
Flags: W
AnchorPoint: "Anchor-7" 0 0 basechar 0
AnchorPoint: "Anchor-6" 193 721 basechar 0
AnchorPoint: "Anchor-5" 0 0 basechar 0
AnchorPoint: "Anchor-4" 193 0 basechar 0
LayerCount: 2
Fore
SplineSet
1 -1 m 1,0,1
 31 141 31 141 58 275 c 0,2,3
 69 333 69 333 81 394.5 c 128,-1,4
 93 456 93 456 104 515.5 c 128,-1,5
 115 575 115 575 125 630.5 c 128,-1,6
 135 686 135 686 142 730 c 1,7,8
 184 735 184 735 216.5 738.5 c 128,-1,9
 249 742 249 742 275.5 745 c 128,-1,10
 302 748 302 748 308 748 c 1,11,-1
 287 648 l 1,12,13
 333 648 333 648 365 632.5 c 128,-1,14
 397 617 397 617 417.5 590.5 c 128,-1,15
 438 564 438 564 447 529 c 128,-1,16
 456 494 456 494 456 455 c 0,17,18
 456 399 456 399 435 348 c 128,-1,19
 414 297 414 297 379.5 257.5 c 128,-1,20
 345 218 345 218 300.5 194.5 c 128,-1,21
 256 171 256 171 209 171 c 2,22,-1
 198 171 l 1,23,24
 190 137 190 137 186 111.5 c 128,-1,25
 182 86 182 86 179 68 c 0,26,27
 175 48 175 48 174 33 c 1,28,-1
 1 -1 l 1,0,1
242 402 m 128,-1,30
 231 343 231 343 219 276 c 1,31,32
 234 280 234 280 252 295 c 128,-1,33
 270 310 270 310 284.5 333 c 128,-1,34
 299 356 299 356 308 387 c 128,-1,35
 317 418 317 418 317 452 c 0,36,37
 317 489 317 489 300.5 508 c 128,-1,38
 284 527 284 527 265 527 c 1,39,29
 253 461 253 461 242 402 c 128,-1,30
EndSplineSet
Validated: 1
EndChar

StartChar: Q
Encoding: 81 81 144
Width: 525
GlyphClass: 2
Flags: W
AnchorPoint: "Anchor-7" 0 0 basechar 0
AnchorPoint: "Anchor-6" 411 721 basechar 0
AnchorPoint: "Anchor-5" 0 0 basechar 0
AnchorPoint: "Anchor-4" 263 0 basechar 0
LayerCount: 2
Fore
SplineSet
486.5 -4.5 m 128,-1,1
 466 -30 466 -30 451 -48 c 1,2,3
 431 -20 431 -20 409.5 9 c 128,-1,4
 388 38 388 38 368 68 c 2,5,-1
 363 76 l 1,6,7
 317 37 317 37 270.5 16.5 c 128,-1,8
 224 -4 224 -4 181 -4 c 0,9,10
 148 -4 148 -4 121 8.5 c 128,-1,11
 94 21 94 21 74 45.5 c 128,-1,12
 54 70 54 70 42.5 108.5 c 128,-1,13
 31 147 31 147 31 201 c 0,14,15
 31 257 31 257 45 319 c 128,-1,16
 59 381 59 381 83 442 c 128,-1,17
 107 503 107 503 142 558 c 128,-1,18
 177 613 177 613 219 655.5 c 128,-1,19
 261 698 261 698 309 723 c 128,-1,20
 357 748 357 748 409 748 c 0,21,22
 454 748 454 748 483.5 729.5 c 128,-1,23
 513 711 513 711 529.5 681.5 c 128,-1,24
 546 652 546 652 553 615 c 128,-1,25
 560 578 560 578 560 541 c 0,26,27
 560 443 560 443 536 360.5 c 128,-1,28
 512 278 512 278 474 212 c 1,29,-1
 569 100 l 1,30,31
 547 71 547 71 525 44 c 0,32,0
 507 21 507 21 486.5 -4.5 c 128,-1,1
184 204 m 128,-1,34
 188 192 188 192 195 183 c 128,-1,35
 202 174 202 174 212.5 167.5 c 128,-1,36
 223 161 223 161 235 161 c 0,37,38
 270 161 270 161 299 180 c 1,39,-1
 259 246 l 1,40,41
 301 278 301 278 323.5 296 c 128,-1,42
 346 314 346 314 356 322 c 0,43,44
 368 332 368 332 370 334 c 2,45,-1
 392 309 l 1,46,47
 405 346 405 346 413 385 c 128,-1,48
 421 424 421 424 421 457 c 0,49,50
 421 469 421 469 419.5 483 c 128,-1,51
 418 497 418 497 413.5 509 c 128,-1,52
 409 521 409 521 399.5 529.5 c 128,-1,53
 390 538 390 538 374 538 c 0,54,55
 342 538 342 538 315 522 c 128,-1,56
 288 506 288 506 266.5 479.5 c 128,-1,57
 245 453 245 453 229 419.5 c 128,-1,58
 213 386 213 386 201.5 351.5 c 128,-1,59
 190 317 190 317 185 284 c 128,-1,60
 180 251 180 251 180 227 c 0,61,33
 180 216 180 216 184 204 c 128,-1,34
EndSplineSet
Validated: 1
EndChar

StartChar: R
Encoding: 82 82 145
Width: 444
GlyphClass: 2
Flags: W
AnchorPoint: "Anchor-7" 0 0 basechar 0
AnchorPoint: "Anchor-6" 368 721 basechar 0
AnchorPoint: "Anchor-5" 0 0 basechar 0
AnchorPoint: "Anchor-4" 223 0 basechar 0
LayerCount: 2
Fore
SplineSet
4 -1 m 1,0,1
 31 132 31 132 56 259 c 0,2,3
 65 313 65 313 76 371.5 c 128,-1,4
 87 430 87 430 96.5 487.5 c 128,-1,5
 106 545 106 545 114.5 598.5 c 128,-1,6
 123 652 123 652 128 696 c 1,7,8
 185 714 185 714 251 722.5 c 128,-1,9
 317 731 317 731 382 731 c 0,10,11
 421 731 421 731 446.5 722 c 128,-1,12
 472 713 472 713 486.5 696.5 c 128,-1,13
 501 680 501 680 507 658 c 128,-1,14
 513 636 513 636 513 609 c 0,15,16
 513 569 513 569 499 530.5 c 128,-1,17
 485 492 485 492 461.5 457.5 c 128,-1,18
 438 423 438 423 407.5 394.5 c 128,-1,19
 377 366 377 366 342 348 c 1,20,21
 360 308 360 308 380.5 260.5 c 128,-1,22
 401 213 401 213 419 170 c 0,23,24
 439 120 439 120 460 70 c 1,25,-1
 305 16 l 1,26,27
 285 85 285 85 269 146 c 0,28,29
 262 171 262 171 255 197.5 c 128,-1,30
 248 224 248 224 242 247.5 c 128,-1,31
 236 271 236 271 232 289 c 128,-1,32
 228 307 228 307 227 317 c 1,33,-1
 214 313 l 1,34,35
 208 281 208 281 199.5 235 c 128,-1,36
 191 189 191 189 184 146 c 0,37,38
 175 95 175 95 166 41 c 1,39,-1
 4 -1 l 1,0,1
239 433 m 1,40,41
 258 435 258 435 285.5 449 c 128,-1,42
 313 463 313 463 338 482.5 c 128,-1,43
 363 502 363 502 381 523 c 128,-1,44
 399 544 399 544 399 560 c 0,45,46
 399 571 399 571 392 577.5 c 128,-1,47
 385 584 385 584 372.5 587.5 c 128,-1,48
 360 591 360 591 345 592 c 128,-1,49
 330 593 330 593 314 593 c 0,50,51
 303 593 303 593 291.5 592.5 c 128,-1,52
 280 592 280 592 271 592 c 1,53,-1
 239 433 l 1,40,41
EndSplineSet
Validated: 1
EndChar

StartChar: S
Encoding: 83 83 151
Width: 430
GlyphClass: 2
Flags: W
AnchorPoint: "Anchor-7" 0 0 basechar 0
AnchorPoint: "Anchor-6" 368 721 basechar 0
AnchorPoint: "Anchor-5" 0 0 basechar 0
AnchorPoint: "Anchor-4" 215 0 basechar 0
LayerCount: 2
Fore
SplineSet
421.5 145.5 m 128,-1,1
 400 100 400 100 363.5 67 c 128,-1,2
 327 34 327 34 277.5 16 c 128,-1,3
 228 -2 228 -2 171 -2 c 0,4,5
 131 -2 131 -2 91 19.5 c 128,-1,6
 51 41 51 41 14 88 c 1,7,-1
 88 233 l 1,8,9
 95 220 95 220 109 206.5 c 128,-1,10
 123 193 123 193 140.5 183 c 128,-1,11
 158 173 158 173 175.5 166.5 c 128,-1,12
 193 160 193 160 207 160 c 0,13,14
 219 160 219 160 232 164 c 128,-1,15
 245 168 245 168 256 176 c 128,-1,16
 267 184 267 184 273.5 194.5 c 128,-1,17
 280 205 280 205 280 219 c 0,18,19
 280 243 280 243 264.5 263.5 c 128,-1,20
 249 284 249 284 226 302.5 c 128,-1,21
 203 321 203 321 176 340 c 128,-1,22
 149 359 149 359 126.5 380 c 128,-1,23
 104 401 104 401 88 427 c 128,-1,24
 72 453 72 453 72 485 c 0,25,26
 72 537 72 537 103 582 c 128,-1,27
 134 627 134 627 180.5 659.5 c 128,-1,28
 227 692 227 692 282 711 c 128,-1,29
 337 730 337 730 386 730 c 0,30,31
 413 730 413 730 437 723.5 c 128,-1,32
 461 717 461 717 478.5 702.5 c 128,-1,33
 496 688 496 688 506.5 666 c 128,-1,34
 517 644 517 644 517 611 c 0,35,36
 517 597 517 597 514.5 583 c 128,-1,37
 512 569 512 569 510 553 c 1,38,-1
 365 511 l 1,39,40
 367 519 367 519 368.5 527 c 128,-1,41
 370 535 370 535 370 543 c 0,42,43
 370 573 370 573 359.5 586.5 c 128,-1,44
 349 600 349 600 332 600 c 0,45,46
 324 600 324 600 312.5 594 c 128,-1,47
 301 588 301 588 289.5 578.5 c 128,-1,48
 278 569 278 569 270 556 c 128,-1,49
 262 543 262 543 262 528 c 0,50,51
 262 504 262 504 275.5 488 c 128,-1,52
 289 472 289 472 309 458 c 128,-1,53
 329 444 329 444 352.5 429.5 c 128,-1,54
 376 415 376 415 396 392 c 128,-1,55
 416 369 416 369 429.5 334.5 c 128,-1,56
 443 300 443 300 443 247 c 0,57,0
 443 191 443 191 421.5 145.5 c 128,-1,1
EndSplineSet
Validated: 1
EndChar

StartChar: Scedilla
Encoding: 350 350 154
Width: 430
GlyphClass: 2
Flags: W
AnchorPoint: "Anchor-7" 0 0 basechar 0
AnchorPoint: "Anchor-6" 368 721 basechar 0
AnchorPoint: "Anchor-5" 0 0 basechar 0
AnchorPoint: "Anchor-4" 215 -165 basechar 0
LayerCount: 2
Fore
SplineSet
421.5 145.5 m 128,-1,1
 400 100 400 100 363.5 67 c 128,-1,2
 327 34 327 34 277.5 16 c 128,-1,3
 228 -2 228 -2 171 -2 c 0,4,5
 131 -2 131 -2 91 19.5 c 128,-1,6
 51 41 51 41 14 88 c 1,7,-1
 88 233 l 1,8,9
 95 220 95 220 109 206.5 c 128,-1,10
 123 193 123 193 140.5 183 c 128,-1,11
 158 173 158 173 175.5 166.5 c 128,-1,12
 193 160 193 160 207 160 c 0,13,14
 219 160 219 160 232 164 c 128,-1,15
 245 168 245 168 256 176 c 128,-1,16
 267 184 267 184 273.5 194.5 c 128,-1,17
 280 205 280 205 280 219 c 0,18,19
 280 243 280 243 264.5 263.5 c 128,-1,20
 249 284 249 284 226 302.5 c 128,-1,21
 203 321 203 321 176 340 c 128,-1,22
 149 359 149 359 126.5 380 c 128,-1,23
 104 401 104 401 88 427 c 128,-1,24
 72 453 72 453 72 485 c 0,25,26
 72 537 72 537 103 582 c 128,-1,27
 134 627 134 627 180.5 659.5 c 128,-1,28
 227 692 227 692 282 711 c 128,-1,29
 337 730 337 730 386 730 c 0,30,31
 413 730 413 730 437 723.5 c 128,-1,32
 461 717 461 717 478.5 702.5 c 128,-1,33
 496 688 496 688 506.5 666 c 128,-1,34
 517 644 517 644 517 611 c 0,35,36
 517 597 517 597 514.5 583 c 128,-1,37
 512 569 512 569 510 553 c 1,38,-1
 365 511 l 1,39,40
 367 519 367 519 368.5 527 c 128,-1,41
 370 535 370 535 370 543 c 0,42,43
 370 573 370 573 359.5 586.5 c 128,-1,44
 349 600 349 600 332 600 c 0,45,46
 324 600 324 600 312.5 594 c 128,-1,47
 301 588 301 588 289.5 578.5 c 128,-1,48
 278 569 278 569 270 556 c 128,-1,49
 262 543 262 543 262 528 c 0,50,51
 262 504 262 504 275.5 488 c 128,-1,52
 289 472 289 472 309 458 c 128,-1,53
 329 444 329 444 352.5 429.5 c 128,-1,54
 376 415 376 415 396 392 c 128,-1,55
 416 369 416 369 429.5 334.5 c 128,-1,56
 443 300 443 300 443 247 c 0,57,0
 443 191 443 191 421.5 145.5 c 128,-1,1
314.5 -106.5 m 128,-1,59
 304 -124 304 -124 286 -137 c 128,-1,60
 268 -150 268 -150 243.5 -157.5 c 128,-1,61
 219 -165 219 -165 190 -165 c 0,62,63
 166 -165 166 -165 143.5 -156 c 128,-1,64
 121 -147 121 -147 106 -128 c 1,65,-1
 125 -40 l 1,66,67
 151 -68 151 -68 178 -68 c 0,68,69
 200 -68 200 -68 214.5 -52 c 128,-1,70
 229 -36 229 -36 229 -11 c 0,71,72
 229 1 229 1 224 19 c 1,73,74
 242 17 242 17 253.5 15 c 128,-1,75
 265 13 265 13 274.5 11.5 c 128,-1,76
 284 10 284 10 285 10 c 0,77,78
 325 -29 325 -29 325 -68 c 0,79,58
 325 -89 325 -89 314.5 -106.5 c 128,-1,59
EndSplineSet
Validated: 5
Substitution2: "'locl' Localized Forms in Latin lookup 6 subtable" Scommaaccent
Substitution2: "'locl' Localized Forms in Latin lookup 5 subtable" Scommaaccent
Substitution2: "'aalt' Access All Alternates in Latin lookup 0 subtable" Scommaaccent
EndChar

StartChar: uni1E9E
Encoding: 7838 7838 157
Width: 625
GlyphClass: 2
Flags: W
AnchorPoint: "Anchor-7" 0 0 basechar 0
AnchorPoint: "Anchor-6" 590 721 basechar 0
AnchorPoint: "Anchor-5" 407 10 basechar 0
AnchorPoint: "Anchor-4" 437 0 basechar 0
LayerCount: 2
Fore
SplineSet
611 363 m 128,-1,1
 635 297 635 297 635 247 c 0,2,3
 635 168 635 168 603.5 114 c 128,-1,4
 572 60 572 60 523.5 34 c 128,-1,5
 475 8 475 8 422 8 c 0,6,7
 388 8 388 8 353 22 c 128,-1,8
 318 36 318 36 292.5 57.5 c 128,-1,9
 267 79 267 79 259 98 c 1,10,-1
 324 243 l 1,11,12
 334 206 334 206 359.5 181.5 c 128,-1,13
 385 157 385 157 412 157 c 0,14,15
 441 157 441 157 460 177 c 128,-1,16
 479 197 479 197 479 231 c 0,17,18
 479 275 479 275 450.5 332.5 c 128,-1,19
 422 390 422 390 392 420 c 1,20,-1
 488 504 l 1,21,22
 477 547 477 547 447 575.5 c 128,-1,23
 417 604 417 604 377 604 c 0,24,25
 340 604 340 604 318.5 576.5 c 128,-1,26
 297 549 297 549 283 479 c 2,27,-1
 199 29 l 1,28,-1
 33 10 l 1,29,-1
 142 514 l 2,30,31
 166 623 166 623 224 682 c 128,-1,32
 282 741 282 741 392 741 c 0,33,34
 440 741 440 741 488 716 c 128,-1,35
 536 691 536 691 570.5 648 c 128,-1,36
 605 605 605 605 616 556 c 1,37,-1
 613 523 l 1,38,-1
 550 477 l 1,39,0
 587 429 587 429 611 363 c 128,-1,1
EndSplineSet
Validated: 1
EndChar

StartChar: uni018F
Encoding: 399 399 158
Width: 585
GlyphClass: 2
Flags: W
LayerCount: 2
Fore
SplineSet
475 718 m 128,-1,1
 533 685 533 685 568.5 614 c 128,-1,2
 604 543 604 543 604 436 c 0,3,4
 604 326 604 326 562.5 225 c 128,-1,5
 521 124 521 124 447 62 c 128,-1,6
 373 0 373 0 280 0 c 0,7,8
 220 0 220 0 172.5 34 c 128,-1,9
 125 68 125 68 99 127 c 128,-1,10
 73 186 73 186 73 258 c 0,11,12
 73 340 73 340 108 430 c 1,13,-1
 433 430 l 1,14,15
 428 498 428 498 404.5 538 c 128,-1,16
 381 578 381 578 346 578 c 0,17,18
 325 578 325 578 297.5 554.5 c 128,-1,19
 270 531 270 531 265 513 c 1,20,-1
 158 621 l 1,21,22
 172 659 172 659 204 689 c 128,-1,23
 236 719 236 719 274.5 735 c 128,-1,24
 313 751 313 751 347 751 c 0,25,0
 417 751 417 751 475 718 c 128,-1,1
369.5 191.5 m 128,-1,27
 410 238 410 238 425 310 c 1,28,-1
 212 310 l 1,29,30
 202 283 202 283 202 261 c 0,31,32
 202 209 202 209 219 177 c 128,-1,33
 236 145 236 145 269 145 c 0,34,26
 329 145 329 145 369.5 191.5 c 128,-1,27
EndSplineSet
Validated: 1
EndChar

StartChar: T
Encoding: 84 84 159
Width: 362
GlyphClass: 2
Flags: W
AnchorPoint: "Anchor-7" 0 0 basechar 0
AnchorPoint: "Anchor-6" 322 721 basechar 0
AnchorPoint: "Anchor-5" 0 0 basechar 0
AnchorPoint: "Anchor-4" 182 0 basechar 0
LayerCount: 2
Fore
SplineSet
90 -1 m 1,0,1
 113 109 113 109 134 216 c 0,2,3
 143 261 143 261 152 310 c 128,-1,4
 161 359 161 359 169.5 406.5 c 128,-1,5
 178 454 178 454 184.5 498.5 c 128,-1,6
 191 543 191 543 196 580 c 1,7,8
 173 583 173 583 149.5 582 c 128,-1,9
 126 581 126 581 103 588 c 1,10,11
 104 604 104 604 104 625 c 128,-1,12
 104 646 104 646 105 667 c 0,13,14
 106 690 106 690 107 716 c 1,15,16
 133 714 133 714 159 713 c 128,-1,17
 185 712 185 712 211 712 c 0,18,19
 262 712 262 712 309.5 714.5 c 128,-1,20
 357 717 357 717 397.5 720.5 c 128,-1,21
 438 724 438 724 477 729 c 1,22,-1
 466 675 l 2,23,24
 461 652 461 652 456.5 628 c 128,-1,25
 452 604 452 604 448 587 c 1,26,27
 426 581 426 581 403.5 578.5 c 128,-1,28
 381 576 381 576 359 572 c 1,29,30
 352 538 352 538 344 496.5 c 128,-1,31
 336 455 336 455 328.5 410.5 c 128,-1,32
 321 366 321 366 314 320 c 128,-1,33
 307 274 307 274 300 232 c 0,34,35
 284 133 284 133 270 27 c 1,36,-1
 90 -1 l 1,0,1
EndSplineSet
Validated: 33
EndChar

StartChar: Tbar
Encoding: 358 358 160
Width: 362
GlyphClass: 2
Flags: W
AnchorPoint: "Anchor-7" 0 0 basechar 0
AnchorPoint: "Anchor-6" 322 721 basechar 0
AnchorPoint: "Anchor-5" 0 0 basechar 0
AnchorPoint: "Anchor-4" 182 0 basechar 0
LayerCount: 2
Fore
SplineSet
90 -1 m 1,0,1
 113 109 113 109 134 216 c 0,2,3
 143 261 143 261 152 310 c 128,-1,4
 161 359 161 359 169.5 406.5 c 128,-1,5
 178 454 178 454 184.5 498.5 c 128,-1,6
 191 543 191 543 196 580 c 1,7,8
 173 583 173 583 149.5 582 c 128,-1,9
 126 581 126 581 103 588 c 1,10,11
 104 604 104 604 104 625 c 128,-1,12
 104 646 104 646 105 667 c 0,13,14
 106 690 106 690 107 716 c 1,15,16
 133 714 133 714 159 713 c 128,-1,17
 185 712 185 712 211 712 c 0,18,19
 262 712 262 712 309.5 714.5 c 128,-1,20
 357 717 357 717 397.5 720.5 c 128,-1,21
 438 724 438 724 477 729 c 1,22,-1
 466 675 l 2,23,24
 461 652 461 652 456.5 628 c 128,-1,25
 452 604 452 604 448 587 c 1,26,27
 426 581 426 581 403.5 578.5 c 128,-1,28
 381 576 381 576 359 572 c 1,29,30
 352 538 352 538 344 496.5 c 128,-1,31
 336 455 336 455 328.5 410.5 c 128,-1,32
 321 366 321 366 314 320 c 128,-1,33
 307 274 307 274 300 232 c 0,34,35
 284 133 284 133 270 27 c 1,36,-1
 90 -1 l 1,0,1
365 238 m 1,37,38
 330 239 330 239 298.5 240 c 128,-1,39
 267 241 267 241 234.5 241.5 c 128,-1,40
 202 242 202 242 180 242 c 0,41,42
 162 242 162 242 138.5 241.5 c 128,-1,43
 115 241 115 241 91 240 c 128,-1,44
 67 239 67 239 41 239 c 1,45,-1
 89 416 l 1,46,47
 116 415 116 415 140.5 414 c 128,-1,48
 165 413 165 413 190 412.5 c 128,-1,49
 215 412 215 412 232 412 c 0,50,51
 253 412 253 412 282 412.5 c 128,-1,52
 311 413 311 413 339.5 414 c 128,-1,53
 368 415 368 415 399 417 c 1,54,-1
 365 238 l 1,37,38
EndSplineSet
Validated: 37
EndChar

StartChar: uni0162
Encoding: 354 354 162
Width: 362
GlyphClass: 2
Flags: W
AnchorPoint: "Anchor-7" 0 0 basechar 0
AnchorPoint: "Anchor-6" 322 721 basechar 0
AnchorPoint: "Anchor-5" 0 0 basechar 0
AnchorPoint: "Anchor-4" 182 -165 basechar 0
LayerCount: 2
Fore
SplineSet
90 -1 m 1,0,1
 113 109 113 109 134 216 c 0,2,3
 143 261 143 261 152 310 c 128,-1,4
 161 359 161 359 169.5 406.5 c 128,-1,5
 178 454 178 454 184.5 498.5 c 128,-1,6
 191 543 191 543 196 580 c 1,7,8
 173 583 173 583 149.5 582 c 128,-1,9
 126 581 126 581 103 588 c 1,10,11
 104 604 104 604 104 625 c 128,-1,12
 104 646 104 646 105 667 c 0,13,14
 106 690 106 690 107 716 c 1,15,16
 133 714 133 714 159 713 c 128,-1,17
 185 712 185 712 211 712 c 0,18,19
 262 712 262 712 309.5 714.5 c 128,-1,20
 357 717 357 717 397.5 720.5 c 128,-1,21
 438 724 438 724 477 729 c 1,22,-1
 466 675 l 2,23,24
 461 652 461 652 456.5 628 c 128,-1,25
 452 604 452 604 448 587 c 1,26,27
 426 581 426 581 403.5 578.5 c 128,-1,28
 381 576 381 576 359 572 c 1,29,30
 352 538 352 538 344 496.5 c 128,-1,31
 336 455 336 455 328.5 410.5 c 128,-1,32
 321 366 321 366 314 320 c 128,-1,33
 307 274 307 274 300 232 c 0,34,35
 284 133 284 133 270 27 c 1,36,-1
 90 -1 l 1,0,1
281.5 -106.5 m 128,-1,38
 271 -124 271 -124 253 -137 c 128,-1,39
 235 -150 235 -150 210.5 -157.5 c 128,-1,40
 186 -165 186 -165 157 -165 c 0,41,42
 133 -165 133 -165 110.5 -156 c 128,-1,43
 88 -147 88 -147 73 -128 c 1,44,-1
 92 -40 l 1,45,46
 118 -68 118 -68 145 -68 c 0,47,48
 167 -68 167 -68 181.5 -52 c 128,-1,49
 196 -36 196 -36 196 -11 c 0,50,51
 196 1 196 1 191 19 c 1,52,53
 209 17 209 17 220.5 15 c 128,-1,54
 232 13 232 13 241.5 11.5 c 128,-1,55
 251 10 251 10 252 10 c 0,56,57
 292 -29 292 -29 292 -68 c 0,58,37
 292 -89 292 -89 281.5 -106.5 c 128,-1,38
EndSplineSet
Validated: 37
Substitution2: "'locl' Localized Forms in Latin lookup 6 subtable" uni021A
Substitution2: "'locl' Localized Forms in Latin lookup 5 subtable" uni021A
Substitution2: "'aalt' Access All Alternates in Latin lookup 0 subtable" uni021A
EndChar

StartChar: U
Encoding: 85 85 164
Width: 419
GlyphClass: 2
Flags: W
AnchorPoint: "Anchor-7" 463 681 basechar 0
AnchorPoint: "Anchor-6" 377 730 basechar 0
AnchorPoint: "Anchor-5" 377 10 basechar 0
AnchorPoint: "Anchor-4" 210 0 basechar 0
LayerCount: 2
Fore
SplineSet
376.5 98 m 128,-1,1
 351 58 351 58 316.5 32 c 128,-1,2
 282 6 282 6 243 -6 c 128,-1,3
 204 -18 204 -18 165 -18 c 0,4,5
 142 -18 142 -18 118 -10.5 c 128,-1,6
 94 -3 94 -3 75 12 c 128,-1,7
 56 27 56 27 43.5 50 c 128,-1,8
 31 73 31 73 31 104 c 0,9,10
 31 108 31 108 31 112 c 128,-1,11
 31 116 31 116 32 120 c 0,12,13
 36 161 36 161 45 219 c 128,-1,14
 54 277 54 277 64 340 c 128,-1,15
 74 403 74 403 86 466.5 c 128,-1,16
 98 530 98 530 107.5 582 c 128,-1,17
 117 634 117 634 124 668.5 c 128,-1,18
 131 703 131 703 133 711 c 1,19,20
 154 713 154 713 183 716 c 128,-1,21
 212 719 212 719 237 721 c 0,22,23
 268 724 268 724 298 727 c 1,24,25
 272 606 272 606 252 508 c 0,26,27
 243 466 243 466 234.5 424 c 128,-1,28
 226 382 226 382 218.5 347 c 128,-1,29
 211 312 211 312 205.5 286.5 c 128,-1,30
 200 261 200 261 196.5 245 c 128,-1,31
 193 229 193 229 188.5 204.5 c 128,-1,32
 184 180 184 180 184 160 c 0,33,34
 184 144 184 144 192 133.5 c 128,-1,35
 200 123 200 123 212 123 c 0,36,37
 229 123 229 123 240 136.5 c 128,-1,38
 251 150 251 150 258.5 169 c 128,-1,39
 266 188 266 188 269.5 207.5 c 128,-1,40
 273 227 273 227 276 238 c 0,41,42
 282 267 282 267 289.5 302.5 c 128,-1,43
 297 338 297 338 304.5 376.5 c 128,-1,44
 312 415 312 415 319.5 455 c 128,-1,45
 327 495 327 495 334 533 c 0,46,47
 351 621 351 621 367 715 c 1,48,-1
 519 725 l 1,49,50
 519 725 519 725 514 699 c 128,-1,51
 509 673 509 673 501 630 c 128,-1,52
 493 587 493 587 483.5 532 c 128,-1,53
 474 477 474 477 462 417.5 c 128,-1,54
 450 358 450 358 438.5 300.5 c 128,-1,55
 427 243 427 243 416 195 c 0,56,0
 402 138 402 138 376.5 98 c 128,-1,1
EndSplineSet
Validated: 1
EndChar

StartChar: Uhorn
Encoding: 431 431 173
Width: 419
GlyphClass: 2
Flags: W
AnchorPoint: "Anchor-7" 692 884 basechar 0
AnchorPoint: "Anchor-6" 331 721 basechar 0
AnchorPoint: "Anchor-5" 377 10 basechar 0
AnchorPoint: "Anchor-4" 210 0 basechar 0
LayerCount: 2
Fore
SplineSet
376.5 98 m 128,-1,1
 351 58 351 58 316.5 32 c 128,-1,2
 282 6 282 6 243 -6 c 128,-1,3
 204 -18 204 -18 165 -18 c 0,4,5
 142 -18 142 -18 118 -10.5 c 128,-1,6
 94 -3 94 -3 75 12 c 128,-1,7
 56 27 56 27 43.5 50 c 128,-1,8
 31 73 31 73 31 104 c 0,9,10
 31 108 31 108 31 112 c 128,-1,11
 31 116 31 116 32 120 c 0,12,13
 36 161 36 161 45 219 c 128,-1,14
 54 277 54 277 64 340 c 128,-1,15
 74 403 74 403 86 466.5 c 128,-1,16
 98 530 98 530 107.5 582 c 128,-1,17
 117 634 117 634 124 668.5 c 128,-1,18
 131 703 131 703 133 711 c 1,19,20
 154 713 154 713 183 716 c 128,-1,21
 212 719 212 719 237 721 c 0,22,23
 268 724 268 724 298 727 c 1,24,25
 272 606 272 606 252 508 c 0,26,27
 243 466 243 466 234.5 424 c 128,-1,28
 226 382 226 382 218.5 347 c 128,-1,29
 211 312 211 312 205.5 286.5 c 128,-1,30
 200 261 200 261 196.5 245 c 128,-1,31
 193 229 193 229 188.5 204.5 c 128,-1,32
 184 180 184 180 184 160 c 0,33,34
 184 144 184 144 192 133.5 c 128,-1,35
 200 123 200 123 212 123 c 0,36,37
 229 123 229 123 240 136.5 c 128,-1,38
 251 150 251 150 258.5 169 c 128,-1,39
 266 188 266 188 269.5 207.5 c 128,-1,40
 273 227 273 227 276 238 c 0,41,42
 282 267 282 267 289.5 302.5 c 128,-1,43
 297 338 297 338 304.5 376.5 c 128,-1,44
 312 415 312 415 319.5 455 c 128,-1,45
 327 495 327 495 334 533 c 0,46,47
 351 621 351 621 367 715 c 1,48,-1
 519 725 l 1,49,50
 519 725 519 725 514 699 c 128,-1,51
 509 673 509 673 501 630 c 128,-1,52
 493 587 493 587 483.5 532 c 128,-1,53
 474 477 474 477 462 417.5 c 128,-1,54
 450 358 450 358 438.5 300.5 c 128,-1,55
 427 243 427 243 416 195 c 0,56,0
 402 138 402 138 376.5 98 c 128,-1,1
491 719 m 1,57,58
 569 719 569 719 570.5 776.5 c 128,-1,59
 572 834 572 834 570 883 c 1,60,61
 583 873 583 873 594.5 862.5 c 128,-1,62
 606 852 606 852 617 843 c 0,63,64
 629 832 629 832 639 823 c 1,65,66
 643 759 643 759 608.5 707.5 c 128,-1,67
 574 656 574 656 504 647 c 1,68,-1
 491 719 l 1,57,58
EndSplineSet
Validated: 37
EndChar

StartChar: Uogonek
Encoding: 370 370 182
Width: 419
GlyphClass: 2
Flags: W
AnchorPoint: "Anchor-7" 463 681 basechar 0
AnchorPoint: "Anchor-6" 377 730 basechar 0
AnchorPoint: "Anchor-5" 377 10 basechar 0
AnchorPoint: "Anchor-4" 210 0 basechar 0
LayerCount: 2
Fore
SplineSet
376.5 98 m 128,-1,1
 351 58 351 58 316.5 32 c 128,-1,2
 282 6 282 6 243 -6 c 128,-1,3
 204 -18 204 -18 165 -18 c 0,4,5
 142 -18 142 -18 118 -10.5 c 128,-1,6
 94 -3 94 -3 75 12 c 128,-1,7
 56 27 56 27 43.5 50 c 128,-1,8
 31 73 31 73 31 104 c 0,9,10
 31 108 31 108 31 112 c 128,-1,11
 31 116 31 116 32 120 c 0,12,13
 36 161 36 161 45 219 c 128,-1,14
 54 277 54 277 64 340 c 128,-1,15
 74 403 74 403 86 466.5 c 128,-1,16
 98 530 98 530 107.5 582 c 128,-1,17
 117 634 117 634 124 668.5 c 128,-1,18
 131 703 131 703 133 711 c 1,19,20
 154 713 154 713 183 716 c 128,-1,21
 212 719 212 719 237 721 c 0,22,23
 268 724 268 724 298 727 c 1,24,25
 272 606 272 606 252 508 c 0,26,27
 243 466 243 466 234.5 424 c 128,-1,28
 226 382 226 382 218.5 347 c 128,-1,29
 211 312 211 312 205.5 286.5 c 128,-1,30
 200 261 200 261 196.5 245 c 128,-1,31
 193 229 193 229 188.5 204.5 c 128,-1,32
 184 180 184 180 184 160 c 0,33,34
 184 144 184 144 192 133.5 c 128,-1,35
 200 123 200 123 212 123 c 0,36,37
 229 123 229 123 240 136.5 c 128,-1,38
 251 150 251 150 258.5 169 c 128,-1,39
 266 188 266 188 269.5 207.5 c 128,-1,40
 273 227 273 227 276 238 c 0,41,42
 282 267 282 267 289.5 302.5 c 128,-1,43
 297 338 297 338 304.5 376.5 c 128,-1,44
 312 415 312 415 319.5 455 c 128,-1,45
 327 495 327 495 334 533 c 0,46,47
 351 621 351 621 367 715 c 1,48,-1
 519 725 l 1,49,50
 519 725 519 725 514 699 c 128,-1,51
 509 673 509 673 501 630 c 128,-1,52
 493 587 493 587 483.5 532 c 128,-1,53
 474 477 474 477 462 417.5 c 128,-1,54
 450 358 450 358 438.5 300.5 c 128,-1,55
 427 243 427 243 416 195 c 0,56,0
 402 138 402 138 376.5 98 c 128,-1,1
385.5 -125 m 128,-1,58
 363 -134 363 -134 340 -134 c 0,59,60
 310 -134 310 -134 285.5 -126.5 c 128,-1,61
 261 -119 261 -119 243 -106 c 128,-1,62
 225 -93 225 -93 215 -75.5 c 128,-1,63
 205 -58 205 -58 205 -37 c 0,64,65
 205 2 205 2 245 41 c 0,66,67
 246 41 246 41 255 42.5 c 128,-1,68
 264 44 264 44 276 46 c 128,-1,69
 288 48 288 48 305 50 c 1,70,71
 301 32 301 32 301 20 c 0,72,73
 301 -5 301 -5 315.5 -21 c 128,-1,74
 330 -37 330 -37 351 -37 c 0,75,76
 379 -37 379 -37 404 -9 c 1,77,-1
 424 -97 l 1,78,57
 408 -116 408 -116 385.5 -125 c 128,-1,58
EndSplineSet
Validated: 5
EndChar

StartChar: V
Encoding: 86 86 185
Width: 379
GlyphClass: 2
Flags: W
AnchorPoint: "Anchor-7" 0 0 basechar 0
AnchorPoint: "Anchor-6" 314 721 basechar 0
AnchorPoint: "Anchor-5" 0 0 basechar 0
AnchorPoint: "Anchor-4" 189 0 basechar 0
LayerCount: 2
Fore
SplineSet
59 -9 m 1,0,1
 72 131 72 131 83 266 c 0,2,3
 88 322 88 322 92.5 384 c 128,-1,4
 97 446 97 446 100.5 506.5 c 128,-1,5
 104 567 104 567 106 623.5 c 128,-1,6
 108 680 108 680 109 727 c 1,7,8
 133 727 133 727 160.5 728 c 128,-1,9
 188 729 188 729 210.5 730 c 128,-1,10
 233 731 233 731 249 732.5 c 128,-1,11
 265 734 265 734 265 734 c 1,12,13
 254 618 254 618 246 543.5 c 128,-1,14
 238 469 238 469 233.5 422.5 c 128,-1,15
 229 376 229 376 225.5 333 c 128,-1,16
 222 290 222 290 218 253 c 128,-1,17
 214 216 214 216 211 190 c 1,18,-1
 229 190 l 1,19,-1
 341 722 l 1,20,21
 368 723 368 723 396 725 c 0,22,23
 421 727 421 727 448.5 728 c 128,-1,24
 476 729 476 729 499 732 c 1,25,26
 485 688 485 688 470.5 635 c 128,-1,27
 456 582 456 582 440.5 525 c 128,-1,28
 425 468 425 468 410.5 409 c 128,-1,29
 396 350 396 350 382 295 c 0,30,31
 350 166 350 166 318 30 c 1,32,-1
 59 -9 l 1,0,1
EndSplineSet
Validated: 1
EndChar

StartChar: W
Encoding: 87 87 186
Width: 601
GlyphClass: 2
Flags: W
AnchorPoint: "Anchor-7" 0 0 basechar 0
AnchorPoint: "Anchor-6" 470 725 basechar 0
AnchorPoint: "Anchor-5" 0 0 basechar 0
AnchorPoint: "Anchor-4" 301 0 basechar 0
LayerCount: 2
Fore
SplineSet
41 -4 m 1,0,-1
 117 706 l 1,1,2
 164 708 164 708 205.5 715.5 c 128,-1,3
 247 723 247 723 288 726 c 1,4,5
 288 725 288 725 285 705.5 c 128,-1,6
 282 686 282 686 277 654.5 c 128,-1,7
 272 623 272 623 266 583.5 c 128,-1,8
 260 544 260 544 248.5 475 c 128,-1,9
 237 406 237 406 218 284 c 1,10,-1
 233 284 l 1,11,12
 259 376 259 376 276 434.5 c 128,-1,13
 293 493 293 493 303.5 529.5 c 128,-1,14
 314 566 314 566 323.5 600 c 128,-1,15
 333 634 333 634 341.5 663 c 128,-1,16
 350 692 350 692 355 712 c 1,17,-1
 364 712 l 2,18,19
 382 712 382 712 400.5 714 c 128,-1,20
 419 716 419 716 435.5 718.5 c 128,-1,21
 452 721 452 721 470 725 c 1,22,23
 468 716 468 716 465.5 688 c 128,-1,24
 463 660 463 660 459 620.5 c 128,-1,25
 455 581 455 581 451 533.5 c 128,-1,26
 447 486 447 486 443 440.5 c 128,-1,27
 439 395 439 395 435.5 354 c 128,-1,28
 432 313 432 313 429 284 c 1,29,-1
 447 284 l 1,30,-1
 542 714 l 1,31,32
 576 719 576 719 609 723 c 0,33,34
 638 727 638 727 669 731 c 128,-1,35
 700 735 700 735 724 740 c 1,36,37
 709 698 709 698 694 646.5 c 128,-1,38
 679 595 679 595 663 538 c 128,-1,39
 647 481 647 481 632.5 423 c 128,-1,40
 618 365 618 365 604 311 c 0,41,42
 572 183 572 183 542 48 c 1,43,-1
 316 10 l 1,44,-1
 360 396 l 1,45,-1
 348 396 l 1,46,-1
 249 33 l 1,47,-1
 41 -4 l 1,0,-1
EndSplineSet
Validated: 1
EndChar

StartChar: X
Encoding: 88 88 191
Width: 411
GlyphClass: 2
Flags: W
AnchorPoint: "Anchor-7" 0 0 basechar 0
AnchorPoint: "Anchor-6" 332 721 basechar 0
AnchorPoint: "Anchor-5" 0 0 basechar 0
AnchorPoint: "Anchor-4" 206 0 basechar 0
LayerCount: 2
Fore
SplineSet
412 42 m 128,-1,1
 400 39 400 39 382 34 c 128,-1,2
 364 29 364 29 342.5 23 c 128,-1,3
 321 17 321 17 300.5 11 c 128,-1,4
 280 5 280 5 262 -0.5 c 128,-1,5
 244 -6 244 -6 234 -10 c 1,6,7
 231 30 231 30 229 68 c 0,8,9
 227 101 227 101 224.5 134 c 128,-1,10
 222 167 222 167 221 189 c 1,11,12
 212 167 212 167 197.5 134 c 128,-1,13
 183 101 183 101 169 69 c 0,14,15
 152 32 152 32 134 -6 c 1,16,-1
 -36 9 l 1,17,18
 14 98 14 98 64 185 c 128,-1,19
 114 272 114 272 156 367 c 1,20,21
 150 412 150 412 144.5 447 c 128,-1,22
 139 482 139 482 132 516 c 128,-1,23
 125 550 125 550 117 584.5 c 128,-1,24
 109 619 109 619 101 663 c 1,25,-1
 261 729 l 1,26,27
 266 682 266 682 272.5 625 c 128,-1,28
 279 568 279 568 284 520 c 1,29,30
 307 570 307 570 329.5 620 c 128,-1,31
 352 670 352 670 376 719 c 1,32,-1
 521 680 l 1,33,34
 495 636 495 636 474 599 c 128,-1,35
 453 562 453 562 434 525 c 128,-1,36
 415 488 415 488 396 449.5 c 128,-1,37
 377 411 377 411 355 364 c 1,38,39
 361 320 361 320 369 281 c 128,-1,40
 377 242 377 242 386.5 204 c 128,-1,41
 396 166 396 166 405.5 127.5 c 128,-1,42
 415 89 415 89 426 46 c 0,43,0
 424 45 424 45 412 42 c 128,-1,1
EndSplineSet
Validated: 1
EndChar

StartChar: Y
Encoding: 89 89 192
Width: 384
GlyphClass: 2
Flags: W
AnchorPoint: "Anchor-7" 0 0 basechar 0
AnchorPoint: "Anchor-6" 350 721 basechar 0
AnchorPoint: "Anchor-5" 0 0 basechar 0
AnchorPoint: "Anchor-4" 192 0 basechar 0
LayerCount: 2
Fore
SplineSet
77 15 m 1,0,-1
 123 216 l 1,1,2
 123 259 123 259 121.5 309.5 c 128,-1,3
 120 360 120 360 117 411 c 128,-1,4
 114 462 114 462 111 509.5 c 128,-1,5
 108 557 108 557 106 593.5 c 128,-1,6
 104 630 104 630 102 652 c 128,-1,7
 100 674 100 674 100 674 c 1,8,-1
 263 736 l 1,9,-1
 263 614 l 2,10,11
 263 589 263 589 263 563 c 128,-1,12
 263 537 263 537 262.5 512 c 128,-1,13
 262 487 262 487 262 465 c 128,-1,14
 262 443 262 443 262 428 c 1,15,16
 275 462 275 462 293.5 512 c 128,-1,17
 312 562 312 562 328 609 c 0,18,19
 347 664 347 664 367 725 c 1,20,-1
 522 690 l 1,21,22
 479 604 479 604 438 519 c 0,23,24
 421 482 421 482 402 442.5 c 128,-1,25
 383 403 383 403 364 363.5 c 128,-1,26
 345 324 345 324 327 287 c 128,-1,27
 309 250 309 250 294 218 c 1,28,29
 289 192 289 192 281.5 161 c 128,-1,30
 274 130 274 130 267 102 c 0,31,32
 258 69 258 69 248 36 c 1,33,-1
 77 15 l 1,0,-1
EndSplineSet
Validated: 1
EndChar

StartChar: Z
Encoding: 90 90 201
Width: 431
GlyphClass: 2
Flags: W
AnchorPoint: "Anchor-7" 0 0 basechar 0
AnchorPoint: "Anchor-6" 383 721 basechar 0
AnchorPoint: "Anchor-5" 0 0 basechar 0
AnchorPoint: "Anchor-4" 216 0 basechar 0
LayerCount: 2
Fore
SplineSet
393 39 m 128,-1,1
 364 38 364 38 324.5 36 c 128,-1,2
 285 34 285 34 239 31 c 128,-1,3
 193 28 193 28 149 24.5 c 128,-1,4
 105 21 105 21 67.5 17 c 128,-1,5
 30 13 30 13 8 9 c 1,6,-1
 9 155 l 1,7,-1
 293 542 l 1,8,9
 276 542 276 542 245 538.5 c 128,-1,10
 214 535 214 535 182.5 531 c 128,-1,11
 151 527 151 527 128 523 c 2,12,-1
 104 521 l 1,13,-1
 123 678 l 1,14,-1
 532 707 l 1,15,-1
 506 569 l 1,16,-1
 233 181 l 1,17,18
 253 181 253 181 286.5 183 c 128,-1,19
 320 185 320 185 356 187 c 128,-1,20
 392 189 392 189 434 192 c 1,21,-1
 431 40 l 1,22,0
 422 40 422 40 393 39 c 128,-1,1
EndSplineSet
Validated: 1
EndChar

StartChar: a
Encoding: 97 97 205
Width: 433
GlyphClass: 2
Flags: W
AnchorPoint: "Anchor-7" 0 0 basechar 0
AnchorPoint: "Anchor-6" 317 750 basechar 0
AnchorPoint: "Anchor-5" 441 10 basechar 0
AnchorPoint: "Anchor-4" 188 -10 basechar 0
LayerCount: 2
Fore
SplineSet
313 11 m 128,-1,1
 283 6 283 6 259 2 c 1,2,3
 263 35 263 35 267 67 c 0,4,5
 270 95 270 95 272.5 123 c 128,-1,6
 275 151 275 151 277 171 c 1,7,-1
 190 171 l 1,8,-1
 150 27 l 1,9,10
 128 24 128 24 98 20.5 c 128,-1,11
 68 17 68 17 42 14 c 0,12,13
 10 10 10 10 -21 6 c 1,14,15
 19 139 19 139 58 268 c 0,16,17
 74 322 74 322 91.5 381 c 128,-1,18
 109 440 109 440 126.5 498.5 c 128,-1,19
 144 557 144 557 160 611 c 128,-1,20
 176 665 176 665 188 710 c 1,21,22
 256 715 256 715 326.5 722 c 128,-1,23
 397 729 397 729 464 741 c 1,24,25
 461 709 461 709 457.5 661.5 c 128,-1,26
 454 614 454 614 451 558 c 128,-1,27
 448 502 448 502 445 441 c 128,-1,28
 442 380 442 380 439 321 c 0,29,30
 434 183 434 183 428 28 c 1,31,32
 398 23 398 23 368 20 c 0,33,0
 343 16 343 16 313 11 c 128,-1,1
214 271 m 2,34,35
 218 271 218 271 228.5 271.5 c 128,-1,36
 239 272 239 272 250.5 272.5 c 128,-1,37
 262 273 262 273 272 273.5 c 128,-1,38
 282 274 282 274 286 275 c 1,39,40
 286 281 286 281 287.5 295.5 c 128,-1,41
 289 310 289 310 290.5 328.5 c 128,-1,42
 292 347 292 347 294 369 c 128,-1,43
 296 391 296 391 298 412 c 0,44,45
 302 463 302 463 308 522 c 2,46,-1
 314 609 l 1,47,-1
 299 608 l 1,48,-1
 276 522 l 1,49,-1
 214 271 l 2,34,35
EndSplineSet
Validated: 1
Substitution2: "Single Substitution lookup 19 subtable" ordfeminine
Substitution2: "'aalt' Access All Alternates in Latin lookup 0 subtable" ordfeminine
EndChar

StartChar: uni1EA5
Encoding: 7845 7845 214
Width: 433
GlyphClass: 2
Flags: W
AnchorPoint: "Anchor-7" 0 0 basechar 0
AnchorPoint: "Anchor-6" 429 1145 basechar 0
AnchorPoint: "Anchor-5" 441 10 basechar 0
AnchorPoint: "Anchor-4" 0 0 basechar 0
LayerCount: 2
Fore
SplineSet
313 11 m 128,-1,1
 283 6 283 6 259 2 c 1,2,3
 263 35 263 35 267 67 c 0,4,5
 270 95 270 95 272.5 123 c 128,-1,6
 275 151 275 151 277 171 c 1,7,-1
 190 171 l 1,8,-1
 150 27 l 1,9,10
 128 24 128 24 98 20.5 c 128,-1,11
 68 17 68 17 42 14 c 0,12,13
 10 10 10 10 -21 6 c 1,14,15
 19 139 19 139 58 268 c 0,16,17
 74 322 74 322 91.5 381 c 128,-1,18
 109 440 109 440 126.5 498.5 c 128,-1,19
 144 557 144 557 160 611 c 128,-1,20
 176 665 176 665 188 710 c 1,21,22
 256 715 256 715 326.5 722 c 128,-1,23
 397 729 397 729 464 741 c 1,24,25
 461 709 461 709 457.5 661.5 c 128,-1,26
 454 614 454 614 451 558 c 128,-1,27
 448 502 448 502 445 441 c 128,-1,28
 442 380 442 380 439 321 c 0,29,30
 434 183 434 183 428 28 c 1,31,32
 398 23 398 23 368 20 c 0,33,0
 343 16 343 16 313 11 c 128,-1,1
214 271 m 2,34,35
 218 271 218 271 228.5 271.5 c 128,-1,36
 239 272 239 272 250.5 272.5 c 128,-1,37
 262 273 262 273 272 273.5 c 128,-1,38
 282 274 282 274 286 275 c 1,39,40
 286 281 286 281 287.5 295.5 c 128,-1,41
 289 310 289 310 290.5 328.5 c 128,-1,42
 292 347 292 347 294 369 c 128,-1,43
 296 391 296 391 298 412 c 0,44,45
 302 463 302 463 308 522 c 2,46,-1
 314 609 l 1,47,-1
 299 608 l 1,48,-1
 276 522 l 1,49,-1
 214 271 l 2,34,35
336 861 m 128,-1,51
 321 845 321 845 306 828 c 128,-1,52
 291 811 291 811 276 795 c 128,-1,53
 261 779 261 779 251 768 c 1,54,55
 238 779 238 779 228 788.5 c 128,-1,56
 218 798 218 798 212 806 c 0,57,58
 203 815 203 815 197 823 c 1,59,60
 225 864 225 864 255 903 c 0,61,62
 280 936 280 936 309.5 972 c 128,-1,63
 339 1008 339 1008 365 1034 c 1,64,65
 404 1028 404 1028 419.5 1029 c 128,-1,66
 435 1030 435 1030 437 1028 c 0,67,68
 445 1001 445 1001 454.5 966 c 128,-1,69
 464 931 464 931 473 900 c 0,70,71
 484 863 484 863 495 826 c 1,72,73
 483 816 483 816 471 806 c 0,74,75
 461 797 461 797 448 787.5 c 128,-1,76
 435 778 435 778 423 769 c 1,77,-1
 362 887 l 1,78,50
 351 877 351 877 336 861 c 128,-1,51
580.5 957 m 128,-1,80
 537 941 537 941 499 927 c 1,81,82
 498 934 498 934 498 940 c 128,-1,83
 498 946 498 946 498 952 c 0,84,85
 498 962 498 962 498.5 972.5 c 128,-1,86
 499 983 499 983 499 995 c 1,87,88
 542 1039 542 1039 581 1074 c 128,-1,89
 620 1109 620 1109 653 1146 c 1,90,91
 657 1103 657 1103 657 1065.5 c 128,-1,92
 657 1028 657 1028 663 988 c 1,93,79
 624 973 624 973 580.5 957 c 128,-1,80
EndSplineSet
Validated: 33
EndChar

StartChar: uni1EA7
Encoding: 7847 7847 216
Width: 433
GlyphClass: 2
Flags: W
AnchorPoint: "Anchor-7" 0 0 basechar 0
AnchorPoint: "Anchor-6" 297 1155 basechar 0
AnchorPoint: "Anchor-5" 441 10 basechar 0
AnchorPoint: "Anchor-4" 0 0 basechar 0
LayerCount: 2
Fore
SplineSet
313 11 m 128,-1,1
 283 6 283 6 259 2 c 1,2,3
 263 35 263 35 267 67 c 0,4,5
 270 95 270 95 272.5 123 c 128,-1,6
 275 151 275 151 277 171 c 1,7,-1
 190 171 l 1,8,-1
 150 27 l 1,9,10
 128 24 128 24 98 20.5 c 128,-1,11
 68 17 68 17 42 14 c 0,12,13
 10 10 10 10 -21 6 c 1,14,15
 19 139 19 139 58 268 c 0,16,17
 74 322 74 322 91.5 381 c 128,-1,18
 109 440 109 440 126.5 498.5 c 128,-1,19
 144 557 144 557 160 611 c 128,-1,20
 176 665 176 665 188 710 c 1,21,22
 256 715 256 715 326.5 722 c 128,-1,23
 397 729 397 729 464 741 c 1,24,25
 461 709 461 709 457.5 661.5 c 128,-1,26
 454 614 454 614 451 558 c 128,-1,27
 448 502 448 502 445 441 c 128,-1,28
 442 380 442 380 439 321 c 0,29,30
 434 183 434 183 428 28 c 1,31,32
 398 23 398 23 368 20 c 0,33,0
 343 16 343 16 313 11 c 128,-1,1
214 271 m 2,34,35
 218 271 218 271 228.5 271.5 c 128,-1,36
 239 272 239 272 250.5 272.5 c 128,-1,37
 262 273 262 273 272 273.5 c 128,-1,38
 282 274 282 274 286 275 c 1,39,40
 286 281 286 281 287.5 295.5 c 128,-1,41
 289 310 289 310 290.5 328.5 c 128,-1,42
 292 347 292 347 294 369 c 128,-1,43
 296 391 296 391 298 412 c 0,44,45
 302 463 302 463 308 522 c 2,46,-1
 314 609 l 1,47,-1
 299 608 l 1,48,-1
 276 522 l 1,49,-1
 214 271 l 2,34,35
330 840 m 128,-1,51
 315 824 315 824 300 807 c 128,-1,52
 285 790 285 790 270 774 c 128,-1,53
 255 758 255 758 245 747 c 1,54,55
 232 758 232 758 222 767.5 c 128,-1,56
 212 777 212 777 206 785 c 0,57,58
 197 794 197 794 191 802 c 1,59,60
 219 843 219 843 249 882 c 0,61,62
 274 915 274 915 303.5 951 c 128,-1,63
 333 987 333 987 359 1013 c 1,64,65
 398 1007 398 1007 413.5 1008 c 128,-1,66
 429 1009 429 1009 431 1007 c 0,67,68
 439 980 439 980 448.5 945 c 128,-1,69
 458 910 458 910 467 879 c 0,70,71
 478 842 478 842 489 805 c 1,72,73
 477 795 477 795 465 785 c 0,74,75
 455 776 455 776 442 766.5 c 128,-1,76
 429 757 429 757 417 748 c 1,77,-1
 356 866 l 1,78,50
 345 856 345 856 330 840 c 128,-1,51
272 952 m 1,79,80
 239 960 239 960 208 968 c 0,81,82
 181 974 181 974 153 981.5 c 128,-1,83
 125 989 125 989 106 995 c 1,84,85
 110 1014 110 1014 115 1041 c 128,-1,86
 120 1068 120 1068 125 1094 c 0,87,88
 131 1124 131 1124 137 1155 c 1,89,90
 162 1128 162 1128 188 1102 c 0,91,92
 209 1079 209 1079 233.5 1052.5 c 128,-1,93
 258 1026 258 1026 277 1005 c 1,94,-1
 272 952 l 1,79,80
EndSplineSet
Validated: 33
EndChar

StartChar: aogonek
Encoding: 261 261 226
Width: 433
GlyphClass: 2
Flags: W
AnchorPoint: "Anchor-7" 0 0 basechar 0
AnchorPoint: "Anchor-6" 317 750 basechar 0
AnchorPoint: "Anchor-5" 441 10 basechar 0
AnchorPoint: "Anchor-4" 188 -10 basechar 0
LayerCount: 2
Fore
SplineSet
313 11 m 128,-1,1
 283 6 283 6 259 2 c 1,2,3
 263 35 263 35 267 67 c 0,4,5
 270 95 270 95 272.5 123 c 128,-1,6
 275 151 275 151 277 171 c 1,7,-1
 190 171 l 1,8,-1
 150 27 l 1,9,10
 128 24 128 24 98 20.5 c 128,-1,11
 68 17 68 17 42 14 c 0,12,13
 10 10 10 10 -21 6 c 1,14,15
 19 139 19 139 58 268 c 0,16,17
 74 322 74 322 91.5 381 c 128,-1,18
 109 440 109 440 126.5 498.5 c 128,-1,19
 144 557 144 557 160 611 c 128,-1,20
 176 665 176 665 188 710 c 1,21,22
 256 715 256 715 326.5 722 c 128,-1,23
 397 729 397 729 464 741 c 1,24,25
 461 709 461 709 457.5 661.5 c 128,-1,26
 454 614 454 614 451 558 c 128,-1,27
 448 502 448 502 445 441 c 128,-1,28
 442 380 442 380 439 321 c 0,29,30
 434 183 434 183 428 28 c 1,31,32
 398 23 398 23 368 20 c 0,33,0
 343 16 343 16 313 11 c 128,-1,1
214 271 m 2,34,35
 218 271 218 271 228.5 271.5 c 128,-1,36
 239 272 239 272 250.5 272.5 c 128,-1,37
 262 273 262 273 272 273.5 c 128,-1,38
 282 274 282 274 286 275 c 1,39,40
 286 281 286 281 287.5 295.5 c 128,-1,41
 289 310 289 310 290.5 328.5 c 128,-1,42
 292 347 292 347 294 369 c 128,-1,43
 296 391 296 391 298 412 c 0,44,45
 302 463 302 463 308 522 c 2,46,-1
 314 609 l 1,47,-1
 299 608 l 1,48,-1
 276 522 l 1,49,-1
 214 271 l 2,34,35
402.5 -156 m 128,-1,51
 380 -165 380 -165 357 -165 c 0,52,53
 327 -165 327 -165 302.5 -157.5 c 128,-1,54
 278 -150 278 -150 260 -137 c 128,-1,55
 242 -124 242 -124 232 -106.5 c 128,-1,56
 222 -89 222 -89 222 -68 c 0,57,58
 222 -29 222 -29 262 10 c 0,59,60
 263 10 263 10 272 11.5 c 128,-1,61
 281 13 281 13 293 15 c 128,-1,62
 305 17 305 17 322 19 c 1,63,64
 318 1 318 1 318 -11 c 0,65,66
 318 -36 318 -36 332.5 -52 c 128,-1,67
 347 -68 347 -68 368 -68 c 0,68,69
 396 -68 396 -68 421 -40 c 1,70,-1
 441 -128 l 1,71,50
 425 -147 425 -147 402.5 -156 c 128,-1,51
EndSplineSet
Validated: 5
EndChar

StartChar: ae
Encoding: 230 230 230
Width: 516
GlyphClass: 2
Flags: W
AnchorPoint: "Anchor-7" 0 0 basechar 0
AnchorPoint: "Anchor-6" 459 718 basechar 0
AnchorPoint: "Anchor-5" 0 0 basechar 0
AnchorPoint: "Anchor-4" 258 0 basechar 0
LayerCount: 2
Fore
SplineSet
246 -1 m 1,0,-1
 246 2 l 1,1,-1
 244 2 l 1,2,3
 251 35 251 35 257 65 c 128,-1,4
 263 95 263 95 268.5 123 c 128,-1,5
 274 151 274 151 277 171 c 1,6,-1
 204 171 l 1,7,-1
 152 27 l 1,8,9
 130 24 130 24 98.5 20.5 c 128,-1,10
 67 17 67 17 39 14 c 0,11,12
 6 10 6 10 -29 6 c 1,13,14
 23 139 23 139 73 268 c 0,15,16
 95 322 95 322 117.5 381 c 128,-1,17
 140 440 140 440 162 498.5 c 128,-1,18
 184 557 184 557 204 611 c 128,-1,19
 224 665 224 665 240 710 c 1,20,21
 274 713 274 713 303.5 714 c 128,-1,22
 333 715 333 715 363 715.5 c 128,-1,23
 393 716 393 716 426 717 c 128,-1,24
 459 718 459 718 501 722 c 2,25,-1
 605 730 l 1,26,-1
 566 609 l 1,27,28
 560 610 560 610 550 611 c 128,-1,29
 540 612 540 612 528 612.5 c 128,-1,30
 516 613 516 613 500 613 c 1,31,-1
 475 434 l 1,32,33
 488 436 488 436 501 437 c 0,34,35
 512 438 512 438 525 438 c 128,-1,36
 538 438 538 438 549 439 c 1,37,38
 545 411 545 411 541.5 384 c 128,-1,39
 538 357 538 357 533 329 c 1,40,41
 522 328 522 328 509.5 327.5 c 128,-1,42
 497 327 497 327 486 326 c 0,43,44
 474 325 474 325 461 324 c 1,45,-1
 435 141 l 1,46,-1
 519 147 l 1,47,-1
 509 33 l 1,48,-1
 246 -1 l 1,0,-1
236 271 m 2,49,50
 240 271 240 271 248.5 271.5 c 128,-1,51
 257 272 257 272 265.5 272.5 c 128,-1,52
 274 273 274 273 282.5 273.5 c 128,-1,53
 291 274 291 274 295 275 c 0,54,55
 296 284 296 284 300 306 c 128,-1,56
 304 328 304 328 309 358 c 128,-1,57
 314 388 314 388 320.5 422.5 c 128,-1,58
 327 457 327 457 333.5 491.5 c 128,-1,59
 340 526 340 526 346 557 c 128,-1,60
 352 588 352 588 356 609 c 1,61,-1
 346 608 l 1,62,-1
 313 522 l 1,63,-1
 236 271 l 2,49,50
EndSplineSet
Validated: 1
EndChar

StartChar: b
Encoding: 98 98 232
Width: 428
GlyphClass: 2
Flags: W
AnchorPoint: "Anchor-7" 0 0 basechar 0
AnchorPoint: "Anchor-6" 358 721 basechar 0
AnchorPoint: "Anchor-5" 0 0 basechar 0
AnchorPoint: "Anchor-4" 214 0 basechar 0
LayerCount: 2
Fore
SplineSet
435 175 m 128,-1,1
 418 140 418 140 389 111.5 c 128,-1,2
 360 83 360 83 321.5 61.5 c 128,-1,3
 283 40 283 40 240.5 25.5 c 128,-1,4
 198 11 198 11 153.5 3.5 c 128,-1,5
 109 -4 109 -4 68 -4 c 0,6,7
 31 -4 31 -4 -1 2 c 1,8,9
 47 177 47 177 75.5 354.5 c 128,-1,10
 104 532 104 532 130 712 c 1,11,12
 182 723 182 723 238 731.5 c 128,-1,13
 294 740 294 740 354 740 c 0,14,15
 379 740 379 740 407 734 c 128,-1,16
 435 728 435 728 458 712 c 128,-1,17
 481 696 481 696 496.5 670 c 128,-1,18
 512 644 512 644 512 604 c 0,19,20
 512 566 512 566 499.5 533 c 128,-1,21
 487 500 487 500 467.5 473 c 128,-1,22
 448 446 448 446 423 426.5 c 128,-1,23
 398 407 398 407 372 397 c 1,24,25
 385 390 385 390 399 377 c 128,-1,26
 413 364 413 364 425 346.5 c 128,-1,27
 437 329 437 329 444.5 305 c 128,-1,28
 452 281 452 281 452 251 c 0,29,0
 452 210 452 210 435 175 c 128,-1,1
215.5 312.5 m 128,-1,31
 212 294 212 294 209 277 c 128,-1,32
 206 260 206 260 202.5 241.5 c 128,-1,33
 199 223 199 223 195 198 c 1,34,35
 214 200 214 200 238 205 c 128,-1,36
 262 210 262 210 284 220.5 c 128,-1,37
 306 231 306 231 321 248.5 c 128,-1,38
 336 266 336 266 336 291 c 0,39,40
 336 309 336 309 326.5 321 c 128,-1,41
 317 333 317 333 302.5 341 c 128,-1,42
 288 349 288 349 271 352.5 c 128,-1,43
 254 356 254 356 239 356 c 0,44,45
 234 356 234 356 230.5 356 c 128,-1,46
 227 356 227 356 223 355 c 0,47,30
 219 331 219 331 215.5 312.5 c 128,-1,31
263.5 571 m 128,-1,49
 261 556 261 556 258 539.5 c 128,-1,50
 255 523 255 523 251.5 507 c 128,-1,51
 248 491 248 491 246 479 c 1,52,53
 268 483 268 483 290 490 c 128,-1,54
 312 497 312 497 329.5 505.5 c 128,-1,55
 347 514 347 514 357.5 524 c 128,-1,56
 368 534 368 534 368 546 c 0,57,58
 368 561 368 561 359 570.5 c 128,-1,59
 350 580 350 580 335.5 586 c 128,-1,60
 321 592 321 592 305.5 594.5 c 128,-1,61
 290 597 290 597 278 597 c 2,62,-1
 268 597 l 1,63,48
 266 586 266 586 263.5 571 c 128,-1,49
EndSplineSet
Validated: 1
EndChar

StartChar: c
Encoding: 99 99 233
Width: 414
GlyphClass: 2
Flags: W
AnchorPoint: "Anchor-7" 0 0 basechar 0
AnchorPoint: "Anchor-6" 374 721 basechar 0
AnchorPoint: "Anchor-5" 0 0 basechar 0
AnchorPoint: "Anchor-4" 207 0 basechar 0
LayerCount: 2
Fore
SplineSet
373.5 119.5 m 128,-1,1
 344 79 344 79 311.5 51.5 c 128,-1,2
 279 24 279 24 246 11 c 128,-1,3
 213 -2 213 -2 182 -2 c 256,4,5
 151 -2 151 -2 125.5 12 c 128,-1,6
 100 26 100 26 81 54 c 128,-1,7
 62 82 62 82 50.5 123 c 128,-1,8
 39 164 39 164 39 219 c 0,9,10
 39 313 39 313 65 404.5 c 128,-1,11
 91 496 91 496 138 569 c 128,-1,12
 185 642 185 642 249.5 686.5 c 128,-1,13
 314 731 314 731 392 731 c 0,14,15
 416 731 416 731 438 721 c 128,-1,16
 460 711 460 711 476 693 c 128,-1,17
 492 675 492 675 501.5 649 c 128,-1,18
 511 623 511 623 511 591 c 0,19,20
 511 585 511 585 511 578.5 c 128,-1,21
 511 572 511 572 510 565 c 1,22,-1
 379 530 l 1,23,24
 367 555 367 555 351 555 c 256,25,26
 335 555 335 555 317.5 536.5 c 128,-1,27
 300 518 300 518 283 488.5 c 128,-1,28
 266 459 266 459 250 422.5 c 128,-1,29
 234 386 234 386 222 349 c 128,-1,30
 210 312 210 312 202.5 278.5 c 128,-1,31
 195 245 195 245 195 224 c 0,32,33
 195 192 195 192 203.5 179 c 128,-1,34
 212 166 212 166 226 166 c 0,35,36
 237 166 237 166 251 174.5 c 128,-1,37
 265 183 265 183 277 196.5 c 128,-1,38
 289 210 289 210 299 227 c 128,-1,39
 309 244 309 244 313 261 c 1,40,-1
 427 215 l 1,41,0
 403 160 403 160 373.5 119.5 c 128,-1,1
EndSplineSet
Validated: 1
EndChar

StartChar: ccedilla
Encoding: 231 231 236
Width: 414
GlyphClass: 2
Flags: W
AnchorPoint: "Anchor-7" 0 0 basechar 0
AnchorPoint: "Anchor-6" 374 721 basechar 0
AnchorPoint: "Anchor-5" 0 0 basechar 0
AnchorPoint: "Anchor-4" 207 -165 basechar 0
LayerCount: 2
Fore
SplineSet
373.5 119.5 m 128,-1,1
 344 79 344 79 311.5 51.5 c 128,-1,2
 279 24 279 24 246 11 c 128,-1,3
 213 -2 213 -2 182 -2 c 256,4,5
 151 -2 151 -2 125.5 12 c 128,-1,6
 100 26 100 26 81 54 c 128,-1,7
 62 82 62 82 50.5 123 c 128,-1,8
 39 164 39 164 39 219 c 0,9,10
 39 313 39 313 65 404.5 c 128,-1,11
 91 496 91 496 138 569 c 128,-1,12
 185 642 185 642 249.5 686.5 c 128,-1,13
 314 731 314 731 392 731 c 0,14,15
 416 731 416 731 438 721 c 128,-1,16
 460 711 460 711 476 693 c 128,-1,17
 492 675 492 675 501.5 649 c 128,-1,18
 511 623 511 623 511 591 c 0,19,20
 511 585 511 585 511 578.5 c 128,-1,21
 511 572 511 572 510 565 c 1,22,-1
 379 530 l 1,23,24
 367 555 367 555 351 555 c 256,25,26
 335 555 335 555 317.5 536.5 c 128,-1,27
 300 518 300 518 283 488.5 c 128,-1,28
 266 459 266 459 250 422.5 c 128,-1,29
 234 386 234 386 222 349 c 128,-1,30
 210 312 210 312 202.5 278.5 c 128,-1,31
 195 245 195 245 195 224 c 0,32,33
 195 192 195 192 203.5 179 c 128,-1,34
 212 166 212 166 226 166 c 0,35,36
 237 166 237 166 251 174.5 c 128,-1,37
 265 183 265 183 277 196.5 c 128,-1,38
 289 210 289 210 299 227 c 128,-1,39
 309 244 309 244 313 261 c 1,40,-1
 427 215 l 1,41,0
 403 160 403 160 373.5 119.5 c 128,-1,1
306.5 -106.5 m 128,-1,43
 296 -124 296 -124 278 -137 c 128,-1,44
 260 -150 260 -150 235.5 -157.5 c 128,-1,45
 211 -165 211 -165 182 -165 c 0,46,47
 158 -165 158 -165 135.5 -156 c 128,-1,48
 113 -147 113 -147 98 -128 c 1,49,-1
 117 -40 l 1,50,51
 143 -68 143 -68 170 -68 c 0,52,53
 192 -68 192 -68 206.5 -52 c 128,-1,54
 221 -36 221 -36 221 -11 c 0,55,56
 221 1 221 1 216 19 c 1,57,58
 234 17 234 17 245.5 15 c 128,-1,59
 257 13 257 13 266.5 11.5 c 128,-1,60
 276 10 276 10 277 10 c 0,61,62
 317 -29 317 -29 317 -68 c 0,63,42
 317 -89 317 -89 306.5 -106.5 c 128,-1,43
EndSplineSet
Validated: 5
EndChar

StartChar: d
Encoding: 100 100 239
Width: 441
GlyphClass: 2
Flags: W
AnchorPoint: "Anchor-7" 422 721 basechar 0
AnchorPoint: "Anchor-6" 334 721 basechar 0
AnchorPoint: "Anchor-5" 0 0 basechar 0
AnchorPoint: "Anchor-4" 221 0 basechar 0
LayerCount: 2
Fore
SplineSet
494 400.5 m 128,-1,1
 479 342 479 342 452 284.5 c 128,-1,2
 425 227 425 227 385.5 174.5 c 128,-1,3
 346 122 346 122 296 82.5 c 128,-1,4
 246 43 246 43 186.5 19 c 128,-1,5
 127 -5 127 -5 60 -5 c 0,6,7
 46 -5 46 -5 32 -3.5 c 128,-1,8
 18 -2 18 -2 4 0 c 1,9,10
 31 138 31 138 57 269 c 0,11,12
 67 324 67 324 78 383.5 c 128,-1,13
 89 443 89 443 99 501 c 128,-1,14
 109 559 109 559 118.5 612 c 128,-1,15
 128 665 128 665 134 708 c 1,16,17
 177 716 177 716 221 723 c 128,-1,18
 265 730 265 730 311 730 c 0,19,20
 365 730 365 730 402.5 713 c 128,-1,21
 440 696 440 696 463.5 666 c 128,-1,22
 487 636 487 636 498 596 c 128,-1,23
 509 556 509 556 509 511 c 0,24,0
 509 459 509 459 494 400.5 c 128,-1,1
250 476 m 128,-1,26
 238 422 238 422 226 367 c 128,-1,27
 214 312 214 312 202 252 c 128,-1,28
 190 192 190 192 179 121 c 1,29,30
 203 137 203 137 225.5 164.5 c 128,-1,31
 248 192 248 192 268 228 c 128,-1,32
 288 264 288 264 304.5 304 c 128,-1,33
 321 344 321 344 333 382 c 128,-1,34
 345 420 345 420 351.5 453 c 128,-1,35
 358 486 358 486 358 510 c 0,36,37
 358 547 358 547 337.5 568 c 128,-1,38
 317 589 317 589 273 589 c 1,39,25
 262 530 262 530 250 476 c 128,-1,26
EndSplineSet
Validated: 1
EndChar

StartChar: eth
Encoding: 240 240 240
Width: 445
GlyphClass: 2
Flags: W
LayerCount: 2
Fore
SplineSet
489.5 381 m 128,-1,1
 478 324 478 324 456 270 c 128,-1,2
 434 216 434 216 402 167 c 128,-1,3
 370 118 370 118 329.5 81.5 c 128,-1,4
 289 45 289 45 240 23.5 c 128,-1,5
 191 2 191 2 136 2 c 0,6,7
 104 2 104 2 73.5 11.5 c 128,-1,8
 43 21 43 21 13 42 c 1,9,10
 21 81 21 81 30 128 c 0,11,12
 38 168 38 168 49 219.5 c 128,-1,13
 60 271 60 271 70 331 c 1,14,15
 63 330 63 330 56.5 330 c 128,-1,16
 50 330 50 330 45 330 c 2,17,-1
 34 330 l 1,18,-1
 67 436 l 2,19,20
 70 435 70 435 74 435 c 2,21,-1
 90 435 l 1,22,23
 104 509 104 509 116 579.5 c 128,-1,24
 128 650 128 650 136 708 c 1,25,26
 179 716 179 716 223 723 c 128,-1,27
 267 730 267 730 313 730 c 0,28,29
 364 730 364 730 400.5 711.5 c 128,-1,30
 437 693 437 693 459 660.5 c 128,-1,31
 481 628 481 628 491 584.5 c 128,-1,32
 501 541 501 541 501 491 c 0,33,0
 501 438 501 438 489.5 381 c 128,-1,1
193.5 231 m 128,-1,35
 184 180 184 180 171 121 c 1,36,37
 207 143 207 143 239 185.5 c 128,-1,38
 271 228 271 228 296 280 c 128,-1,39
 321 332 321 332 336 387.5 c 128,-1,40
 351 443 351 443 351 490 c 0,41,42
 351 515 351 515 346 536.5 c 128,-1,43
 341 558 341 558 330 574 c 128,-1,44
 319 590 319 590 303 599 c 128,-1,45
 287 608 287 608 266 608 c 1,46,47
 256 563 256 563 247.5 521 c 128,-1,48
 239 479 239 479 231 435 c 1,49,50
 242 435 242 435 252 435.5 c 128,-1,51
 262 436 262 436 270 436 c 256,52,53
 278 436 278 436 286 437 c 1,54,-1
 262 329 l 1,55,-1
 247 329 l 2,56,57
 240 329 240 329 231.5 329.5 c 128,-1,58
 223 330 223 330 213 330 c 1,59,34
 203 282 203 282 193.5 231 c 128,-1,35
EndSplineSet
Validated: 1
EndChar

StartChar: dcroat
Encoding: 273 273 242
Width: 457
GlyphClass: 2
Flags: W
AnchorPoint: "Anchor-7" 438 721 basechar 0
AnchorPoint: "Anchor-6" 350 721 basechar 0
AnchorPoint: "Anchor-5" 0 0 basechar 0
AnchorPoint: "Anchor-4" 237 0 basechar 0
LayerCount: 2
Fore
SplineSet
310 314 m 1,0,1
 293 316 293 316 272 317.5 c 128,-1,2
 251 319 251 319 224 319.5 c 128,-1,3
 197 320 197 320 175 320 c 0,4,5
 157 320 157 320 133.5 319.5 c 128,-1,6
 110 319 110 319 86.5 318 c 128,-1,7
 63 317 63 317 36 317 c 1,8,-1
 84 494 l 1,9,10
 111 493 111 493 135.5 492 c 128,-1,11
 160 491 160 491 185 490.5 c 128,-1,12
 210 490 210 490 228 490 c 0,13,14
 248 490 248 490 257.5 490.5 c 128,-1,15
 267 491 267 491 296.5 491.5 c 128,-1,16
 326 492 326 492 344 493 c 1,17,-1
 310 314 l 1,0,1
510 400.5 m 128,-1,19
 495 342 495 342 468 284.5 c 128,-1,20
 441 227 441 227 401.5 174.5 c 128,-1,21
 362 122 362 122 312 82.5 c 128,-1,22
 262 43 262 43 202.5 19 c 128,-1,23
 143 -5 143 -5 76 -5 c 0,24,25
 62 -5 62 -5 48 -3.5 c 128,-1,26
 34 -2 34 -2 20 0 c 1,27,28
 47 138 47 138 73 269 c 0,29,30
 83 324 83 324 94 383.5 c 128,-1,31
 105 443 105 443 115 501 c 128,-1,32
 125 559 125 559 134.5 612 c 128,-1,33
 144 665 144 665 150 708 c 1,34,35
 193 716 193 716 237 723 c 128,-1,36
 281 730 281 730 327 730 c 0,37,38
 381 730 381 730 418.5 713 c 128,-1,39
 456 696 456 696 479.5 666 c 128,-1,40
 503 636 503 636 514 596 c 128,-1,41
 525 556 525 556 525 511 c 0,42,18
 525 459 525 459 510 400.5 c 128,-1,19
266 476 m 128,-1,44
 254 422 254 422 242 367 c 128,-1,45
 230 312 230 312 218 252 c 128,-1,46
 206 192 206 192 195 121 c 1,47,48
 219 137 219 137 241.5 164.5 c 128,-1,49
 264 192 264 192 284 228 c 128,-1,50
 304 264 304 264 320.5 304 c 128,-1,51
 337 344 337 344 349 382 c 128,-1,52
 361 420 361 420 367.5 453 c 128,-1,53
 374 486 374 486 374 510 c 0,54,55
 374 547 374 547 353.5 568 c 128,-1,56
 333 589 333 589 289 589 c 1,57,43
 278 530 278 530 266 476 c 128,-1,44
EndSplineSet
Validated: 5
EndChar

StartChar: e
Encoding: 101 101 244
Width: 341
GlyphClass: 2
Flags: W
AnchorPoint: "Anchor-7" 0 0 basechar 0
AnchorPoint: "Anchor-6" 309 740 basechar 0
AnchorPoint: "Anchor-5" 325 39 basechar 0
AnchorPoint: "Anchor-4" 171 0 basechar 0
LayerCount: 2
Fore
SplineSet
8 -1 m 1,0,-1
 139 710 l 1,1,-1
 455 737 l 1,2,3
 448 715 448 715 443 692 c 0,4,5
 438 673 438 673 433.5 652.5 c 128,-1,6
 429 632 429 632 426 616 c 1,7,8
 416 615 416 615 397.5 614.5 c 128,-1,9
 379 614 379 614 358 613.5 c 128,-1,10
 337 613 337 613 315.5 613 c 128,-1,11
 294 613 294 613 278 613 c 1,12,-1
 243 434 l 1,13,14
 274 436 274 436 301 437 c 0,15,16
 323 438 323 438 346 438 c 128,-1,17
 369 438 369 438 380 439 c 1,18,19
 376 411 376 411 372.5 384 c 128,-1,20
 369 357 369 357 364 329 c 1,21,22
 354 328 354 328 331.5 327.5 c 128,-1,23
 309 327 309 327 286 326 c 0,24,25
 260 325 260 325 229 324 c 1,26,-1
 195 140 l 1,27,-1
 341 163 l 1,28,-1
 331 49 l 1,29,-1
 8 -1 l 1,0,-1
EndSplineSet
Validated: 1
EndChar

StartChar: uni1EBF
Encoding: 7871 7871 249
Width: 341
GlyphClass: 2
Flags: W
AnchorPoint: "Anchor-7" 0 0 basechar 0
AnchorPoint: "Anchor-6" 421 1135 basechar 0
AnchorPoint: "Anchor-5" 325 39 basechar 0
AnchorPoint: "Anchor-4" 0 0 basechar 0
LayerCount: 2
Fore
SplineSet
8 -1 m 1,0,-1
 139 710 l 1,1,-1
 455 737 l 1,2,3
 448 715 448 715 443 692 c 0,4,5
 438 673 438 673 433.5 652.5 c 128,-1,6
 429 632 429 632 426 616 c 1,7,8
 416 615 416 615 397.5 614.5 c 128,-1,9
 379 614 379 614 358 613.5 c 128,-1,10
 337 613 337 613 315.5 613 c 128,-1,11
 294 613 294 613 278 613 c 1,12,-1
 243 434 l 1,13,14
 274 436 274 436 301 437 c 0,15,16
 323 438 323 438 346 438 c 128,-1,17
 369 438 369 438 380 439 c 1,18,19
 376 411 376 411 372.5 384 c 128,-1,20
 369 357 369 357 364 329 c 1,21,22
 354 328 354 328 331.5 327.5 c 128,-1,23
 309 327 309 327 286 326 c 0,24,25
 260 325 260 325 229 324 c 1,26,-1
 195 140 l 1,27,-1
 341 163 l 1,28,-1
 331 49 l 1,29,-1
 8 -1 l 1,0,-1
328 851 m 128,-1,31
 313 835 313 835 298 818 c 128,-1,32
 283 801 283 801 268 785 c 128,-1,33
 253 769 253 769 243 758 c 1,34,35
 230 769 230 769 220 778.5 c 128,-1,36
 210 788 210 788 204 796 c 0,37,38
 195 805 195 805 189 813 c 1,39,40
 217 854 217 854 247 893 c 0,41,42
 272 926 272 926 301.5 962 c 128,-1,43
 331 998 331 998 357 1024 c 1,44,45
 396 1018 396 1018 411.5 1019 c 128,-1,46
 427 1020 427 1020 429 1018 c 0,47,48
 437 991 437 991 446.5 956 c 128,-1,49
 456 921 456 921 465 890 c 0,50,51
 476 853 476 853 487 816 c 1,52,53
 475 806 475 806 463 796 c 0,54,55
 453 787 453 787 440 777.5 c 128,-1,56
 427 768 427 768 415 759 c 1,57,-1
 354 877 l 1,58,30
 343 867 343 867 328 851 c 128,-1,31
572.5 947 m 128,-1,60
 529 931 529 931 491 917 c 1,61,62
 490 924 490 924 490 930 c 128,-1,63
 490 936 490 936 490 942 c 0,64,65
 490 952 490 952 490.5 962.5 c 128,-1,66
 491 973 491 973 491 985 c 1,67,68
 534 1029 534 1029 573 1064 c 128,-1,69
 612 1099 612 1099 645 1136 c 1,70,71
 649 1093 649 1093 649 1055.5 c 128,-1,72
 649 1018 649 1018 655 978 c 1,73,59
 616 963 616 963 572.5 947 c 128,-1,60
EndSplineSet
Validated: 33
EndChar

StartChar: uni1EC1
Encoding: 7873 7873 251
Width: 341
GlyphClass: 2
Flags: W
AnchorPoint: "Anchor-7" 0 0 basechar 0
AnchorPoint: "Anchor-6" 289 1145 basechar 0
AnchorPoint: "Anchor-5" 325 39 basechar 0
AnchorPoint: "Anchor-4" 0 0 basechar 0
LayerCount: 2
Fore
SplineSet
8 -1 m 1,0,-1
 139 710 l 1,1,-1
 455 737 l 1,2,3
 448 715 448 715 443 692 c 0,4,5
 438 673 438 673 433.5 652.5 c 128,-1,6
 429 632 429 632 426 616 c 1,7,8
 416 615 416 615 397.5 614.5 c 128,-1,9
 379 614 379 614 358 613.5 c 128,-1,10
 337 613 337 613 315.5 613 c 128,-1,11
 294 613 294 613 278 613 c 1,12,-1
 243 434 l 1,13,14
 274 436 274 436 301 437 c 0,15,16
 323 438 323 438 346 438 c 128,-1,17
 369 438 369 438 380 439 c 1,18,19
 376 411 376 411 372.5 384 c 128,-1,20
 369 357 369 357 364 329 c 1,21,22
 354 328 354 328 331.5 327.5 c 128,-1,23
 309 327 309 327 286 326 c 0,24,25
 260 325 260 325 229 324 c 1,26,-1
 195 140 l 1,27,-1
 341 163 l 1,28,-1
 331 49 l 1,29,-1
 8 -1 l 1,0,-1
322 830 m 128,-1,31
 307 814 307 814 292 797 c 128,-1,32
 277 780 277 780 262 764 c 128,-1,33
 247 748 247 748 237 737 c 1,34,35
 224 748 224 748 214 757.5 c 128,-1,36
 204 767 204 767 198 775 c 0,37,38
 189 784 189 784 183 792 c 1,39,40
 211 833 211 833 241 872 c 0,41,42
 266 905 266 905 295.5 941 c 128,-1,43
 325 977 325 977 351 1003 c 1,44,45
 390 997 390 997 405.5 998 c 128,-1,46
 421 999 421 999 423 997 c 0,47,48
 431 970 431 970 440.5 935 c 128,-1,49
 450 900 450 900 459 869 c 0,50,51
 470 832 470 832 481 795 c 1,52,53
 469 785 469 785 457 775 c 0,54,55
 447 766 447 766 434 756.5 c 128,-1,56
 421 747 421 747 409 738 c 1,57,-1
 348 856 l 1,58,30
 337 846 337 846 322 830 c 128,-1,31
264 942 m 1,59,60
 231 950 231 950 200 958 c 0,61,62
 173 964 173 964 145 971.5 c 128,-1,63
 117 979 117 979 98 985 c 1,64,65
 102 1004 102 1004 107 1031 c 128,-1,66
 112 1058 112 1058 117 1084 c 0,67,68
 123 1114 123 1114 129 1145 c 1,69,70
 154 1118 154 1118 180 1092 c 0,71,72
 201 1069 201 1069 225.5 1042.5 c 128,-1,73
 250 1016 250 1016 269 995 c 1,74,-1
 264 942 l 1,59,60
EndSplineSet
Validated: 33
EndChar

StartChar: eogonek
Encoding: 281 281 262
Width: 341
GlyphClass: 2
Flags: W
AnchorPoint: "Anchor-7" 0 0 basechar 0
AnchorPoint: "Anchor-6" 309 740 basechar 0
AnchorPoint: "Anchor-5" 325 39 basechar 0
AnchorPoint: "Anchor-4" 171 0 basechar 0
LayerCount: 2
Fore
SplineSet
8 -1 m 1,0,-1
 139 710 l 1,1,-1
 455 737 l 1,2,3
 448 715 448 715 443 692 c 0,4,5
 438 673 438 673 433.5 652.5 c 128,-1,6
 429 632 429 632 426 616 c 1,7,8
 416 615 416 615 397.5 614.5 c 128,-1,9
 379 614 379 614 358 613.5 c 128,-1,10
 337 613 337 613 315.5 613 c 128,-1,11
 294 613 294 613 278 613 c 1,12,-1
 243 434 l 1,13,14
 274 436 274 436 301 437 c 0,15,16
 323 438 323 438 346 438 c 128,-1,17
 369 438 369 438 380 439 c 1,18,19
 376 411 376 411 372.5 384 c 128,-1,20
 369 357 369 357 364 329 c 1,21,22
 354 328 354 328 331.5 327.5 c 128,-1,23
 309 327 309 327 286 326 c 0,24,25
 260 325 260 325 229 324 c 1,26,-1
 195 140 l 1,27,-1
 341 163 l 1,28,-1
 331 49 l 1,29,-1
 8 -1 l 1,0,-1
286.5 -127 m 128,-1,31
 264 -136 264 -136 241 -136 c 0,32,33
 211 -136 211 -136 186.5 -128.5 c 128,-1,34
 162 -121 162 -121 144 -108 c 128,-1,35
 126 -95 126 -95 116 -77.5 c 128,-1,36
 106 -60 106 -60 106 -39 c 0,37,38
 106 0 106 0 146 39 c 0,39,40
 147 39 147 39 156 40.5 c 128,-1,41
 165 42 165 42 177 44 c 128,-1,42
 189 46 189 46 206 48 c 1,43,44
 202 30 202 30 202 18 c 0,45,46
 202 -7 202 -7 216.5 -23 c 128,-1,47
 231 -39 231 -39 252 -39 c 0,48,49
 280 -39 280 -39 305 -11 c 1,50,-1
 325 -99 l 1,51,30
 309 -118 309 -118 286.5 -127 c 128,-1,31
EndSplineSet
Validated: 5
EndChar

StartChar: uni0259
Encoding: 601 601 264
Width: 585
GlyphClass: 2
Flags: W
LayerCount: 2
Fore
SplineSet
475 718 m 128,-1,1
 533 685 533 685 568.5 614 c 128,-1,2
 604 543 604 543 604 436 c 0,3,4
 604 326 604 326 562.5 225 c 128,-1,5
 521 124 521 124 447 62 c 128,-1,6
 373 0 373 0 280 0 c 0,7,8
 220 0 220 0 172.5 34 c 128,-1,9
 125 68 125 68 99 127 c 128,-1,10
 73 186 73 186 73 258 c 0,11,12
 73 340 73 340 108 430 c 1,13,-1
 433 430 l 1,14,15
 428 498 428 498 404.5 538 c 128,-1,16
 381 578 381 578 346 578 c 0,17,18
 325 578 325 578 297.5 554.5 c 128,-1,19
 270 531 270 531 265 513 c 1,20,-1
 158 621 l 1,21,22
 172 659 172 659 204 689 c 128,-1,23
 236 719 236 719 274.5 735 c 128,-1,24
 313 751 313 751 347 751 c 0,25,0
 417 751 417 751 475 718 c 128,-1,1
369.5 191.5 m 128,-1,27
 410 238 410 238 425 310 c 1,28,-1
 212 310 l 1,29,30
 202 283 202 283 202 261 c 0,31,32
 202 209 202 209 219 177 c 128,-1,33
 236 145 236 145 269 145 c 0,34,26
 329 145 329 145 369.5 191.5 c 128,-1,27
EndSplineSet
Validated: 1
EndChar

StartChar: f
Encoding: 102 102 265
Width: 341
GlyphClass: 2
Flags: W
AnchorPoint: "Anchor-7" 0 0 basechar 0
AnchorPoint: "Anchor-6" 339 721 basechar 0
AnchorPoint: "Anchor-5" 0 0 basechar 0
AnchorPoint: "Anchor-4" 171 0 basechar 0
LayerCount: 2
Fore
SplineSet
62 12 m 128,-1,1
 29 5 29 5 4 -1 c 1,2,3
 16 42 16 42 27.5 95.5 c 128,-1,4
 39 149 39 149 50.5 208 c 128,-1,5
 62 267 62 267 72.5 327.5 c 128,-1,6
 83 388 83 388 93 444 c 0,7,8
 114 577 114 577 135 719 c 1,9,-1
 470 736 l 1,10,-1
 441 613 l 1,11,-1
 284 613 l 1,12,-1
 253 435 l 1,13,14
 284 436 284 436 312 436 c 0,15,16
 335 436 335 436 359 436 c 128,-1,17
 383 436 383 436 396 437 c 1,18,19
 393 409 393 409 388.5 382 c 128,-1,20
 384 355 384 355 380 328 c 1,21,22
 367 328 367 328 343 328.5 c 128,-1,23
 319 329 319 329 293.5 330 c 128,-1,24
 268 331 268 331 236 332 c 1,25,-1
 190 37 l 1,26,27
 156 31 156 31 123 24 c 0,28,0
 95 19 95 19 62 12 c 128,-1,1
EndSplineSet
Validated: 1
EndChar

StartChar: g
Encoding: 103 103 266
Width: 499
GlyphClass: 2
Flags: W
AnchorPoint: "Anchor-7" 0 0 basechar 0
AnchorPoint: "Anchor-6" 419 721 basechar 0
AnchorPoint: "Anchor-5" 0 0 basechar 0
AnchorPoint: "Anchor-4" 250 0 basechar 0
LayerCount: 2
Fore
SplineSet
504 203.5 m 128,-1,1
 471 128 471 128 424.5 77 c 128,-1,2
 378 26 378 26 324.5 1 c 128,-1,3
 271 -24 271 -24 223 -24 c 0,4,5
 186 -24 186 -24 152.5 -8 c 128,-1,6
 119 8 119 8 94.5 40.5 c 128,-1,7
 70 73 70 73 56 122 c 128,-1,8
 42 171 42 171 42 237 c 0,9,10
 42 366 42 366 79 462 c 128,-1,11
 116 558 116 558 172.5 622 c 128,-1,12
 229 686 229 686 293.5 717 c 128,-1,13
 358 748 358 748 414 748 c 0,14,15
 454 748 454 748 483.5 734 c 128,-1,16
 513 720 513 720 532 696.5 c 128,-1,17
 551 673 551 673 559.5 641.5 c 128,-1,18
 568 610 568 610 568 575 c 1,19,-1
 431 549 l 1,20,21
 422 589 422 589 407 606 c 128,-1,22
 392 623 392 623 373 623 c 0,23,24
 348 623 348 623 318 587.5 c 128,-1,25
 288 552 288 552 262 496 c 128,-1,26
 236 440 236 440 218 373 c 128,-1,27
 200 306 200 306 198 241 c 0,28,29
 198 179 198 179 216.5 152.5 c 128,-1,30
 235 126 235 126 264 126 c 0,31,32
 284 126 284 126 305.5 136 c 128,-1,33
 327 146 327 146 344 164.5 c 128,-1,34
 361 183 361 183 372.5 207.5 c 128,-1,35
 384 232 384 232 385 261 c 1,36,-1
 278 245 l 1,37,-1
 297 344 l 1,38,39
 344 350 344 350 389 356 c 0,40,41
 427 361 427 361 469.5 368 c 128,-1,42
 512 375 512 375 544 381 c 1,43,0
 537 279 537 279 504 203.5 c 128,-1,1
EndSplineSet
Validated: 1
EndChar

StartChar: h
Encoding: 104 104 272
Width: 441
GlyphClass: 2
Flags: W
AnchorPoint: "Anchor-7" 0 0 basechar 0
AnchorPoint: "Anchor-6" 358 721 basechar 0
AnchorPoint: "Anchor-5" 0 0 basechar 0
AnchorPoint: "Anchor-4" 221 0 basechar 0
LayerCount: 2
Fore
SplineSet
8 -2 m 1,0,1
 36 138 36 138 62 271 c 0,2,3
 72 328 72 328 83 389.5 c 128,-1,4
 94 451 94 451 103.5 511 c 128,-1,5
 113 571 113 571 121.5 627.5 c 128,-1,6
 130 684 130 684 135 730 c 1,7,8
 158 729 158 729 177.5 727.5 c 128,-1,9
 197 726 197 726 216 725 c 128,-1,10
 235 724 235 724 254.5 723.5 c 128,-1,11
 274 723 274 723 297 723 c 1,12,13
 280 652 280 652 263.5 581 c 128,-1,14
 247 510 247 510 233 438 c 1,15,-1
 332 449 l 1,16,17
 346 520 346 520 357 586.5 c 128,-1,18
 368 653 368 653 386 724 c 1,19,20
 409 728 409 728 437 730.5 c 128,-1,21
 465 733 465 733 489 735 c 128,-1,22
 513 737 513 737 529.5 738.5 c 128,-1,23
 546 740 546 740 546 740 c 1,24,25
 532 695 532 695 519.5 641.5 c 128,-1,26
 507 588 507 588 495 530.5 c 128,-1,27
 483 473 483 473 472 414 c 128,-1,28
 461 355 461 355 452 302 c 0,29,30
 430 175 430 175 411 42 c 1,31,-1
 255 24 l 1,32,33
 268 84 268 84 278 141 c 0,34,35
 288 189 288 189 298.5 241 c 128,-1,36
 309 293 309 293 315 330 c 1,37,-1
 218 321 l 1,38,39
 211 283 211 283 201.5 233 c 128,-1,40
 192 183 192 183 184 138 c 0,41,42
 173 84 173 84 162 30 c 1,43,-1
 8 -2 l 1,0,1
EndSplineSet
Validated: 1
EndChar

StartChar: hbar
Encoding: 295 295 273
Width: 586
GlyphClass: 2
Flags: W
AnchorPoint: "Anchor-7" 0 0 basechar 0
AnchorPoint: "Anchor-6" 358 721 basechar 0
AnchorPoint: "Anchor-5" 0 0 basechar 0
AnchorPoint: "Anchor-4" 221 0 basechar 0
LayerCount: 2
Fore
SplineSet
8 -2 m 1,0,1
 36 138 36 138 62 271 c 0,2,3
 72 328 72 328 83 389.5 c 128,-1,4
 94 451 94 451 103.5 511 c 128,-1,5
 113 571 113 571 121.5 627.5 c 128,-1,6
 130 684 130 684 135 730 c 1,7,8
 158 729 158 729 177.5 727.5 c 128,-1,9
 197 726 197 726 216 725 c 128,-1,10
 235 724 235 724 254.5 723.5 c 128,-1,11
 274 723 274 723 297 723 c 1,12,13
 280 652 280 652 263.5 581 c 128,-1,14
 247 510 247 510 233 438 c 1,15,-1
 332 449 l 1,16,17
 346 520 346 520 357 586.5 c 128,-1,18
 368 653 368 653 386 724 c 1,19,20
 409 728 409 728 437 730.5 c 128,-1,21
 465 733 465 733 489 735 c 128,-1,22
 513 737 513 737 529.5 738.5 c 128,-1,23
 546 740 546 740 546 740 c 1,24,25
 532 695 532 695 519.5 641.5 c 128,-1,26
 507 588 507 588 495 530.5 c 128,-1,27
 483 473 483 473 472 414 c 128,-1,28
 461 355 461 355 452 302 c 0,29,30
 430 175 430 175 411 42 c 1,31,-1
 255 24 l 1,32,33
 268 84 268 84 278 141 c 0,34,35
 288 189 288 189 298.5 241 c 128,-1,36
 309 293 309 293 315 330 c 1,37,-1
 218 321 l 1,38,39
 211 283 211 283 201.5 233 c 128,-1,40
 192 183 192 183 184 138 c 0,41,42
 173 84 173 84 162 30 c 1,43,-1
 8 -2 l 1,0,1
20 489 m 1,44,-1
 40 598 l 1,45,-1
 578 657 l 1,46,-1
 563 547 l 1,47,-1
 20 489 l 1,44,-1
EndSplineSet
Validated: 5
EndChar

StartChar: i
Encoding: 105 105 275
Width: 202
GlyphClass: 2
Flags: W
AnchorPoint: "Anchor-7" 0 0 basechar 0
AnchorPoint: "Anchor-6" 227 721 basechar 0
AnchorPoint: "Anchor-5" 182 10 basechar 0
AnchorPoint: "Anchor-4" 101 0 basechar 0
LayerCount: 2
Fore
SplineSet
134.5 17.5 m 128,-1,1
 108 15 108 15 80 11.5 c 128,-1,2
 52 8 52 8 29.5 5 c 128,-1,3
 7 2 7 2 5 1 c 1,4,5
 15 44 15 44 25.5 96.5 c 128,-1,6
 36 149 36 149 47 206.5 c 128,-1,7
 58 264 58 264 68 323 c 128,-1,8
 78 382 78 382 87 437 c 0,9,10
 108 565 108 565 129 700 c 1,11,-1
 285 725 l 1,12,13
 262 591 262 591 240 462 c 0,14,15
 231 407 231 407 221.5 348 c 128,-1,16
 212 289 212 289 202.5 231 c 128,-1,17
 193 173 193 173 185 118.5 c 128,-1,18
 177 64 177 64 170 20 c 1,19,0
 161 20 161 20 134.5 17.5 c 128,-1,1
EndSplineSet
Validated: 1
Substitution2: "Single Substitution lookup 18 subtable" dotlessi
Substitution2: "'locl' Localized Forms in Latin lookup 11 subtable" i.loclTRK
Substitution2: "'locl' Localized Forms in Latin lookup 10 subtable" i.loclTRK
Substitution2: "'locl' Localized Forms in Latin lookup 9 subtable" i.loclTRK
Substitution2: "'locl' Localized Forms in Latin lookup 8 subtable" i.loclTRK
Substitution2: "'locl' Localized Forms in Latin lookup 7 subtable" i.loclTRK
AlternateSubs2: "'aalt' Access All Alternates in Latin lookup 1 subtable" dotlessi i.loclTRK
EndChar

StartChar: dotlessi
Encoding: 305 305 276
Width: 202
GlyphClass: 2
Flags: W
AnchorPoint: "Anchor-7" 0 0 basechar 0
AnchorPoint: "Anchor-6" 227 721 basechar 0
AnchorPoint: "Anchor-5" 182 10 basechar 0
AnchorPoint: "Anchor-4" 102 0 basechar 0
LayerCount: 2
Fore
SplineSet
134.5 17.5 m 128,-1,1
 108 15 108 15 80 11.5 c 128,-1,2
 52 8 52 8 29.5 5 c 128,-1,3
 7 2 7 2 5 1 c 1,4,5
 15 44 15 44 25.5 96.5 c 128,-1,6
 36 149 36 149 47 206.5 c 128,-1,7
 58 264 58 264 68 323 c 128,-1,8
 78 382 78 382 87 437 c 0,9,10
 108 565 108 565 129 700 c 1,11,-1
 285 725 l 1,12,13
 262 591 262 591 240 462 c 0,14,15
 231 407 231 407 221.5 348 c 128,-1,16
 212 289 212 289 202.5 231 c 128,-1,17
 193 173 193 173 185 118.5 c 128,-1,18
 177 64 177 64 170 20 c 1,19,0
 161 20 161 20 134.5 17.5 c 128,-1,1
EndSplineSet
Validated: 1
EndChar

StartChar: ij
Encoding: 307 307 287
Width: 481
GlyphClass: 2
Flags: W
AnchorPoint: "Anchor-7" 0 0 basechar 0
AnchorPoint: "Anchor-6" 227 721 basechar 0
AnchorPoint: "Anchor-5" 182 10 basechar 0
AnchorPoint: "Anchor-4" 101 0 basechar 0
LayerCount: 2
Fore
SplineSet
134.5 17.5 m 128,-1,1
 108 15 108 15 80 11.5 c 128,-1,2
 52 8 52 8 29.5 5 c 128,-1,3
 7 2 7 2 5 1 c 1,4,5
 15 44 15 44 25.5 96.5 c 128,-1,6
 36 149 36 149 47 206.5 c 128,-1,7
 58 264 58 264 68 323 c 128,-1,8
 78 382 78 382 87 437 c 0,9,10
 108 565 108 565 129 700 c 1,11,-1
 285 725 l 1,12,13
 262 591 262 591 240 462 c 0,14,15
 231 407 231 407 221.5 348 c 128,-1,16
 212 289 212 289 202.5 231 c 128,-1,17
 193 173 193 173 185 118.5 c 128,-1,18
 177 64 177 64 170 20 c 1,19,0
 161 20 161 20 134.5 17.5 c 128,-1,1
466 174.5 m 128,-1,21
 453 127 453 127 431.5 88.5 c 128,-1,22
 410 50 410 50 379.5 24.5 c 128,-1,23
 349 -1 349 -1 307 -1 c 0,24,25
 279 -1 279 -1 246.5 11 c 128,-1,26
 214 23 214 23 175 52 c 1,27,-1
 244 206 l 1,28,29
 249 196 249 196 263.5 188.5 c 128,-1,30
 278 181 278 181 295 181 c 0,31,32
 307 181 307 181 316.5 201 c 128,-1,33
 326 221 326 221 333 247.5 c 128,-1,34
 340 274 340 274 344 302 c 128,-1,35
 348 330 348 330 350 347 c 0,36,37
 369 444 369 444 386 540.5 c 128,-1,38
 403 637 403 637 426 733 c 1,39,40
 471 737 471 737 514.5 745.5 c 128,-1,41
 558 754 558 754 602 766 c 1,42,43
 587 715 587 715 571 650 c 128,-1,44
 555 585 555 585 540 517 c 128,-1,45
 525 449 525 449 511.5 383.5 c 128,-1,46
 498 318 498 318 488 266 c 0,47,20
 479 222 479 222 466 174.5 c 128,-1,21
EndSplineSet
Validated: 5
EndChar

StartChar: iogonek
Encoding: 303 303 289
Width: 202
GlyphClass: 2
Flags: W
AnchorPoint: "Anchor-7" 0 0 basechar 0
AnchorPoint: "Anchor-6" 231 943 basechar 0
AnchorPoint: "Anchor-5" 182 10 basechar 0
AnchorPoint: "Anchor-4" 102 0 basechar 0
LayerCount: 2
Fore
SplineSet
134.5 17.5 m 128,-1,1
 108 15 108 15 80 11.5 c 128,-1,2
 52 8 52 8 29.5 5 c 128,-1,3
 7 2 7 2 5 1 c 1,4,5
 15 44 15 44 25.5 96.5 c 128,-1,6
 36 149 36 149 47 206.5 c 128,-1,7
 58 264 58 264 68 323 c 128,-1,8
 78 382 78 382 87 437 c 0,9,10
 108 565 108 565 129 700 c 1,11,-1
 285 725 l 1,12,13
 262 591 262 591 240 462 c 0,14,15
 231 407 231 407 221.5 348 c 128,-1,16
 212 289 212 289 202.5 231 c 128,-1,17
 193 173 193 173 185 118.5 c 128,-1,18
 177 64 177 64 170 20 c 1,19,0
 161 20 161 20 134.5 17.5 c 128,-1,1
316.5 827.5 m 128,-1,21
 310 811 310 811 296 797.5 c 128,-1,22
 282 784 282 784 262 776 c 128,-1,23
 242 768 242 768 217 768 c 0,24,25
 177 768 177 768 157 794 c 128,-1,26
 137 820 137 820 137 854 c 0,27,28
 137 870 137 870 142.5 886 c 128,-1,29
 148 902 148 902 159 914.5 c 128,-1,30
 170 927 170 927 187 935 c 128,-1,31
 204 943 204 943 227 943 c 0,32,33
 276 943 276 943 299.5 918 c 128,-1,34
 323 893 323 893 323 861 c 0,35,20
 323 844 323 844 316.5 827.5 c 128,-1,21
143.5 -156 m 128,-1,37
 121 -165 121 -165 98 -165 c 0,38,39
 68 -165 68 -165 43.5 -157.5 c 128,-1,40
 19 -150 19 -150 1 -137 c 128,-1,41
 -17 -124 -17 -124 -27 -106.5 c 128,-1,42
 -37 -89 -37 -89 -37 -68 c 0,43,44
 -37 -29 -37 -29 3 10 c 0,45,46
 4 10 4 10 13 11.5 c 128,-1,47
 22 13 22 13 34 15 c 128,-1,48
 46 17 46 17 63 19 c 1,49,50
 59 1 59 1 59 -11 c 0,51,52
 59 -36 59 -36 73.5 -52 c 128,-1,53
 88 -68 88 -68 109 -68 c 0,54,55
 137 -68 137 -68 162 -40 c 1,56,-1
 182 -128 l 1,57,36
 166 -147 166 -147 143.5 -156 c 128,-1,37
EndSplineSet
Validated: 5
EndChar

StartChar: j
Encoding: 106 106 291
Width: 279
GlyphClass: 2
Flags: W
LayerCount: 2
Fore
SplineSet
264 174.5 m 128,-1,1
 251 127 251 127 229.5 88.5 c 128,-1,2
 208 50 208 50 177.5 24.5 c 128,-1,3
 147 -1 147 -1 105 -1 c 0,4,5
 77 -1 77 -1 44.5 11 c 128,-1,6
 12 23 12 23 -27 52 c 1,7,-1
 42 206 l 1,8,9
 47 196 47 196 61.5 188.5 c 128,-1,10
 76 181 76 181 93 181 c 0,11,12
 105 181 105 181 114.5 201 c 128,-1,13
 124 221 124 221 131 247.5 c 128,-1,14
 138 274 138 274 142 302 c 128,-1,15
 146 330 146 330 148 347 c 0,16,17
 167 444 167 444 184 540.5 c 128,-1,18
 201 637 201 637 224 733 c 1,19,20
 269 737 269 737 312.5 745.5 c 128,-1,21
 356 754 356 754 400 766 c 1,22,23
 385 715 385 715 369 650 c 128,-1,24
 353 585 353 585 338 517 c 128,-1,25
 323 449 323 449 309.5 383.5 c 128,-1,26
 296 318 296 318 286 266 c 0,27,0
 277 222 277 222 264 174.5 c 128,-1,1
EndSplineSet
Validated: 1
EndChar

StartChar: jcircumflex
Encoding: 309 309 293
Width: 279
GlyphClass: 2
Flags: W
AnchorPoint: "Anchor-7" 0 0 basechar 0
AnchorPoint: "Anchor-6" 395 1007 basechar 0
AnchorPoint: "Anchor-5" 0 0 basechar 0
AnchorPoint: "Anchor-4" 140 0 basechar 0
LayerCount: 2
Fore
SplineSet
264 174.5 m 128,-1,1
 251 127 251 127 229.5 88.5 c 128,-1,2
 208 50 208 50 177.5 24.5 c 128,-1,3
 147 -1 147 -1 105 -1 c 0,4,5
 77 -1 77 -1 44.5 11 c 128,-1,6
 12 23 12 23 -27 52 c 1,7,-1
 42 206 l 1,8,9
 47 196 47 196 61.5 188.5 c 128,-1,10
 76 181 76 181 93 181 c 0,11,12
 105 181 105 181 114.5 201 c 128,-1,13
 124 221 124 221 131 247.5 c 128,-1,14
 138 274 138 274 142 302 c 128,-1,15
 146 330 146 330 148 347 c 0,16,17
 167 444 167 444 184 540.5 c 128,-1,18
 201 637 201 637 224 733 c 1,19,20
 269 737 269 737 312.5 745.5 c 128,-1,21
 356 754 356 754 400 766 c 1,22,23
 385 715 385 715 369 650 c 128,-1,24
 353 585 353 585 338 517 c 128,-1,25
 323 449 323 449 309.5 383.5 c 128,-1,26
 296 318 296 318 286 266 c 0,27,0
 277 222 277 222 264 174.5 c 128,-1,1
311 834 m 128,-1,29
 296 818 296 818 281 801 c 128,-1,30
 266 784 266 784 251 768 c 128,-1,31
 236 752 236 752 226 741 c 1,32,33
 213 752 213 752 203 761.5 c 128,-1,34
 193 771 193 771 187 779 c 0,35,36
 178 788 178 788 172 796 c 1,37,38
 200 837 200 837 230 876 c 0,39,40
 255 909 255 909 284.5 945 c 128,-1,41
 314 981 314 981 340 1007 c 1,42,43
 379 1001 379 1001 394.5 1002 c 128,-1,44
 410 1003 410 1003 412 1001 c 0,45,46
 420 974 420 974 429.5 939 c 128,-1,47
 439 904 439 904 448 873 c 0,48,49
 459 836 459 836 470 799 c 1,50,51
 458 789 458 789 446 779 c 0,52,53
 436 770 436 770 423 760.5 c 128,-1,54
 410 751 410 751 398 742 c 1,55,-1
 337 860 l 1,56,28
 326 850 326 850 311 834 c 128,-1,29
EndSplineSet
Validated: 37
EndChar

StartChar: k
Encoding: 107 107 294
Width: 462
GlyphClass: 2
Flags: W
AnchorPoint: "Anchor-7" 0 0 basechar 0
AnchorPoint: "Anchor-6" 349 721 basechar 0
AnchorPoint: "Anchor-5" 0 0 basechar 0
AnchorPoint: "Anchor-4" 231 0 basechar 0
LayerCount: 2
Fore
SplineSet
7 -1 m 1,0,1
 37 139 37 139 63 271 c 0,2,3
 73 328 73 328 84 389 c 128,-1,4
 95 450 95 450 104.5 510 c 128,-1,5
 114 570 114 570 121.5 626.5 c 128,-1,6
 129 683 129 683 133 729 c 1,7,8
 156 727 156 727 185 725.5 c 128,-1,9
 214 724 214 724 239 722 c 0,10,11
 269 720 269 720 299 720 c 1,12,13
 298 716 298 716 296 705 c 128,-1,14
 294 694 294 694 291 678.5 c 128,-1,15
 288 663 288 663 284.5 644 c 128,-1,16
 281 625 281 625 277 606 c 0,17,18
 269 562 269 562 259 507 c 1,19,-1
 265 508 l 1,20,21
 275 524 275 524 293.5 552.5 c 128,-1,22
 312 581 312 581 332 613 c 128,-1,23
 352 645 352 645 371 674.5 c 128,-1,24
 390 704 390 704 403 725 c 1,25,26
 453 729 453 729 503 734 c 128,-1,27
 553 739 553 739 603 747 c 1,28,29
 556 684 556 684 512 623 c 0,30,31
 493 597 493 597 473.5 569 c 128,-1,32
 454 541 454 541 435 514 c 128,-1,33
 416 487 416 487 399.5 462 c 128,-1,34
 383 437 383 437 370 416 c 1,35,36
 392 315 392 315 422 221 c 128,-1,37
 452 127 452 127 483 29 c 1,38,39
 460 30 460 30 436 30.5 c 128,-1,40
 412 31 412 31 389 31 c 0,41,42
 360 31 360 31 333 30.5 c 128,-1,43
 306 30 306 30 277 29 c 1,44,45
 268 94 268 94 257.5 165.5 c 128,-1,46
 247 237 247 237 238 302 c 1,47,-1
 220 281 l 1,48,49
 213 251 213 251 204.5 207 c 128,-1,50
 196 163 196 163 188 122 c 0,51,52
 179 74 179 74 169 23 c 1,53,-1
 7 -1 l 1,0,1
EndSplineSet
Validated: 1
EndChar

StartChar: kgreenlandic
Encoding: 312 312 296
Width: 462
GlyphClass: 2
Flags: W
AnchorPoint: "Anchor-7" 0 0 basechar 0
AnchorPoint: "Anchor-6" 360 721 basechar 0
AnchorPoint: "Anchor-5" 0 0 basechar 0
AnchorPoint: "Anchor-4" 231 0 basechar 0
LayerCount: 2
Fore
SplineSet
361 356 m 1,0,-1
 482 30 l 1,1,-1
 277 29 l 1,2,-1
 231 238 l 1,3,-1
 204 214 l 1,4,-1
 169 27 l 1,5,-1
 16 -3 l 1,6,-1
 69 307 l 1,7,-1
 118 653 l 1,8,-1
 284 644 l 1,9,-1
 247 445 l 1,10,-1
 256 445 l 1,11,-1
 345 635 l 1,12,-1
 542 658 l 1,13,-1
 361 356 l 1,0,-1
EndSplineSet
Validated: 1
EndChar

StartChar: l
Encoding: 108 108 297
Width: 302
GlyphClass: 2
Flags: W
AnchorPoint: "Anchor-7" 282 721 basechar 0
AnchorPoint: "Anchor-6" 253 721 basechar 0
AnchorPoint: "Anchor-5" 0 0 basechar 0
AnchorPoint: "Anchor-4" 151 0 basechar 0
LayerCount: 2
Fore
SplineSet
210.5 30 m 128,-1,1
 176 28 176 28 141 24 c 128,-1,2
 106 20 106 20 72.5 13.5 c 128,-1,3
 39 7 39 7 12 -2 c 1,4,5
 18 43 18 43 26 98 c 128,-1,6
 34 153 34 153 44.5 212 c 128,-1,7
 55 271 55 271 65.5 331 c 128,-1,8
 76 391 76 391 87 446 c 0,9,10
 112 577 112 577 140 713 c 1,11,-1
 315 736 l 1,12,13
 288 620 288 620 263 510 c 0,14,15
 252 463 252 463 241 412.5 c 128,-1,16
 230 362 230 362 220 314 c 128,-1,17
 210 266 210 266 202 221 c 128,-1,18
 194 176 194 176 189 141 c 1,19,20
 214 143 214 143 242.5 143.5 c 128,-1,21
 271 144 271 144 293 144 c 1,22,23
 294 125 294 125 296 106.5 c 128,-1,24
 298 88 298 88 300.5 73 c 128,-1,25
 303 58 303 58 304.5 46.5 c 128,-1,26
 306 35 306 35 307 31 c 1,27,28
 299 31 299 31 291.5 31.5 c 128,-1,29
 284 32 284 32 276 32 c 0,30,0
 245 32 245 32 210.5 30 c 128,-1,1
EndSplineSet
Validated: 1
EndChar

StartChar: uni01C9
Encoding: 457 457 302
Width: 581
GlyphClass: 2
Flags: W
AnchorPoint: "Anchor-7" 282 721 basechar 0
AnchorPoint: "Anchor-6" 253 721 basechar 0
AnchorPoint: "Anchor-5" 0 0 basechar 0
AnchorPoint: "Anchor-4" 151 0 basechar 0
LayerCount: 2
Fore
SplineSet
210.5 30 m 128,-1,1
 176 28 176 28 141 24 c 128,-1,2
 106 20 106 20 72.5 13.5 c 128,-1,3
 39 7 39 7 12 -2 c 1,4,5
 18 43 18 43 26 98 c 128,-1,6
 34 153 34 153 44.5 212 c 128,-1,7
 55 271 55 271 65.5 331 c 128,-1,8
 76 391 76 391 87 446 c 0,9,10
 112 577 112 577 140 713 c 1,11,-1
 315 736 l 1,12,13
 288 620 288 620 263 510 c 0,14,15
 252 463 252 463 241 412.5 c 128,-1,16
 230 362 230 362 220 314 c 128,-1,17
 210 266 210 266 202 221 c 128,-1,18
 194 176 194 176 189 141 c 1,19,20
 214 143 214 143 242.5 143.5 c 128,-1,21
 271 144 271 144 293 144 c 1,22,23
 294 125 294 125 296 106.5 c 128,-1,24
 298 88 298 88 300.5 73 c 128,-1,25
 303 58 303 58 304.5 46.5 c 128,-1,26
 306 35 306 35 307 31 c 1,27,28
 299 31 299 31 291.5 31.5 c 128,-1,29
 284 32 284 32 276 32 c 0,30,0
 245 32 245 32 210.5 30 c 128,-1,1
566 174.5 m 128,-1,32
 553 127 553 127 531.5 88.5 c 128,-1,33
 510 50 510 50 479.5 24.5 c 128,-1,34
 449 -1 449 -1 407 -1 c 0,35,36
 379 -1 379 -1 346.5 11 c 128,-1,37
 314 23 314 23 275 52 c 1,38,-1
 344 206 l 1,39,40
 349 196 349 196 363.5 188.5 c 128,-1,41
 378 181 378 181 395 181 c 0,42,43
 407 181 407 181 416.5 201 c 128,-1,44
 426 221 426 221 433 247.5 c 128,-1,45
 440 274 440 274 444 302 c 128,-1,46
 448 330 448 330 450 347 c 0,47,48
 469 444 469 444 486 540.5 c 128,-1,49
 503 637 503 637 526 733 c 1,50,51
 571 737 571 737 614.5 745.5 c 128,-1,52
 658 754 658 754 702 766 c 1,53,54
 687 715 687 715 671 650 c 128,-1,55
 655 585 655 585 640 517 c 128,-1,56
 625 449 625 449 611.5 383.5 c 128,-1,57
 598 318 598 318 588 266 c 0,58,31
 579 222 579 222 566 174.5 c 128,-1,32
EndSplineSet
Validated: 5
EndChar

StartChar: lslash
Encoding: 322 322 303
Width: 309
GlyphClass: 2
Flags: W
LayerCount: 2
Fore
SplineSet
216.5 30 m 128,-1,1
 182 28 182 28 147 24 c 128,-1,2
 112 20 112 20 78.5 13.5 c 128,-1,3
 45 7 45 7 18 -2 c 1,4,5
 26 67 26 67 40.5 155 c 128,-1,6
 55 243 55 243 71 333 c 1,7,8
 63 329 63 329 55 326.5 c 128,-1,9
 47 324 47 324 42 322 c 0,10,11
 35 319 35 319 30 317 c 1,12,-1
 41 441 l 1,13,14
 49 443 49 443 58 446 c 0,15,16
 65 448 65 448 74.5 451 c 128,-1,17
 84 454 84 454 95 458 c 1,18,19
 105 512 105 512 113.5 558 c 128,-1,20
 122 604 122 604 130 639 c 0,21,22
 138 679 138 679 146 713 c 1,23,-1
 321 736 l 1,24,25
 314 707 314 707 306 673 c 0,26,27
 298 644 298 644 289 604 c 128,-1,28
 280 564 280 564 270 519 c 1,29,30
 286 524 286 524 303 530.5 c 128,-1,31
 320 537 320 537 334 542 c 0,32,33
 351 548 351 548 365 555 c 1,34,-1
 368 435 l 1,35,-1
 242 393 l 1,36,37
 228 322 228 322 215 256 c 128,-1,38
 202 190 202 190 195 141 c 1,39,40
 220 143 220 143 248 143.5 c 128,-1,41
 276 144 276 144 299 144 c 1,42,43
 300 125 300 125 302 106.5 c 128,-1,44
 304 88 304 88 306.5 73 c 128,-1,45
 309 58 309 58 310.5 46.5 c 128,-1,46
 312 35 312 35 313 31 c 1,47,48
 305 31 305 31 297.5 31.5 c 128,-1,49
 290 32 290 32 282 32 c 0,50,0
 251 32 251 32 216.5 30 c 128,-1,1
EndSplineSet
Validated: 1
EndChar

StartChar: m
Encoding: 109 109 304
Width: 619
GlyphClass: 2
Flags: W
AnchorPoint: "Anchor-7" 0 0 basechar 0
AnchorPoint: "Anchor-6" 503 728 basechar 0
AnchorPoint: "Anchor-5" 0 0 basechar 0
AnchorPoint: "Anchor-4" 310 0 basechar 0
LayerCount: 2
Fore
SplineSet
-30 6 m 1,0,1
 14 139 14 139 54 267 c 0,2,3
 71 321 71 321 89 380 c 128,-1,4
 107 439 107 439 125 497 c 128,-1,5
 143 555 143 555 158.5 609 c 128,-1,6
 174 663 174 663 186 709 c 1,7,8
 241 709 241 709 290 715 c 128,-1,9
 339 721 339 721 396 726 c 1,10,11
 393 704 393 704 389.5 676.5 c 128,-1,12
 386 649 386 649 381.5 619 c 128,-1,13
 377 589 377 589 372 557 c 128,-1,14
 367 525 367 525 360 475 c 128,-1,15
 353 425 353 425 341 350 c 1,16,-1
 354 350 l 1,17,18
 383 426 383 426 402 476.5 c 128,-1,19
 421 527 421 527 433 559 c 128,-1,20
 445 591 445 591 457.5 621.5 c 128,-1,21
 470 652 470 652 481.5 679.5 c 128,-1,22
 493 707 493 707 503 728 c 1,23,24
 528 730 528 730 550 733 c 128,-1,25
 572 736 572 736 594 739.5 c 128,-1,26
 616 743 616 743 638.5 746.5 c 128,-1,27
 661 750 661 750 688 755 c 1,28,29
 678 697 678 697 669 636 c 128,-1,30
 660 575 660 575 653 514.5 c 128,-1,31
 646 454 646 454 639.5 395 c 128,-1,32
 633 336 633 336 628 283 c 0,33,34
 616 159 616 159 607 41 c 1,35,-1
 433 10 l 1,36,37
 433 15 433 15 434.5 37 c 128,-1,38
 436 59 436 59 438.5 91 c 128,-1,39
 441 123 441 123 445.5 162 c 128,-1,40
 450 201 450 201 454.5 240 c 128,-1,41
 459 279 459 279 464 315.5 c 128,-1,42
 469 352 469 352 474 378 c 1,43,-1
 465 378 l 1,44,45
 451 336 451 336 434 289.5 c 128,-1,46
 417 243 417 243 399.5 195 c 128,-1,47
 382 147 382 147 365 101 c 128,-1,48
 348 55 348 55 335 13 c 1,49,50
 300 12 300 12 275 10.5 c 128,-1,51
 250 9 250 9 217 7 c 1,52,-1
 249 378 l 1,53,-1
 234 378 l 1,54,55
 232 365 232 365 224 334.5 c 128,-1,56
 216 304 216 304 205.5 264.5 c 128,-1,57
 195 225 195 225 183 182.5 c 128,-1,58
 171 140 171 140 160.5 103.5 c 128,-1,59
 150 67 150 67 143 43.5 c 128,-1,60
 136 20 136 20 135 17 c 2,61,-1
 -30 6 l 1,0,1
EndSplineSet
Validated: 1
EndChar

StartChar: n
Encoding: 110 110 305
Width: 452
GlyphClass: 2
Flags: W
AnchorPoint: "Anchor-7" 0 0 basechar 0
AnchorPoint: "Anchor-6" 370 721 basechar 0
AnchorPoint: "Anchor-5" 0 0 basechar 0
AnchorPoint: "Anchor-4" 227 0 basechar 0
LayerCount: 2
Fore
SplineSet
5 -5 m 1,0,1
 35 139 35 139 62 274 c 0,2,3
 72 332 72 332 83.5 394 c 128,-1,4
 95 456 95 456 105 516.5 c 128,-1,5
 115 577 115 577 123 632.5 c 128,-1,6
 131 688 131 688 135 733 c 1,7,8
 148 732 148 732 157 732 c 128,-1,9
 166 732 166 732 178 732 c 0,10,11
 192 732 192 732 212 732.5 c 128,-1,12
 232 733 232 733 252 734 c 128,-1,13
 272 735 272 735 295 736 c 1,14,15
 309 666 309 666 320 601 c 0,16,17
 331 544 331 544 342.5 484 c 128,-1,18
 354 424 354 424 363 382 c 1,19,20
 367 402 367 402 372 428.5 c 128,-1,21
 377 455 377 455 383 484 c 128,-1,22
 389 513 389 513 394.5 542.5 c 128,-1,23
 400 572 400 572 406 601 c 0,24,25
 420 666 420 666 435 735 c 1,26,-1
 557 750 l 1,27,28
 523 597 523 597 497 460 c 0,29,30
 485 401 485 401 473.5 340.5 c 128,-1,31
 462 280 462 280 452 224.5 c 128,-1,32
 442 169 442 169 435 121.5 c 128,-1,33
 428 74 428 74 424 42 c 0,34,35
 421 42 421 42 400.5 37.5 c 128,-1,36
 380 33 380 33 353.5 27 c 128,-1,37
 327 21 327 21 300.5 15 c 128,-1,38
 274 9 274 9 261 4 c 1,39,40
 255 84 255 84 248 156 c 0,41,42
 245 187 245 187 241.5 219.5 c 128,-1,43
 238 252 238 252 234 282 c 128,-1,44
 230 312 230 312 226 338 c 128,-1,45
 222 364 222 364 218 383 c 1,46,47
 215 364 215 364 210 339 c 128,-1,48
 205 314 205 314 200 286 c 128,-1,49
 195 258 195 258 190 227.5 c 128,-1,50
 185 197 185 197 179 169 c 0,51,52
 166 102 166 102 151 29 c 1,53,-1
 5 -5 l 1,0,1
EndSplineSet
Validated: 1
EndChar

StartChar: napostrophe
Encoding: 329 329 307
Width: 631
GlyphClass: 2
Flags: W
AnchorPoint: "Anchor-7" 0 0 basechar 0
AnchorPoint: "Anchor-6" 549 721 basechar 0
AnchorPoint: "Anchor-5" 0 0 basechar 0
AnchorPoint: "Anchor-4" 406 0 basechar 0
LayerCount: 2
Fore
SplineSet
49 422 m 1,0,1
 63 476 63 476 76 530 c 0,2,3
 88 577 88 577 101 632.5 c 128,-1,4
 114 688 114 688 126 739 c 1,5,6
 132 738 132 738 142.5 737.5 c 128,-1,7
 153 737 153 737 164.5 736.5 c 128,-1,8
 176 736 176 736 186.5 736 c 128,-1,9
 197 736 197 736 203 736 c 0,10,11
 217 736 217 736 235.5 738 c 128,-1,12
 254 740 254 740 272 743 c 128,-1,13
 290 746 290 746 311 750 c 1,14,-1
 213 438 l 1,15,-1
 49 422 l 1,0,1
184 -5 m 1,16,17
 214 139 214 139 241 274 c 0,18,19
 251 332 251 332 262.5 394 c 128,-1,20
 274 456 274 456 284 516.5 c 128,-1,21
 294 577 294 577 302 632.5 c 128,-1,22
 310 688 310 688 314 733 c 1,23,24
 327 732 327 732 336 732 c 128,-1,25
 345 732 345 732 357 732 c 0,26,27
 371 732 371 732 391 732.5 c 128,-1,28
 411 733 411 733 431 734 c 128,-1,29
 451 735 451 735 474 736 c 1,30,31
 488 666 488 666 499 601 c 0,32,33
 510 544 510 544 521.5 484 c 128,-1,34
 533 424 533 424 542 382 c 1,35,36
 546 402 546 402 551 428.5 c 128,-1,37
 556 455 556 455 562 484 c 128,-1,38
 568 513 568 513 573.5 542.5 c 128,-1,39
 579 572 579 572 585 601 c 0,40,41
 599 666 599 666 614 735 c 1,42,-1
 736 750 l 1,43,44
 702 597 702 597 676 460 c 0,45,46
 664 401 664 401 652.5 340.5 c 128,-1,47
 641 280 641 280 631 224.5 c 128,-1,48
 621 169 621 169 614 121.5 c 128,-1,49
 607 74 607 74 603 42 c 0,50,51
 600 42 600 42 579.5 37.5 c 128,-1,52
 559 33 559 33 532.5 27 c 128,-1,53
 506 21 506 21 479.5 15 c 128,-1,54
 453 9 453 9 440 4 c 1,55,56
 434 84 434 84 427 156 c 0,57,58
 424 187 424 187 420.5 219.5 c 128,-1,59
 417 252 417 252 413 282 c 128,-1,60
 409 312 409 312 405 338 c 128,-1,61
 401 364 401 364 397 383 c 1,62,63
 394 364 394 364 389 339 c 128,-1,64
 384 314 384 314 379 286 c 128,-1,65
 374 258 374 258 369 227.5 c 128,-1,66
 364 197 364 197 358 169 c 0,67,68
 345 102 345 102 330 29 c 1,69,-1
 184 -5 l 1,16,17
EndSplineSet
Validated: 1
EndChar

StartChar: eng
Encoding: 331 331 310
Width: 453
GlyphClass: 2
Flags: W
AnchorPoint: "Anchor-7" 0 0 basechar 0
AnchorPoint: "Anchor-6" 375 721 basechar 0
AnchorPoint: "Anchor-5" 0 0 basechar 0
AnchorPoint: "Anchor-4" 227 0 basechar 0
LayerCount: 2
Fore
SplineSet
368 -105 m 128,-1,1
 325 -183 325 -183 248 -183 c 0,2,3
 215 -183 215 -183 183 -169 c 128,-1,4
 151 -155 151 -155 115 -130 c 1,5,-1
 173 -2 l 1,6,7
 205 -38 205 -38 228 -38 c 0,8,9
 241 -38 241 -38 252 -25.5 c 128,-1,10
 263 -13 263 -13 262 2 c 2,11,-1
 240 234 l 1,12,-1
 232 298 l 2,13,14
 231 307 231 307 229.5 324.5 c 128,-1,15
 228 342 228 342 226 354 c 2,16,-1
 219 399 l 1,17,-1
 211 354 l 2,18,19
 202 307 202 307 201 299 c 0,20,21
 199 284 199 284 190 238 c 0,22,23
 188 216 188 216 180 177 c 2,24,-1
 152 29 l 1,25,-1
 6 -5 l 1,26,-1
 60 270 l 2,27,28
 65 303 65 303 72 336 c 2,29,-1
 81 388 l 2,30,31
 89 429 89 429 103 509 c 0,32,33
 109 547 109 547 111 561 c 0,34,35
 114 578 114 578 121 623 c 0,36,37
 131 686 131 686 135 725 c 1,38,-1
 195 729 l 1,39,-1
 248 732 l 2,40,41
 264 733 264 733 276 734 c 128,-1,42
 288 735 288 735 296 736 c 1,43,44
 311 649 311 649 319 589 c 2,45,-1
 329 526 l 2,46,47
 337 484 337 484 340 464 c 2,48,-1
 346 430 l 1,49,-1
 350 406 l 1,50,-1
 360 358 l 1,51,-1
 369 406 l 2,52,53
 373 429 373 429 376 444 c 2,54,-1
 380 464 l 2,55,56
 390 514 390 514 393 526 c 2,57,-1
 405 589 l 1,58,-1
 436 735 l 1,59,-1
 558 750 l 1,60,61
 535 649 535 649 498 466 c 2,62,-1
 475 349 l 1,63,-1
 453 234 l 2,64,65
 441 173 441 173 436 133 c 0,66,67
 431 104 431 104 431 105 c 2,68,-1
 425 67 l 2,69,0
 411 -27 411 -27 368 -105 c 128,-1,1
EndSplineSet
Validated: 1
EndChar

StartChar: uni0272
Encoding: 626 626 311
Width: 465
GlyphClass: 2
Flags: W
LayerCount: 2
Fore
SplineSet
152 29 m 2,0,1
 147 -9 147 -9 127.5 -58 c 128,-1,2
 108 -107 108 -107 71.5 -144 c 128,-1,3
 35 -181 35 -181 -18 -181 c 0,4,5
 -50 -181 -50 -181 -82 -167 c 128,-1,6
 -114 -153 -114 -153 -150 -128 c 1,7,-1
 -93 0 l 1,8,9
 -77 -18 -77 -18 -64 -27 c 128,-1,10
 -51 -36 -51 -36 -38 -36 c 0,11,12
 -23 -36 -23 -36 -9.5 -26 c 128,-1,13
 4 -16 4 -16 8 4 c 2,14,-1
 60 270 l 2,15,16
 65 303 65 303 72 336 c 2,17,-1
 81 388 l 2,18,19
 89 429 89 429 103 509 c 0,20,21
 109 547 109 547 111 561 c 0,22,23
 114 578 114 578 121 623 c 0,24,25
 131 686 131 686 135 725 c 1,26,-1
 195 729 l 1,27,-1
 248 732 l 2,28,29
 264 733 264 733 276 734 c 128,-1,30
 288 735 288 735 296 736 c 1,31,32
 311 649 311 649 319 589 c 2,33,-1
 329 526 l 2,34,35
 337 484 337 484 340 464 c 2,36,-1
 346 430 l 1,37,-1
 350 406 l 1,38,-1
 360 358 l 1,39,-1
 369 406 l 2,40,41
 373 429 373 429 376 444 c 2,42,-1
 380 464 l 2,43,44
 390 514 390 514 393 526 c 2,45,-1
 405 589 l 1,46,-1
 436 735 l 1,47,-1
 558 750 l 1,48,49
 535 649 535 649 498 466 c 2,50,-1
 475 349 l 1,51,-1
 453 234 l 2,52,53
 441 173 441 173 436 133 c 2,54,-1
 428 77 l 1,55,-1
 425 55 l 1,56,-1
 262 17 l 1,57,-1
 240 234 l 1,58,-1
 232 298 l 2,59,60
 231 307 231 307 229.5 324.5 c 128,-1,61
 228 342 228 342 226 354 c 2,62,-1
 219 399 l 1,63,-1
 211 354 l 2,64,65
 202 307 202 307 201 299 c 0,66,67
 199 284 199 284 190 238 c 0,68,69
 188 216 188 216 180 177 c 2,70,-1
 152 29 l 2,0,1
EndSplineSet
Validated: 1
EndChar

StartChar: uni01CC
Encoding: 460 460 312
Width: 731
GlyphClass: 2
Flags: W
AnchorPoint: "Anchor-7" 0 0 basechar 0
AnchorPoint: "Anchor-6" 370 721 basechar 0
AnchorPoint: "Anchor-5" 0 0 basechar 0
AnchorPoint: "Anchor-4" 227 0 basechar 0
LayerCount: 2
Fore
SplineSet
5 -5 m 1,0,1
 35 139 35 139 62 274 c 0,2,3
 72 332 72 332 83.5 394 c 128,-1,4
 95 456 95 456 105 516.5 c 128,-1,5
 115 577 115 577 123 632.5 c 128,-1,6
 131 688 131 688 135 733 c 1,7,8
 148 732 148 732 157 732 c 128,-1,9
 166 732 166 732 178 732 c 0,10,11
 192 732 192 732 212 732.5 c 128,-1,12
 232 733 232 733 252 734 c 128,-1,13
 272 735 272 735 295 736 c 1,14,15
 309 666 309 666 320 601 c 0,16,17
 331 544 331 544 342.5 484 c 128,-1,18
 354 424 354 424 363 382 c 1,19,20
 367 402 367 402 372 428.5 c 128,-1,21
 377 455 377 455 383 484 c 128,-1,22
 389 513 389 513 394.5 542.5 c 128,-1,23
 400 572 400 572 406 601 c 0,24,25
 420 666 420 666 435 735 c 1,26,-1
 557 750 l 1,27,28
 523 597 523 597 497 460 c 0,29,30
 485 401 485 401 473.5 340.5 c 128,-1,31
 462 280 462 280 452 224.5 c 128,-1,32
 442 169 442 169 435 121.5 c 128,-1,33
 428 74 428 74 424 42 c 0,34,35
 421 42 421 42 400.5 37.5 c 128,-1,36
 380 33 380 33 353.5 27 c 128,-1,37
 327 21 327 21 300.5 15 c 128,-1,38
 274 9 274 9 261 4 c 1,39,40
 255 84 255 84 248 156 c 0,41,42
 245 187 245 187 241.5 219.5 c 128,-1,43
 238 252 238 252 234 282 c 128,-1,44
 230 312 230 312 226 338 c 128,-1,45
 222 364 222 364 218 383 c 1,46,47
 215 364 215 364 210 339 c 128,-1,48
 205 314 205 314 200 286 c 128,-1,49
 195 258 195 258 190 227.5 c 128,-1,50
 185 197 185 197 179 169 c 0,51,52
 166 102 166 102 151 29 c 1,53,-1
 5 -5 l 1,0,1
716 174.5 m 128,-1,55
 703 127 703 127 681.5 88.5 c 128,-1,56
 660 50 660 50 629.5 24.5 c 128,-1,57
 599 -1 599 -1 557 -1 c 0,58,59
 529 -1 529 -1 496.5 11 c 128,-1,60
 464 23 464 23 425 52 c 1,61,-1
 494 206 l 1,62,63
 499 196 499 196 513.5 188.5 c 128,-1,64
 528 181 528 181 545 181 c 0,65,66
 557 181 557 181 566.5 201 c 128,-1,67
 576 221 576 221 583 247.5 c 128,-1,68
 590 274 590 274 594 302 c 128,-1,69
 598 330 598 330 600 347 c 0,70,71
 619 444 619 444 636 540.5 c 128,-1,72
 653 637 653 637 676 733 c 1,73,74
 721 737 721 737 764.5 745.5 c 128,-1,75
 808 754 808 754 852 766 c 1,76,77
 837 715 837 715 821 650 c 128,-1,78
 805 585 805 585 790 517 c 128,-1,79
 775 449 775 449 761.5 383.5 c 128,-1,80
 748 318 748 318 738 266 c 0,81,54
 729 222 729 222 716 174.5 c 128,-1,55
EndSplineSet
Validated: 5
EndChar

StartChar: o
Encoding: 111 111 314
Width: 493
GlyphClass: 2
Flags: W
AnchorPoint: "Anchor-7" 474 721 basechar 0
AnchorPoint: "Anchor-6" 400 750 basechar 0
AnchorPoint: "Anchor-5" 342 10 basechar 0
AnchorPoint: "Anchor-4" 148 -4 basechar 0
LayerCount: 2
Fore
SplineSet
542.5 386.5 m 128,-1,1
 525 314 525 314 496 253.5 c 128,-1,2
 467 193 467 193 428.5 145.5 c 128,-1,3
 390 98 390 98 348 64.5 c 128,-1,4
 306 31 306 31 263 13.5 c 128,-1,5
 220 -4 220 -4 181 -4 c 0,6,7
 148 -4 148 -4 121 8.5 c 128,-1,8
 94 21 94 21 74 45.5 c 128,-1,9
 54 70 54 70 42.5 108.5 c 128,-1,10
 31 147 31 147 31 201 c 0,11,12
 31 257 31 257 45 319 c 128,-1,13
 59 381 59 381 83 442 c 128,-1,14
 107 503 107 503 142 558 c 128,-1,15
 177 613 177 613 219 655.5 c 128,-1,16
 261 698 261 698 309 723 c 128,-1,17
 357 748 357 748 409 748 c 0,18,19
 454 748 454 748 483.5 729.5 c 128,-1,20
 513 711 513 711 529.5 681.5 c 128,-1,21
 546 652 546 652 553 615 c 128,-1,22
 560 578 560 578 560 541 c 0,23,0
 560 459 560 459 542.5 386.5 c 128,-1,1
184 204 m 128,-1,25
 188 192 188 192 195 183 c 128,-1,26
 202 174 202 174 212.5 167.5 c 128,-1,27
 223 161 223 161 235 161 c 0,28,29
 280 161 280 161 315 192 c 128,-1,30
 350 223 350 223 373 268 c 128,-1,31
 396 313 396 313 408.5 364 c 128,-1,32
 421 415 421 415 421 457 c 0,33,34
 421 469 421 469 419.5 483 c 128,-1,35
 418 497 418 497 413.5 509 c 128,-1,36
 409 521 409 521 399.5 529.5 c 128,-1,37
 390 538 390 538 374 538 c 0,38,39
 342 538 342 538 315 522 c 128,-1,40
 288 506 288 506 266.5 479.5 c 128,-1,41
 245 453 245 453 229 419.5 c 128,-1,42
 213 386 213 386 201.5 351.5 c 128,-1,43
 190 317 190 317 185 284 c 128,-1,44
 180 251 180 251 180 227 c 0,45,24
 180 216 180 216 184 204 c 128,-1,25
EndSplineSet
Validated: 1
Substitution2: "Single Substitution lookup 19 subtable" ordmasculine
Substitution2: "'aalt' Access All Alternates in Latin lookup 0 subtable" ordmasculine
EndChar

StartChar: uni1ED3
Encoding: 7891 7891 320
Width: 493
GlyphClass: 2
Flags: W
AnchorPoint: "Anchor-7" 474 721 basechar 0
AnchorPoint: "Anchor-6" 380 1155 basechar 0
AnchorPoint: "Anchor-5" 342 10 basechar 0
AnchorPoint: "Anchor-4" 0 0 basechar 0
LayerCount: 2
Fore
SplineSet
542.5 386.5 m 128,-1,1
 525 314 525 314 496 253.5 c 128,-1,2
 467 193 467 193 428.5 145.5 c 128,-1,3
 390 98 390 98 348 64.5 c 128,-1,4
 306 31 306 31 263 13.5 c 128,-1,5
 220 -4 220 -4 181 -4 c 0,6,7
 148 -4 148 -4 121 8.5 c 128,-1,8
 94 21 94 21 74 45.5 c 128,-1,9
 54 70 54 70 42.5 108.5 c 128,-1,10
 31 147 31 147 31 201 c 0,11,12
 31 257 31 257 45 319 c 128,-1,13
 59 381 59 381 83 442 c 128,-1,14
 107 503 107 503 142 558 c 128,-1,15
 177 613 177 613 219 655.5 c 128,-1,16
 261 698 261 698 309 723 c 128,-1,17
 357 748 357 748 409 748 c 0,18,19
 454 748 454 748 483.5 729.5 c 128,-1,20
 513 711 513 711 529.5 681.5 c 128,-1,21
 546 652 546 652 553 615 c 128,-1,22
 560 578 560 578 560 541 c 0,23,0
 560 459 560 459 542.5 386.5 c 128,-1,1
184 204 m 128,-1,25
 188 192 188 192 195 183 c 128,-1,26
 202 174 202 174 212.5 167.5 c 128,-1,27
 223 161 223 161 235 161 c 0,28,29
 280 161 280 161 315 192 c 128,-1,30
 350 223 350 223 373 268 c 128,-1,31
 396 313 396 313 408.5 364 c 128,-1,32
 421 415 421 415 421 457 c 0,33,34
 421 469 421 469 419.5 483 c 128,-1,35
 418 497 418 497 413.5 509 c 128,-1,36
 409 521 409 521 399.5 529.5 c 128,-1,37
 390 538 390 538 374 538 c 0,38,39
 342 538 342 538 315 522 c 128,-1,40
 288 506 288 506 266.5 479.5 c 128,-1,41
 245 453 245 453 229 419.5 c 128,-1,42
 213 386 213 386 201.5 351.5 c 128,-1,43
 190 317 190 317 185 284 c 128,-1,44
 180 251 180 251 180 227 c 0,45,24
 180 216 180 216 184 204 c 128,-1,25
413 840 m 128,-1,47
 398 824 398 824 383 807 c 128,-1,48
 368 790 368 790 353 774 c 128,-1,49
 338 758 338 758 328 747 c 1,50,51
 315 758 315 758 305 767.5 c 128,-1,52
 295 777 295 777 289 785 c 0,53,54
 280 794 280 794 274 802 c 1,55,56
 302 843 302 843 332 882 c 0,57,58
 357 915 357 915 386.5 951 c 128,-1,59
 416 987 416 987 442 1013 c 1,60,61
 481 1007 481 1007 496.5 1008 c 128,-1,62
 512 1009 512 1009 514 1007 c 0,63,64
 522 980 522 980 531.5 945 c 128,-1,65
 541 910 541 910 550 879 c 0,66,67
 561 842 561 842 572 805 c 1,68,69
 560 795 560 795 548 785 c 0,70,71
 538 776 538 776 525 766.5 c 128,-1,72
 512 757 512 757 500 748 c 1,73,-1
 439 866 l 1,74,46
 428 856 428 856 413 840 c 128,-1,47
355 952 m 1,75,76
 322 960 322 960 291 968 c 0,77,78
 264 974 264 974 236 981.5 c 128,-1,79
 208 989 208 989 189 995 c 1,80,81
 193 1014 193 1014 198 1041 c 128,-1,82
 203 1068 203 1068 208 1094 c 0,83,84
 214 1124 214 1124 220 1155 c 1,85,86
 245 1128 245 1128 271 1102 c 0,87,88
 292 1079 292 1079 316.5 1052.5 c 128,-1,89
 341 1026 341 1026 360 1005 c 1,90,-1
 355 952 l 1,75,76
EndSplineSet
Validated: 33
EndChar

StartChar: ohorn
Encoding: 417 417 330
Width: 493
GlyphClass: 2
Flags: W
AnchorPoint: "Anchor-7" 678 876 basechar 0
AnchorPoint: "Anchor-6" 400 750 basechar 0
AnchorPoint: "Anchor-5" 342 10 basechar 0
AnchorPoint: "Anchor-4" 148 -4 basechar 0
LayerCount: 2
Fore
SplineSet
542.5 386.5 m 128,-1,1
 525 314 525 314 496 253.5 c 128,-1,2
 467 193 467 193 428.5 145.5 c 128,-1,3
 390 98 390 98 348 64.5 c 128,-1,4
 306 31 306 31 263 13.5 c 128,-1,5
 220 -4 220 -4 181 -4 c 0,6,7
 148 -4 148 -4 121 8.5 c 128,-1,8
 94 21 94 21 74 45.5 c 128,-1,9
 54 70 54 70 42.5 108.5 c 128,-1,10
 31 147 31 147 31 201 c 0,11,12
 31 257 31 257 45 319 c 128,-1,13
 59 381 59 381 83 442 c 128,-1,14
 107 503 107 503 142 558 c 128,-1,15
 177 613 177 613 219 655.5 c 128,-1,16
 261 698 261 698 309 723 c 128,-1,17
 357 748 357 748 409 748 c 0,18,19
 454 748 454 748 483.5 729.5 c 128,-1,20
 513 711 513 711 529.5 681.5 c 128,-1,21
 546 652 546 652 553 615 c 128,-1,22
 560 578 560 578 560 541 c 0,23,0
 560 459 560 459 542.5 386.5 c 128,-1,1
184 204 m 128,-1,25
 188 192 188 192 195 183 c 128,-1,26
 202 174 202 174 212.5 167.5 c 128,-1,27
 223 161 223 161 235 161 c 0,28,29
 280 161 280 161 315 192 c 128,-1,30
 350 223 350 223 373 268 c 128,-1,31
 396 313 396 313 408.5 364 c 128,-1,32
 421 415 421 415 421 457 c 0,33,34
 421 469 421 469 419.5 483 c 128,-1,35
 418 497 418 497 413.5 509 c 128,-1,36
 409 521 409 521 399.5 529.5 c 128,-1,37
 390 538 390 538 374 538 c 0,38,39
 342 538 342 538 315 522 c 128,-1,40
 288 506 288 506 266.5 479.5 c 128,-1,41
 245 453 245 453 229 419.5 c 128,-1,42
 213 386 213 386 201.5 351.5 c 128,-1,43
 190 317 190 317 185 284 c 128,-1,44
 180 251 180 251 180 227 c 0,45,24
 180 216 180 216 184 204 c 128,-1,25
497 741 m 1,46,47
 575 741 575 741 576.5 798.5 c 128,-1,48
 578 856 578 856 576 905 c 1,49,50
 589 895 589 895 600.5 884.5 c 128,-1,51
 612 874 612 874 623 865 c 0,52,53
 635 854 635 854 645 845 c 1,54,55
 649 781 649 781 614.5 729.5 c 128,-1,56
 580 678 580 678 510 669 c 1,57,-1
 497 741 l 1,46,47
EndSplineSet
Validated: 37
EndChar

StartChar: uni1EE1
Encoding: 7905 7905 335
Width: 493
GlyphClass: 2
Flags: W
AnchorPoint: "Anchor-7" 678 876 basechar 0
AnchorPoint: "Anchor-6" 447 1021 basechar 0
AnchorPoint: "Anchor-5" 342 10 basechar 0
AnchorPoint: "Anchor-4" 148 -4 basechar 0
LayerCount: 2
Fore
SplineSet
542.5 386.5 m 128,-1,1
 525 314 525 314 496 253.5 c 128,-1,2
 467 193 467 193 428.5 145.5 c 128,-1,3
 390 98 390 98 348 64.5 c 128,-1,4
 306 31 306 31 263 13.5 c 128,-1,5
 220 -4 220 -4 181 -4 c 0,6,7
 148 -4 148 -4 121 8.5 c 128,-1,8
 94 21 94 21 74 45.5 c 128,-1,9
 54 70 54 70 42.5 108.5 c 128,-1,10
 31 147 31 147 31 201 c 0,11,12
 31 257 31 257 45 319 c 128,-1,13
 59 381 59 381 83 442 c 128,-1,14
 107 503 107 503 142 558 c 128,-1,15
 177 613 177 613 219 655.5 c 128,-1,16
 261 698 261 698 309 723 c 128,-1,17
 357 748 357 748 409 748 c 0,18,19
 454 748 454 748 483.5 729.5 c 128,-1,20
 513 711 513 711 529.5 681.5 c 128,-1,21
 546 652 546 652 553 615 c 128,-1,22
 560 578 560 578 560 541 c 0,23,0
 560 459 560 459 542.5 386.5 c 128,-1,1
184 204 m 128,-1,25
 188 192 188 192 195 183 c 128,-1,26
 202 174 202 174 212.5 167.5 c 128,-1,27
 223 161 223 161 235 161 c 0,28,29
 280 161 280 161 315 192 c 128,-1,30
 350 223 350 223 373 268 c 128,-1,31
 396 313 396 313 408.5 364 c 128,-1,32
 421 415 421 415 421 457 c 0,33,34
 421 469 421 469 419.5 483 c 128,-1,35
 418 497 418 497 413.5 509 c 128,-1,36
 409 521 409 521 399.5 529.5 c 128,-1,37
 390 538 390 538 374 538 c 0,38,39
 342 538 342 538 315 522 c 128,-1,40
 288 506 288 506 266.5 479.5 c 128,-1,41
 245 453 245 453 229 419.5 c 128,-1,42
 213 386 213 386 201.5 351.5 c 128,-1,43
 190 317 190 317 185 284 c 128,-1,44
 180 251 180 251 180 227 c 0,45,24
 180 216 180 216 184 204 c 128,-1,25
497 741 m 1,46,47
 575 741 575 741 576.5 798.5 c 128,-1,48
 578 856 578 856 576 905 c 1,49,50
 589 895 589 895 600.5 884.5 c 128,-1,51
 612 874 612 874 623 865 c 0,52,53
 635 854 635 854 645 845 c 1,54,55
 649 781 649 781 614.5 729.5 c 128,-1,56
 580 678 580 678 510 669 c 1,57,-1
 497 741 l 1,46,47
354 863.5 m 128,-1,59
 340 855 340 855 327.5 843 c 128,-1,60
 315 831 315 831 303 818 c 128,-1,61
 291 805 291 805 281 796 c 1,62,63
 268 805 268 805 258.5 813 c 128,-1,64
 249 821 249 821 241 827 c 128,-1,65
 233 833 233 833 227 840 c 1,66,67
 227 840 227 840 233 853 c 128,-1,68
 239 866 239 866 250 885.5 c 128,-1,69
 261 905 261 905 276.5 928 c 128,-1,70
 292 951 292 951 311 970.5 c 128,-1,71
 330 990 330 990 352 1003.5 c 128,-1,72
 374 1017 374 1017 400 1017 c 0,73,74
 424 1017 424 1017 442.5 1003 c 128,-1,75
 461 989 461 989 475 973 c 128,-1,76
 489 957 489 957 497.5 944 c 128,-1,77
 506 931 506 931 511 931 c 0,78,79
 526 931 526 931 540 941.5 c 128,-1,80
 554 952 554 952 567 967 c 128,-1,81
 580 982 580 982 592 997 c 128,-1,82
 604 1012 604 1012 614 1021 c 1,83,84
 626 1012 626 1012 636 1004 c 128,-1,85
 646 996 646 996 654 990 c 256,86,87
 662 984 662 984 668 977 c 1,88,89
 647 928 647 928 620 890 c 0,90,91
 609 873 609 873 595 858 c 128,-1,92
 581 843 581 843 565 831 c 128,-1,93
 549 819 549 819 531.5 811.5 c 128,-1,94
 514 804 514 804 494 804 c 0,95,96
 470 804 470 804 457.5 814.5 c 128,-1,97
 445 825 445 825 435 838 c 128,-1,98
 425 851 425 851 414.5 861.5 c 128,-1,99
 404 872 404 872 383 872 c 0,100,58
 368 872 368 872 354 863.5 c 128,-1,59
EndSplineSet
Validated: 37
EndChar

StartChar: uni01EB
Encoding: 491 491 339
Width: 493
GlyphClass: 2
Flags: W
AnchorPoint: "Anchor-7" 474 721 basechar 0
AnchorPoint: "Anchor-6" 400 750 basechar 0
AnchorPoint: "Anchor-5" 342 10 basechar 0
AnchorPoint: "Anchor-4" 148 -4 basechar 0
LayerCount: 2
Fore
SplineSet
542.5 386.5 m 128,-1,1
 525 314 525 314 496 253.5 c 128,-1,2
 467 193 467 193 428.5 145.5 c 128,-1,3
 390 98 390 98 348 64.5 c 128,-1,4
 306 31 306 31 263 13.5 c 128,-1,5
 220 -4 220 -4 181 -4 c 0,6,7
 148 -4 148 -4 121 8.5 c 128,-1,8
 94 21 94 21 74 45.5 c 128,-1,9
 54 70 54 70 42.5 108.5 c 128,-1,10
 31 147 31 147 31 201 c 0,11,12
 31 257 31 257 45 319 c 128,-1,13
 59 381 59 381 83 442 c 128,-1,14
 107 503 107 503 142 558 c 128,-1,15
 177 613 177 613 219 655.5 c 128,-1,16
 261 698 261 698 309 723 c 128,-1,17
 357 748 357 748 409 748 c 0,18,19
 454 748 454 748 483.5 729.5 c 128,-1,20
 513 711 513 711 529.5 681.5 c 128,-1,21
 546 652 546 652 553 615 c 128,-1,22
 560 578 560 578 560 541 c 0,23,0
 560 459 560 459 542.5 386.5 c 128,-1,1
184 204 m 128,-1,25
 188 192 188 192 195 183 c 128,-1,26
 202 174 202 174 212.5 167.5 c 128,-1,27
 223 161 223 161 235 161 c 0,28,29
 280 161 280 161 315 192 c 128,-1,30
 350 223 350 223 373 268 c 128,-1,31
 396 313 396 313 408.5 364 c 128,-1,32
 421 415 421 415 421 457 c 0,33,34
 421 469 421 469 419.5 483 c 128,-1,35
 418 497 418 497 413.5 509 c 128,-1,36
 409 521 409 521 399.5 529.5 c 128,-1,37
 390 538 390 538 374 538 c 0,38,39
 342 538 342 538 315 522 c 128,-1,40
 288 506 288 506 266.5 479.5 c 128,-1,41
 245 453 245 453 229 419.5 c 128,-1,42
 213 386 213 386 201.5 351.5 c 128,-1,43
 190 317 190 317 185 284 c 128,-1,44
 180 251 180 251 180 227 c 0,45,24
 180 216 180 216 184 204 c 128,-1,25
303.5 -156 m 128,-1,47
 281 -165 281 -165 258 -165 c 0,48,49
 228 -165 228 -165 203.5 -157.5 c 128,-1,50
 179 -150 179 -150 161 -137 c 128,-1,51
 143 -124 143 -124 133 -106.5 c 128,-1,52
 123 -89 123 -89 123 -68 c 0,53,54
 123 -29 123 -29 163 10 c 0,55,56
 164 10 164 10 173 11.5 c 128,-1,57
 182 13 182 13 194 15 c 128,-1,58
 206 17 206 17 223 19 c 1,59,60
 219 1 219 1 219 -11 c 0,61,62
 219 -36 219 -36 233.5 -52 c 128,-1,63
 248 -68 248 -68 269 -68 c 0,64,65
 297 -68 297 -68 322 -40 c 1,66,-1
 342 -128 l 1,67,46
 326 -147 326 -147 303.5 -156 c 128,-1,47
EndSplineSet
Validated: 5
EndChar

StartChar: oslash
Encoding: 248 248 340
Width: 493
GlyphClass: 2
Flags: W
AnchorPoint: "Anchor-7" 0 0 basechar 0
AnchorPoint: "Anchor-6" 423 745 basechar 0
AnchorPoint: "Anchor-5" 0 0 basechar 0
AnchorPoint: "Anchor-4" 0 0 basechar 0
LayerCount: 2
Fore
SplineSet
49 -8 m 1,0,-1
 -1 40 l 1,1,-1
 47 96 l 1,2,3
 31 141 31 141 31 201 c 0,4,5
 31 257 31 257 45 319 c 128,-1,6
 59 381 59 381 83 442 c 128,-1,7
 107 503 107 503 142 558 c 128,-1,8
 177 613 177 613 219 655.5 c 128,-1,9
 261 698 261 698 309 723 c 128,-1,10
 357 748 357 748 409 748 c 0,11,12
 448 748 448 748 475 734 c 128,-1,13
 502 720 502 720 520 696 c 1,14,-1
 555 742 l 1,15,-1
 606 704 l 1,16,-1
 623 724 l 1,17,-1
 550 630 l 1,18,19
 555 608 555 608 557.5 585.5 c 128,-1,20
 560 563 560 563 560 541 c 0,21,22
 560 459 560 459 542.5 386.5 c 128,-1,23
 525 314 525 314 496 253.5 c 128,-1,24
 467 193 467 193 428.5 145.5 c 128,-1,25
 390 98 390 98 348 64.5 c 128,-1,26
 306 31 306 31 263 13.5 c 128,-1,27
 220 -4 220 -4 181 -4 c 0,28,29
 121 -4 121 -4 82 35 c 1,30,-1
 49 -8 l 1,0,-1
247 168 m 0,32,33
 275 168 275 168 300.5 183 c 128,-1,34
 326 198 326 198 347.5 222 c 128,-1,35
 369 246 369 246 385.5 277.5 c 128,-1,36
 402 309 402 309 414.5 340.5 c 128,-1,37
 427 372 427 372 433 403 c 128,-1,38
 439 434 439 434 439 457 c 0,39,40
 439 473 439 473 437 484 c 1,41,-1
 196 181 l 1,42,31
 222 168 222 168 247 168 c 0,32,33
173.5 258.5 m 128,-1,44
 174 252 174 252 175 246 c 1,45,-1
 413 533 l 1,46,47
 388 576 388 576 354 576 c 0,48,49
 322 576 322 576 290.5 546.5 c 128,-1,50
 259 517 259 517 232.5 471.5 c 128,-1,51
 206 426 206 426 189.5 372 c 128,-1,52
 173 318 173 318 173 271 c 0,53,43
 173 265 173 265 173.5 258.5 c 128,-1,44
EndSplineSet
Validated: 1
EndChar

StartChar: oe
Encoding: 339 339 344
Width: 561
GlyphClass: 2
Flags: W
AnchorPoint: "Anchor-7" 0 0 basechar 0
AnchorPoint: "Anchor-6" 280 721 basechar 0
AnchorPoint: "Anchor-5" 0 0 basechar 0
AnchorPoint: "Anchor-4" 280 0 basechar 0
LayerCount: 2
Fore
SplineSet
248 10 m 2,0,1
 190 10 190 10 150 27.5 c 128,-1,2
 110 45 110 45 84.5 75 c 128,-1,3
 59 105 59 105 47 146.5 c 128,-1,4
 35 188 35 188 35 234 c 0,5,6
 35 284 35 284 48 339 c 128,-1,7
 61 394 61 394 83.5 446 c 128,-1,8
 106 498 106 498 138.5 546 c 128,-1,9
 171 594 171 594 210.5 631 c 128,-1,10
 250 668 250 668 295 692 c 128,-1,11
 340 716 340 716 389 720 c 2,12,-1
 675 739 l 1,13,14
 668 717 668 717 663 694 c 0,15,16
 658 675 658 675 653 654.5 c 128,-1,17
 648 634 648 634 646 618 c 1,18,-1
 634 618 l 2,19,20
 612 618 612 618 580.5 620.5 c 128,-1,21
 549 623 549 623 521 623 c 1,22,-1
 486 443 l 1,23,24
 504 442 504 442 521 442 c 0,25,26
 536 441 536 441 553 441 c 128,-1,27
 570 441 570 441 584 441 c 2,28,-1
 600 441 l 1,29,30
 596 413 596 413 592.5 386 c 128,-1,31
 589 359 589 359 584 331 c 0,32,33
 580 331 580 331 575.5 330.5 c 128,-1,34
 571 330 571 330 566 330 c 0,35,36
 553 330 553 330 536.5 330.5 c 128,-1,37
 520 331 520 331 504 332 c 128,-1,38
 488 333 488 333 473 334 c 1,39,-1
 438 149 l 1,40,-1
 561 165 l 1,41,-1
 551 51 l 1,42,-1
 258 10 l 1,43,-1
 248 10 l 2,0,1
199.5 199.5 m 128,-1,45
 221 171 221 171 270 171 c 0,46,47
 274 171 274 171 278 171 c 128,-1,48
 282 171 282 171 287 172 c 1,49,-1
 356 546 l 1,50,51
 324 541 324 541 292.5 512.5 c 128,-1,52
 261 484 261 484 235 443.5 c 128,-1,53
 209 403 209 403 193.5 356.5 c 128,-1,54
 178 310 178 310 178 270 c 0,55,44
 178 228 178 228 199.5 199.5 c 128,-1,45
EndSplineSet
Validated: 1
EndChar

StartChar: p
Encoding: 112 112 345
Width: 379
GlyphClass: 2
Flags: W
AnchorPoint: "Anchor-7" 0 0 basechar 0
AnchorPoint: "Anchor-6" 310 721 basechar 0
AnchorPoint: "Anchor-5" 0 0 basechar 0
AnchorPoint: "Anchor-4" 189 0 basechar 0
LayerCount: 2
Fore
SplineSet
-3 -1 m 1,0,1
 27 134 27 134 54 263 c 0,2,3
 65 317 65 317 77 377 c 128,-1,4
 89 437 89 437 100 495 c 128,-1,5
 111 553 111 553 121 607 c 128,-1,6
 131 661 131 661 138 706 c 1,7,8
 167 715 167 715 195 721.5 c 128,-1,9
 223 728 223 728 252.5 733 c 128,-1,10
 282 738 282 738 308 738 c 0,11,12
 353 738 353 738 383.5 723 c 128,-1,13
 414 708 414 708 433 682.5 c 128,-1,14
 452 657 452 657 460 623 c 128,-1,15
 468 589 468 589 468 550 c 0,16,17
 468 494 468 494 447.5 442 c 128,-1,18
 427 390 427 390 392.5 349.5 c 128,-1,19
 358 309 358 309 313.5 285 c 128,-1,20
 269 261 269 261 221 261 c 2,21,-1
 210 261 l 1,22,23
 202 227 202 227 195 187 c 128,-1,24
 188 147 188 147 183 113 c 0,25,26
 176 73 176 73 170 33 c 1,27,-1
 -3 -1 l 1,0,1
254 492 m 128,-1,29
 243 433 243 433 230 366 c 1,30,31
 246 370 246 370 263.5 384.5 c 128,-1,32
 281 399 281 399 296 422.5 c 128,-1,33
 311 446 311 446 320 477 c 128,-1,34
 329 508 329 508 329 542 c 0,35,36
 329 579 329 579 312.5 598 c 128,-1,37
 296 617 296 617 276 617 c 1,38,28
 265 551 265 551 254 492 c 128,-1,29
EndSplineSet
Validated: 1
EndChar

StartChar: thorn
Encoding: 254 254 346
Width: 386
GlyphClass: 2
Flags: W
AnchorPoint: "Anchor-7" 0 0 basechar 0
AnchorPoint: "Anchor-6" 193 721 basechar 0
AnchorPoint: "Anchor-5" 0 0 basechar 0
AnchorPoint: "Anchor-4" 193 0 basechar 0
LayerCount: 2
Fore
SplineSet
1 -1 m 1,0,1
 31 141 31 141 58 275 c 0,2,3
 69 333 69 333 81 394.5 c 128,-1,4
 93 456 93 456 104 515.5 c 128,-1,5
 115 575 115 575 125 630.5 c 128,-1,6
 135 686 135 686 142 730 c 1,7,8
 184 735 184 735 216.5 738.5 c 128,-1,9
 249 742 249 742 275.5 745 c 128,-1,10
 302 748 302 748 308 748 c 1,11,-1
 287 648 l 1,12,13
 333 648 333 648 365 632.5 c 128,-1,14
 397 617 397 617 417.5 590.5 c 128,-1,15
 438 564 438 564 447 529 c 128,-1,16
 456 494 456 494 456 455 c 0,17,18
 456 399 456 399 435 348 c 128,-1,19
 414 297 414 297 379.5 257.5 c 128,-1,20
 345 218 345 218 300.5 194.5 c 128,-1,21
 256 171 256 171 209 171 c 2,22,-1
 198 171 l 1,23,24
 190 137 190 137 186 111.5 c 128,-1,25
 182 86 182 86 179 68 c 0,26,27
 175 48 175 48 174 33 c 1,28,-1
 1 -1 l 1,0,1
242 402 m 128,-1,30
 231 343 231 343 219 276 c 1,31,32
 234 280 234 280 252 295 c 128,-1,33
 270 310 270 310 284.5 333 c 128,-1,34
 299 356 299 356 308 387 c 128,-1,35
 317 418 317 418 317 452 c 0,36,37
 317 489 317 489 300.5 508 c 128,-1,38
 284 527 284 527 265 527 c 1,39,29
 253 461 253 461 242 402 c 128,-1,30
EndSplineSet
Validated: 1
EndChar

StartChar: q
Encoding: 113 113 347
Width: 525
GlyphClass: 2
Flags: W
AnchorPoint: "Anchor-7" 0 0 basechar 0
AnchorPoint: "Anchor-6" 398 721 basechar 0
AnchorPoint: "Anchor-5" 0 0 basechar 0
AnchorPoint: "Anchor-4" 263 0 basechar 0
LayerCount: 2
Fore
SplineSet
486.5 -4.5 m 128,-1,1
 466 -30 466 -30 451 -48 c 1,2,3
 431 -20 431 -20 409.5 9 c 128,-1,4
 388 38 388 38 368 68 c 2,5,-1
 363 76 l 1,6,7
 317 37 317 37 270.5 16.5 c 128,-1,8
 224 -4 224 -4 181 -4 c 0,9,10
 148 -4 148 -4 121 8.5 c 128,-1,11
 94 21 94 21 74 45.5 c 128,-1,12
 54 70 54 70 42.5 108.5 c 128,-1,13
 31 147 31 147 31 201 c 0,14,15
 31 257 31 257 45 319 c 128,-1,16
 59 381 59 381 83 442 c 128,-1,17
 107 503 107 503 142 558 c 128,-1,18
 177 613 177 613 219 655.5 c 128,-1,19
 261 698 261 698 309 723 c 128,-1,20
 357 748 357 748 409 748 c 0,21,22
 454 748 454 748 483.5 729.5 c 128,-1,23
 513 711 513 711 529.5 681.5 c 128,-1,24
 546 652 546 652 553 615 c 128,-1,25
 560 578 560 578 560 541 c 0,26,27
 560 443 560 443 536 360.5 c 128,-1,28
 512 278 512 278 474 212 c 1,29,-1
 569 100 l 1,30,31
 547 71 547 71 525 44 c 0,32,0
 507 21 507 21 486.5 -4.5 c 128,-1,1
184 204 m 128,-1,34
 188 192 188 192 195 183 c 128,-1,35
 202 174 202 174 212.5 167.5 c 128,-1,36
 223 161 223 161 235 161 c 0,37,38
 270 161 270 161 299 180 c 1,39,-1
 259 246 l 1,40,41
 301 278 301 278 323.5 296 c 128,-1,42
 346 314 346 314 356 322 c 0,43,44
 368 332 368 332 370 334 c 2,45,-1
 392 309 l 1,46,47
 405 346 405 346 413 385 c 128,-1,48
 421 424 421 424 421 457 c 0,49,50
 421 469 421 469 419.5 483 c 128,-1,51
 418 497 418 497 413.5 509 c 128,-1,52
 409 521 409 521 399.5 529.5 c 128,-1,53
 390 538 390 538 374 538 c 0,54,55
 342 538 342 538 315 522 c 128,-1,56
 288 506 288 506 266.5 479.5 c 128,-1,57
 245 453 245 453 229 419.5 c 128,-1,58
 213 386 213 386 201.5 351.5 c 128,-1,59
 190 317 190 317 185 284 c 128,-1,60
 180 251 180 251 180 227 c 0,61,33
 180 216 180 216 184 204 c 128,-1,34
EndSplineSet
Validated: 1
EndChar

StartChar: r
Encoding: 114 114 348
Width: 444
GlyphClass: 2
Flags: W
AnchorPoint: "Anchor-7" 0 0 basechar 0
AnchorPoint: "Anchor-6" 361 721 basechar 0
AnchorPoint: "Anchor-5" 0 0 basechar 0
AnchorPoint: "Anchor-4" 223 0 basechar 0
LayerCount: 2
Fore
SplineSet
4 -1 m 1,0,1
 31 132 31 132 56 259 c 0,2,3
 65 313 65 313 76 371.5 c 128,-1,4
 87 430 87 430 96.5 487.5 c 128,-1,5
 106 545 106 545 114.5 598.5 c 128,-1,6
 123 652 123 652 128 696 c 1,7,8
 185 714 185 714 251 722.5 c 128,-1,9
 317 731 317 731 382 731 c 0,10,11
 421 731 421 731 446.5 722 c 128,-1,12
 472 713 472 713 486.5 696.5 c 128,-1,13
 501 680 501 680 507 658 c 128,-1,14
 513 636 513 636 513 609 c 0,15,16
 513 569 513 569 499 530.5 c 128,-1,17
 485 492 485 492 461.5 457.5 c 128,-1,18
 438 423 438 423 407.5 394.5 c 128,-1,19
 377 366 377 366 342 348 c 1,20,21
 360 308 360 308 380.5 260.5 c 128,-1,22
 401 213 401 213 419 170 c 0,23,24
 439 120 439 120 460 70 c 1,25,-1
 305 16 l 1,26,27
 285 80 285 80 269 136 c 0,28,29
 262 159 262 159 255 183.5 c 128,-1,30
 248 208 248 208 242 230 c 128,-1,31
 236 252 236 252 232 269.5 c 128,-1,32
 228 287 228 287 227 298 c 1,33,-1
 214 294 l 1,34,35
 208 262 208 262 199.5 219 c 128,-1,36
 191 176 191 176 184 136 c 0,37,38
 175 89 175 89 166 41 c 1,39,-1
 4 -1 l 1,0,1
239 433 m 1,40,41
 258 435 258 435 285.5 449 c 128,-1,42
 313 463 313 463 338 482.5 c 128,-1,43
 363 502 363 502 381 523 c 128,-1,44
 399 544 399 544 399 560 c 0,45,46
 399 571 399 571 392 577.5 c 128,-1,47
 385 584 385 584 372.5 587.5 c 128,-1,48
 360 591 360 591 345 592 c 128,-1,49
 330 593 330 593 314 593 c 0,50,51
 303 593 303 593 291.5 592.5 c 128,-1,52
 280 592 280 592 271 592 c 1,53,-1
 239 433 l 1,40,41
EndSplineSet
Validated: 1
EndChar

StartChar: s
Encoding: 115 115 354
Width: 430
GlyphClass: 2
Flags: W
AnchorPoint: "Anchor-7" 0 0 basechar 0
AnchorPoint: "Anchor-6" 358 721 basechar 0
AnchorPoint: "Anchor-5" 0 0 basechar 0
AnchorPoint: "Anchor-4" 215 0 basechar 0
LayerCount: 2
Fore
SplineSet
421.5 145.5 m 128,-1,1
 400 100 400 100 363.5 67 c 128,-1,2
 327 34 327 34 277.5 16 c 128,-1,3
 228 -2 228 -2 171 -2 c 0,4,5
 131 -2 131 -2 91 19.5 c 128,-1,6
 51 41 51 41 14 88 c 1,7,-1
 88 233 l 1,8,9
 95 220 95 220 109 206.5 c 128,-1,10
 123 193 123 193 140.5 183 c 128,-1,11
 158 173 158 173 175.5 166.5 c 128,-1,12
 193 160 193 160 207 160 c 0,13,14
 219 160 219 160 232 164 c 128,-1,15
 245 168 245 168 256 176 c 128,-1,16
 267 184 267 184 273.5 194.5 c 128,-1,17
 280 205 280 205 280 219 c 0,18,19
 280 243 280 243 264.5 263.5 c 128,-1,20
 249 284 249 284 226 302.5 c 128,-1,21
 203 321 203 321 176 340 c 128,-1,22
 149 359 149 359 126.5 380 c 128,-1,23
 104 401 104 401 88 427 c 128,-1,24
 72 453 72 453 72 485 c 0,25,26
 72 537 72 537 103 582 c 128,-1,27
 134 627 134 627 180.5 659.5 c 128,-1,28
 227 692 227 692 282 711 c 128,-1,29
 337 730 337 730 386 730 c 0,30,31
 413 730 413 730 437 723.5 c 128,-1,32
 461 717 461 717 478.5 702.5 c 128,-1,33
 496 688 496 688 506.5 666 c 128,-1,34
 517 644 517 644 517 611 c 0,35,36
 517 597 517 597 514.5 583 c 128,-1,37
 512 569 512 569 510 553 c 1,38,-1
 365 511 l 1,39,40
 367 519 367 519 368.5 527 c 128,-1,41
 370 535 370 535 370 543 c 0,42,43
 370 573 370 573 359.5 586.5 c 128,-1,44
 349 600 349 600 332 600 c 0,45,46
 324 600 324 600 312.5 594 c 128,-1,47
 301 588 301 588 289.5 578.5 c 128,-1,48
 278 569 278 569 270 556 c 128,-1,49
 262 543 262 543 262 528 c 0,50,51
 262 504 262 504 275.5 488 c 128,-1,52
 289 472 289 472 309 458 c 128,-1,53
 329 444 329 444 352.5 429.5 c 128,-1,54
 376 415 376 415 396 392 c 128,-1,55
 416 369 416 369 429.5 334.5 c 128,-1,56
 443 300 443 300 443 247 c 0,57,0
 443 191 443 191 421.5 145.5 c 128,-1,1
EndSplineSet
Validated: 1
EndChar

StartChar: scedilla
Encoding: 351 351 357
Width: 430
GlyphClass: 2
Flags: W
AnchorPoint: "Anchor-7" 0 0 basechar 0
AnchorPoint: "Anchor-6" 358 721 basechar 0
AnchorPoint: "Anchor-5" 0 0 basechar 0
AnchorPoint: "Anchor-4" 215 -165 basechar 0
LayerCount: 2
Fore
SplineSet
421.5 145.5 m 128,-1,1
 400 100 400 100 363.5 67 c 128,-1,2
 327 34 327 34 277.5 16 c 128,-1,3
 228 -2 228 -2 171 -2 c 0,4,5
 131 -2 131 -2 91 19.5 c 128,-1,6
 51 41 51 41 14 88 c 1,7,-1
 88 233 l 1,8,9
 95 220 95 220 109 206.5 c 128,-1,10
 123 193 123 193 140.5 183 c 128,-1,11
 158 173 158 173 175.5 166.5 c 128,-1,12
 193 160 193 160 207 160 c 0,13,14
 219 160 219 160 232 164 c 128,-1,15
 245 168 245 168 256 176 c 128,-1,16
 267 184 267 184 273.5 194.5 c 128,-1,17
 280 205 280 205 280 219 c 0,18,19
 280 243 280 243 264.5 263.5 c 128,-1,20
 249 284 249 284 226 302.5 c 128,-1,21
 203 321 203 321 176 340 c 128,-1,22
 149 359 149 359 126.5 380 c 128,-1,23
 104 401 104 401 88 427 c 128,-1,24
 72 453 72 453 72 485 c 0,25,26
 72 537 72 537 103 582 c 128,-1,27
 134 627 134 627 180.5 659.5 c 128,-1,28
 227 692 227 692 282 711 c 128,-1,29
 337 730 337 730 386 730 c 0,30,31
 413 730 413 730 437 723.5 c 128,-1,32
 461 717 461 717 478.5 702.5 c 128,-1,33
 496 688 496 688 506.5 666 c 128,-1,34
 517 644 517 644 517 611 c 0,35,36
 517 597 517 597 514.5 583 c 128,-1,37
 512 569 512 569 510 553 c 1,38,-1
 365 511 l 1,39,40
 367 519 367 519 368.5 527 c 128,-1,41
 370 535 370 535 370 543 c 0,42,43
 370 573 370 573 359.5 586.5 c 128,-1,44
 349 600 349 600 332 600 c 0,45,46
 324 600 324 600 312.5 594 c 128,-1,47
 301 588 301 588 289.5 578.5 c 128,-1,48
 278 569 278 569 270 556 c 128,-1,49
 262 543 262 543 262 528 c 0,50,51
 262 504 262 504 275.5 488 c 128,-1,52
 289 472 289 472 309 458 c 128,-1,53
 329 444 329 444 352.5 429.5 c 128,-1,54
 376 415 376 415 396 392 c 128,-1,55
 416 369 416 369 429.5 334.5 c 128,-1,56
 443 300 443 300 443 247 c 0,57,0
 443 191 443 191 421.5 145.5 c 128,-1,1
314.5 -106.5 m 128,-1,59
 304 -124 304 -124 286 -137 c 128,-1,60
 268 -150 268 -150 243.5 -157.5 c 128,-1,61
 219 -165 219 -165 190 -165 c 0,62,63
 166 -165 166 -165 143.5 -156 c 128,-1,64
 121 -147 121 -147 106 -128 c 1,65,-1
 125 -40 l 1,66,67
 151 -68 151 -68 178 -68 c 0,68,69
 200 -68 200 -68 214.5 -52 c 128,-1,70
 229 -36 229 -36 229 -11 c 0,71,72
 229 1 229 1 224 19 c 1,73,74
 242 17 242 17 253.5 15 c 128,-1,75
 265 13 265 13 274.5 11.5 c 128,-1,76
 284 10 284 10 285 10 c 0,77,78
 325 -29 325 -29 325 -68 c 0,79,58
 325 -89 325 -89 314.5 -106.5 c 128,-1,59
EndSplineSet
Validated: 5
Substitution2: "'locl' Localized Forms in Latin lookup 6 subtable" scommaaccent
Substitution2: "'locl' Localized Forms in Latin lookup 5 subtable" scommaaccent
Substitution2: "'aalt' Access All Alternates in Latin lookup 0 subtable" scommaaccent
EndChar

StartChar: germandbls
Encoding: 223 223 360
Width: 438
GlyphClass: 2
Flags: W
AnchorPoint: "Anchor-7" 0 0 basechar 0
AnchorPoint: "Anchor-6" 220 721 basechar 0
AnchorPoint: "Anchor-5" 0 0 basechar 0
AnchorPoint: "Anchor-4" 220 0 basechar 0
LayerCount: 2
Fore
SplineSet
438.5 104.5 m 128,-1,1
 431 71 431 71 412.5 46 c 128,-1,2
 394 21 394 21 364 5.5 c 128,-1,3
 334 -10 334 -10 289 -10 c 0,4,5
 264 -10 264 -10 241.5 2 c 128,-1,6
 219 14 219 14 199 40 c 1,7,-1
 229 186 l 1,8,9
 236 161 236 161 250 146.5 c 128,-1,10
 264 132 264 132 276 132 c 0,11,12
 287 132 287 132 294 142 c 128,-1,13
 301 152 301 152 301 176 c 0,14,15
 301 206 301 206 292 225.5 c 128,-1,16
 283 245 283 245 273 265.5 c 128,-1,17
 263 286 263 286 254.5 314.5 c 128,-1,18
 246 343 246 343 246 392 c 0,19,20
 246 433 246 433 267.5 466 c 128,-1,21
 289 499 289 499 314.5 525 c 128,-1,22
 340 551 340 551 361.5 570 c 128,-1,23
 383 589 383 589 383 601 c 0,24,25
 383 611 383 611 357.5 616.5 c 128,-1,26
 332 622 332 622 268 622 c 1,27,28
 258 565 258 565 244.5 488 c 128,-1,29
 231 411 231 411 217.5 328 c 128,-1,30
 204 245 204 245 191.5 164 c 128,-1,31
 179 83 179 83 170 20 c 1,32,33
 161 20 161 20 134.5 17.5 c 128,-1,34
 108 15 108 15 80 11.5 c 128,-1,35
 52 8 52 8 29.5 5 c 128,-1,36
 7 2 7 2 5 1 c 1,37,38
 15 44 15 44 26.5 98.5 c 128,-1,39
 38 153 38 153 49.5 213.5 c 128,-1,40
 61 274 61 274 72 336.5 c 128,-1,41
 83 399 83 399 100.5 497.5 c 128,-1,42
 118 596 118 596 142 742 c 1,43,44
 254 742 254 742 327 732.5 c 128,-1,45
 400 723 400 723 443 705.5 c 128,-1,46
 486 688 486 688 503 665.5 c 128,-1,47
 520 643 520 643 520 616 c 0,48,49
 520 566 520 566 500 532.5 c 128,-1,50
 480 499 480 499 456 473.5 c 128,-1,51
 432 448 432 448 410.5 427.5 c 128,-1,52
 389 407 389 407 386 385 c 2,53,-1
 386 383 l 2,54,55
 386 374 386 374 395 354.5 c 128,-1,56
 404 335 404 335 416 307.5 c 128,-1,57
 428 280 428 280 437 246.5 c 128,-1,58
 446 213 446 213 446 175 c 0,59,0
 446 138 446 138 438.5 104.5 c 128,-1,1
EndSplineSet
Validated: 1
EndChar

StartChar: t
Encoding: 116 116 361
Width: 362
GlyphClass: 2
Flags: W
AnchorPoint: "Anchor-7" 343 721 basechar 0
AnchorPoint: "Anchor-6" 297 721 basechar 0
AnchorPoint: "Anchor-5" 0 0 basechar 0
AnchorPoint: "Anchor-4" 182 0 basechar 0
LayerCount: 2
Fore
SplineSet
90 -1 m 1,0,1
 113 109 113 109 134 216 c 0,2,3
 143 261 143 261 152 310 c 128,-1,4
 161 359 161 359 169.5 406.5 c 128,-1,5
 178 454 178 454 184.5 498.5 c 128,-1,6
 191 543 191 543 196 580 c 1,7,8
 173 583 173 583 149.5 582 c 128,-1,9
 126 581 126 581 103 588 c 1,10,11
 104 604 104 604 104 625 c 128,-1,12
 104 646 104 646 105 667 c 0,13,14
 106 690 106 690 107 716 c 1,15,16
 133 714 133 714 159 713 c 128,-1,17
 185 712 185 712 211 712 c 0,18,19
 262 712 262 712 309.5 714.5 c 128,-1,20
 357 717 357 717 397.5 720.5 c 128,-1,21
 438 724 438 724 477 729 c 1,22,-1
 466 675 l 2,23,24
 461 652 461 652 456.5 628 c 128,-1,25
 452 604 452 604 448 587 c 1,26,27
 426 581 426 581 403.5 578.5 c 128,-1,28
 381 576 381 576 359 572 c 1,29,30
 352 538 352 538 344 496.5 c 128,-1,31
 336 455 336 455 328.5 410.5 c 128,-1,32
 321 366 321 366 314 320 c 128,-1,33
 307 274 307 274 300 232 c 0,34,35
 284 133 284 133 270 27 c 1,36,-1
 90 -1 l 1,0,1
EndSplineSet
Validated: 33
EndChar

StartChar: tbar
Encoding: 359 359 362
Width: 362
GlyphClass: 2
Flags: W
AnchorPoint: "Anchor-7" 343 721 basechar 0
AnchorPoint: "Anchor-6" 297 721 basechar 0
AnchorPoint: "Anchor-5" 0 0 basechar 0
AnchorPoint: "Anchor-4" 182 0 basechar 0
LayerCount: 2
Fore
SplineSet
90 -1 m 1,0,1
 113 109 113 109 134 216 c 0,2,3
 143 261 143 261 152 310 c 128,-1,4
 161 359 161 359 169.5 406.5 c 128,-1,5
 178 454 178 454 184.5 498.5 c 128,-1,6
 191 543 191 543 196 580 c 1,7,8
 173 583 173 583 149.5 582 c 128,-1,9
 126 581 126 581 103 588 c 1,10,11
 104 604 104 604 104 625 c 128,-1,12
 104 646 104 646 105 667 c 0,13,14
 106 690 106 690 107 716 c 1,15,16
 133 714 133 714 159 713 c 128,-1,17
 185 712 185 712 211 712 c 0,18,19
 262 712 262 712 309.5 714.5 c 128,-1,20
 357 717 357 717 397.5 720.5 c 128,-1,21
 438 724 438 724 477 729 c 1,22,-1
 466 675 l 2,23,24
 461 652 461 652 456.5 628 c 128,-1,25
 452 604 452 604 448 587 c 1,26,27
 426 581 426 581 403.5 578.5 c 128,-1,28
 381 576 381 576 359 572 c 1,29,30
 352 538 352 538 344 496.5 c 128,-1,31
 336 455 336 455 328.5 410.5 c 128,-1,32
 321 366 321 366 314 320 c 128,-1,33
 307 274 307 274 300 232 c 0,34,35
 284 133 284 133 270 27 c 1,36,-1
 90 -1 l 1,0,1
365 238 m 1,37,38
 330 239 330 239 298.5 240 c 128,-1,39
 267 241 267 241 234.5 241.5 c 128,-1,40
 202 242 202 242 180 242 c 0,41,42
 162 242 162 242 138.5 241.5 c 128,-1,43
 115 241 115 241 91 240 c 128,-1,44
 67 239 67 239 41 239 c 1,45,-1
 89 416 l 1,46,47
 116 415 116 415 140.5 414 c 128,-1,48
 165 413 165 413 190 412.5 c 128,-1,49
 215 412 215 412 232 412 c 0,50,51
 253 412 253 412 282 412.5 c 128,-1,52
 311 413 311 413 339.5 414 c 128,-1,53
 368 415 368 415 399 417 c 1,54,-1
 365 238 l 1,37,38
EndSplineSet
Validated: 37
EndChar

StartChar: uni0163
Encoding: 355 355 364
Width: 362
GlyphClass: 2
Flags: W
AnchorPoint: "Anchor-7" 343 721 basechar 0
AnchorPoint: "Anchor-6" 297 721 basechar 0
AnchorPoint: "Anchor-5" 0 0 basechar 0
AnchorPoint: "Anchor-4" 182 -165 basechar 0
LayerCount: 2
Fore
SplineSet
90 -1 m 1,0,1
 113 109 113 109 134 216 c 0,2,3
 143 261 143 261 152 310 c 128,-1,4
 161 359 161 359 169.5 406.5 c 128,-1,5
 178 454 178 454 184.5 498.5 c 128,-1,6
 191 543 191 543 196 580 c 1,7,8
 173 583 173 583 149.5 582 c 128,-1,9
 126 581 126 581 103 588 c 1,10,11
 104 604 104 604 104 625 c 128,-1,12
 104 646 104 646 105 667 c 0,13,14
 106 690 106 690 107 716 c 1,15,16
 133 714 133 714 159 713 c 128,-1,17
 185 712 185 712 211 712 c 0,18,19
 262 712 262 712 309.5 714.5 c 128,-1,20
 357 717 357 717 397.5 720.5 c 128,-1,21
 438 724 438 724 477 729 c 1,22,-1
 466 675 l 2,23,24
 461 652 461 652 456.5 628 c 128,-1,25
 452 604 452 604 448 587 c 1,26,27
 426 581 426 581 403.5 578.5 c 128,-1,28
 381 576 381 576 359 572 c 1,29,30
 352 538 352 538 344 496.5 c 128,-1,31
 336 455 336 455 328.5 410.5 c 128,-1,32
 321 366 321 366 314 320 c 128,-1,33
 307 274 307 274 300 232 c 0,34,35
 284 133 284 133 270 27 c 1,36,-1
 90 -1 l 1,0,1
281.5 -106.5 m 128,-1,38
 271 -124 271 -124 253 -137 c 128,-1,39
 235 -150 235 -150 210.5 -157.5 c 128,-1,40
 186 -165 186 -165 157 -165 c 0,41,42
 133 -165 133 -165 110.5 -156 c 128,-1,43
 88 -147 88 -147 73 -128 c 1,44,-1
 92 -40 l 1,45,46
 118 -68 118 -68 145 -68 c 0,47,48
 167 -68 167 -68 181.5 -52 c 128,-1,49
 196 -36 196 -36 196 -11 c 0,50,51
 196 1 196 1 191 19 c 1,52,53
 209 17 209 17 220.5 15 c 128,-1,54
 232 13 232 13 241.5 11.5 c 128,-1,55
 251 10 251 10 252 10 c 0,56,57
 292 -29 292 -29 292 -68 c 0,58,37
 292 -89 292 -89 281.5 -106.5 c 128,-1,38
EndSplineSet
Validated: 37
Substitution2: "'locl' Localized Forms in Latin lookup 6 subtable" uni021B
Substitution2: "'locl' Localized Forms in Latin lookup 5 subtable" uni021B
Substitution2: "'aalt' Access All Alternates in Latin lookup 0 subtable" uni021B
EndChar

StartChar: u
Encoding: 117 117 366
Width: 419
GlyphClass: 2
Flags: W
AnchorPoint: "Anchor-7" 448 691 basechar 0
AnchorPoint: "Anchor-6" 380 721 basechar 0
AnchorPoint: "Anchor-5" 377 10 basechar 0
AnchorPoint: "Anchor-4" 171 -20 basechar 0
LayerCount: 2
Fore
SplineSet
376.5 98 m 128,-1,1
 351 58 351 58 316.5 32 c 128,-1,2
 282 6 282 6 243 -6 c 128,-1,3
 204 -18 204 -18 165 -18 c 0,4,5
 142 -18 142 -18 118 -10.5 c 128,-1,6
 94 -3 94 -3 75 12 c 128,-1,7
 56 27 56 27 43.5 50 c 128,-1,8
 31 73 31 73 31 104 c 0,9,10
 31 108 31 108 31 112 c 128,-1,11
 31 116 31 116 32 120 c 0,12,13
 36 161 36 161 45 219 c 128,-1,14
 54 277 54 277 64 340 c 128,-1,15
 74 403 74 403 86 466.5 c 128,-1,16
 98 530 98 530 107.5 582 c 128,-1,17
 117 634 117 634 124 668.5 c 128,-1,18
 131 703 131 703 133 711 c 1,19,20
 154 713 154 713 183 716 c 128,-1,21
 212 719 212 719 237 721 c 0,22,23
 268 724 268 724 298 727 c 1,24,25
 272 606 272 606 252 508 c 0,26,27
 243 466 243 466 234.5 424 c 128,-1,28
 226 382 226 382 218.5 347 c 128,-1,29
 211 312 211 312 205.5 286.5 c 128,-1,30
 200 261 200 261 196.5 245 c 128,-1,31
 193 229 193 229 188.5 204.5 c 128,-1,32
 184 180 184 180 184 160 c 0,33,34
 184 144 184 144 192 133.5 c 128,-1,35
 200 123 200 123 212 123 c 0,36,37
 229 123 229 123 240 136.5 c 128,-1,38
 251 150 251 150 258.5 169 c 128,-1,39
 266 188 266 188 269.5 207.5 c 128,-1,40
 273 227 273 227 276 238 c 0,41,42
 282 267 282 267 289.5 302.5 c 128,-1,43
 297 338 297 338 304.5 376.5 c 128,-1,44
 312 415 312 415 319.5 455 c 128,-1,45
 327 495 327 495 334 533 c 0,46,47
 351 621 351 621 367 715 c 1,48,-1
 519 725 l 1,49,50
 519 725 519 725 514 699 c 128,-1,51
 509 673 509 673 501 630 c 128,-1,52
 493 587 493 587 483.5 532 c 128,-1,53
 474 477 474 477 462 417.5 c 128,-1,54
 450 358 450 358 438.5 300.5 c 128,-1,55
 427 243 427 243 416 195 c 0,56,0
 402 138 402 138 376.5 98 c 128,-1,1
EndSplineSet
Validated: 1
EndChar

StartChar: uhorn
Encoding: 432 432 375
Width: 419
GlyphClass: 2
Flags: W
AnchorPoint: "Anchor-7" 652 846 basechar 0
AnchorPoint: "Anchor-6" 298 721 basechar 0
AnchorPoint: "Anchor-5" 377 10 basechar 0
AnchorPoint: "Anchor-4" 210 0 basechar 0
LayerCount: 2
Fore
SplineSet
376.5 98 m 128,-1,1
 351 58 351 58 316.5 32 c 128,-1,2
 282 6 282 6 243 -6 c 128,-1,3
 204 -18 204 -18 165 -18 c 0,4,5
 142 -18 142 -18 118 -10.5 c 128,-1,6
 94 -3 94 -3 75 12 c 128,-1,7
 56 27 56 27 43.5 50 c 128,-1,8
 31 73 31 73 31 104 c 0,9,10
 31 108 31 108 31 112 c 128,-1,11
 31 116 31 116 32 120 c 0,12,13
 36 161 36 161 45 219 c 128,-1,14
 54 277 54 277 64 340 c 128,-1,15
 74 403 74 403 86 466.5 c 128,-1,16
 98 530 98 530 107.5 582 c 128,-1,17
 117 634 117 634 124 668.5 c 128,-1,18
 131 703 131 703 133 711 c 1,19,20
 154 713 154 713 183 716 c 128,-1,21
 212 719 212 719 237 721 c 0,22,23
 268 724 268 724 298 727 c 1,24,25
 272 606 272 606 252 508 c 0,26,27
 243 466 243 466 234.5 424 c 128,-1,28
 226 382 226 382 218.5 347 c 128,-1,29
 211 312 211 312 205.5 286.5 c 128,-1,30
 200 261 200 261 196.5 245 c 128,-1,31
 193 229 193 229 188.5 204.5 c 128,-1,32
 184 180 184 180 184 160 c 0,33,34
 184 144 184 144 192 133.5 c 128,-1,35
 200 123 200 123 212 123 c 0,36,37
 229 123 229 123 240 136.5 c 128,-1,38
 251 150 251 150 258.5 169 c 128,-1,39
 266 188 266 188 269.5 207.5 c 128,-1,40
 273 227 273 227 276 238 c 0,41,42
 282 267 282 267 289.5 302.5 c 128,-1,43
 297 338 297 338 304.5 376.5 c 128,-1,44
 312 415 312 415 319.5 455 c 128,-1,45
 327 495 327 495 334 533 c 0,46,47
 351 621 351 621 367 715 c 1,48,-1
 519 725 l 1,49,50
 519 725 519 725 514 699 c 128,-1,51
 509 673 509 673 501 630 c 128,-1,52
 493 587 493 587 483.5 532 c 128,-1,53
 474 477 474 477 462 417.5 c 128,-1,54
 450 358 450 358 438.5 300.5 c 128,-1,55
 427 243 427 243 416 195 c 0,56,0
 402 138 402 138 376.5 98 c 128,-1,1
471 711 m 1,57,58
 549 711 549 711 550.5 768.5 c 128,-1,59
 552 826 552 826 550 875 c 1,60,61
 563 865 563 865 574.5 854.5 c 128,-1,62
 586 844 586 844 597 835 c 0,63,64
 609 824 609 824 619 815 c 1,65,66
 623 751 623 751 588.5 699.5 c 128,-1,67
 554 648 554 648 484 639 c 1,68,-1
 471 711 l 1,57,58
EndSplineSet
Validated: 37
EndChar

StartChar: uni1EF1
Encoding: 7921 7921 377
Width: 419
GlyphClass: 2
Flags: W
AnchorPoint: "Anchor-7" 652 846 basechar 0
AnchorPoint: "Anchor-6" 298 721 basechar 0
AnchorPoint: "Anchor-5" 377 10 basechar 0
AnchorPoint: "Anchor-4" 210 -182 basechar 0
LayerCount: 2
Fore
SplineSet
376.5 98 m 128,-1,1
 351 58 351 58 316.5 32 c 128,-1,2
 282 6 282 6 243 -6 c 128,-1,3
 204 -18 204 -18 165 -18 c 0,4,5
 142 -18 142 -18 118 -10.5 c 128,-1,6
 94 -3 94 -3 75 12 c 128,-1,7
 56 27 56 27 43.5 50 c 128,-1,8
 31 73 31 73 31 104 c 0,9,10
 31 108 31 108 31 112 c 128,-1,11
 31 116 31 116 32 120 c 0,12,13
 36 161 36 161 45 219 c 128,-1,14
 54 277 54 277 64 340 c 128,-1,15
 74 403 74 403 86 466.5 c 128,-1,16
 98 530 98 530 107.5 582 c 128,-1,17
 117 634 117 634 124 668.5 c 128,-1,18
 131 703 131 703 133 711 c 1,19,20
 154 713 154 713 183 716 c 128,-1,21
 212 719 212 719 237 721 c 0,22,23
 268 724 268 724 298 727 c 1,24,25
 272 606 272 606 252 508 c 0,26,27
 243 466 243 466 234.5 424 c 128,-1,28
 226 382 226 382 218.5 347 c 128,-1,29
 211 312 211 312 205.5 286.5 c 128,-1,30
 200 261 200 261 196.5 245 c 128,-1,31
 193 229 193 229 188.5 204.5 c 128,-1,32
 184 180 184 180 184 160 c 0,33,34
 184 144 184 144 192 133.5 c 128,-1,35
 200 123 200 123 212 123 c 0,36,37
 229 123 229 123 240 136.5 c 128,-1,38
 251 150 251 150 258.5 169 c 128,-1,39
 266 188 266 188 269.5 207.5 c 128,-1,40
 273 227 273 227 276 238 c 0,41,42
 282 267 282 267 289.5 302.5 c 128,-1,43
 297 338 297 338 304.5 376.5 c 128,-1,44
 312 415 312 415 319.5 455 c 128,-1,45
 327 495 327 495 334 533 c 0,46,47
 351 621 351 621 367 715 c 1,48,-1
 519 725 l 1,49,50
 519 725 519 725 514 699 c 128,-1,51
 509 673 509 673 501 630 c 128,-1,52
 493 587 493 587 483.5 532 c 128,-1,53
 474 477 474 477 462 417.5 c 128,-1,54
 450 358 450 358 438.5 300.5 c 128,-1,55
 427 243 427 243 416 195 c 0,56,0
 402 138 402 138 376.5 98 c 128,-1,1
471 711 m 1,57,58
 549 711 549 711 550.5 768.5 c 128,-1,59
 552 826 552 826 550 875 c 1,60,61
 563 865 563 865 574.5 854.5 c 128,-1,62
 586 844 586 844 597 835 c 0,63,64
 609 824 609 824 619 815 c 1,65,66
 623 751 623 751 588.5 699.5 c 128,-1,67
 554 648 554 648 484 639 c 1,68,-1
 471 711 l 1,57,58
295.5 -122 m 128,-1,70
 289 -139 289 -139 275 -152 c 128,-1,71
 261 -165 261 -165 241 -173.5 c 128,-1,72
 221 -182 221 -182 196 -182 c 0,73,74
 156 -182 156 -182 136 -155.5 c 128,-1,75
 116 -129 116 -129 116 -96 c 0,76,77
 116 -79 116 -79 121.5 -63 c 128,-1,78
 127 -47 127 -47 138 -34.5 c 128,-1,79
 149 -22 149 -22 166 -14.5 c 128,-1,80
 183 -7 183 -7 206 -7 c 0,81,82
 255 -7 255 -7 278.5 -32 c 128,-1,83
 302 -57 302 -57 302 -88 c 0,84,69
 302 -105 302 -105 295.5 -122 c 128,-1,70
EndSplineSet
Validated: 37
EndChar

StartChar: uogonek
Encoding: 371 371 384
Width: 419
GlyphClass: 2
Flags: W
AnchorPoint: "Anchor-7" 448 691 basechar 0
AnchorPoint: "Anchor-6" 380 721 basechar 0
AnchorPoint: "Anchor-5" 377 10 basechar 0
AnchorPoint: "Anchor-4" 171 -20 basechar 0
LayerCount: 2
Fore
SplineSet
376.5 98 m 128,-1,1
 351 58 351 58 316.5 32 c 128,-1,2
 282 6 282 6 243 -6 c 128,-1,3
 204 -18 204 -18 165 -18 c 0,4,5
 142 -18 142 -18 118 -10.5 c 128,-1,6
 94 -3 94 -3 75 12 c 128,-1,7
 56 27 56 27 43.5 50 c 128,-1,8
 31 73 31 73 31 104 c 0,9,10
 31 108 31 108 31 112 c 128,-1,11
 31 116 31 116 32 120 c 0,12,13
 36 161 36 161 45 219 c 128,-1,14
 54 277 54 277 64 340 c 128,-1,15
 74 403 74 403 86 466.5 c 128,-1,16
 98 530 98 530 107.5 582 c 128,-1,17
 117 634 117 634 124 668.5 c 128,-1,18
 131 703 131 703 133 711 c 1,19,20
 154 713 154 713 183 716 c 128,-1,21
 212 719 212 719 237 721 c 0,22,23
 268 724 268 724 298 727 c 1,24,25
 272 606 272 606 252 508 c 0,26,27
 243 466 243 466 234.5 424 c 128,-1,28
 226 382 226 382 218.5 347 c 128,-1,29
 211 312 211 312 205.5 286.5 c 128,-1,30
 200 261 200 261 196.5 245 c 128,-1,31
 193 229 193 229 188.5 204.5 c 128,-1,32
 184 180 184 180 184 160 c 0,33,34
 184 144 184 144 192 133.5 c 128,-1,35
 200 123 200 123 212 123 c 0,36,37
 229 123 229 123 240 136.5 c 128,-1,38
 251 150 251 150 258.5 169 c 128,-1,39
 266 188 266 188 269.5 207.5 c 128,-1,40
 273 227 273 227 276 238 c 0,41,42
 282 267 282 267 289.5 302.5 c 128,-1,43
 297 338 297 338 304.5 376.5 c 128,-1,44
 312 415 312 415 319.5 455 c 128,-1,45
 327 495 327 495 334 533 c 0,46,47
 351 621 351 621 367 715 c 1,48,-1
 519 725 l 1,49,50
 519 725 519 725 514 699 c 128,-1,51
 509 673 509 673 501 630 c 128,-1,52
 493 587 493 587 483.5 532 c 128,-1,53
 474 477 474 477 462 417.5 c 128,-1,54
 450 358 450 358 438.5 300.5 c 128,-1,55
 427 243 427 243 416 195 c 0,56,0
 402 138 402 138 376.5 98 c 128,-1,1
338.5 -156 m 128,-1,58
 316 -165 316 -165 293 -165 c 0,59,60
 263 -165 263 -165 238.5 -157.5 c 128,-1,61
 214 -150 214 -150 196 -137 c 128,-1,62
 178 -124 178 -124 168 -106.5 c 128,-1,63
 158 -89 158 -89 158 -68 c 0,64,65
 158 -29 158 -29 198 10 c 0,66,67
 199 10 199 10 208 11.5 c 128,-1,68
 217 13 217 13 229 15 c 128,-1,69
 241 17 241 17 258 19 c 1,70,71
 254 1 254 1 254 -11 c 0,72,73
 254 -36 254 -36 268.5 -52 c 128,-1,74
 283 -68 283 -68 304 -68 c 0,75,76
 332 -68 332 -68 357 -40 c 1,77,-1
 377 -128 l 1,78,57
 361 -147 361 -147 338.5 -156 c 128,-1,58
EndSplineSet
Validated: 5
EndChar

